{"glyphs":{"0":{"ha":713,"x_min":71,"x_max":640,"o":"m 640 497 q 624 282 640 376 q 573 122 607 188 q 485 22 539 56 q 357 -12 432 -12 q 199 44 263 -12 q 103 214 136 100 q 71 497 71 328 q 99 767 71 653 q 191 944 128 882 q 357 1007 254 1007 q 521 944 458 1007 q 612 768 583 882 q 640 497 640 654 m 150 497 q 172 255 150 353 q 239 107 193 157 q 357 57 285 57 q 475 107 431 57 q 540 255 519 157 q 561 497 561 353 q 542 734 561 636 q 478 884 522 832 q 357 936 433 936 q 235 883 281 936 q 170 733 190 831 q 150 497 150 635 z "},"1":{"ha":713,"x_min":119,"x_max":432,"o":"m 432 0 l 356 0 l 356 733 q 356 799 356 771 q 357 853 356 828 q 358 904 358 879 q 327 874 343 888 q 286 839 311 860 l 163 738 l 119 792 l 367 992 l 432 992 l 432 0 z "},"2":{"ha":713,"x_min":65,"x_max":631,"o":"m 631 0 l 65 0 l 65 63 l 319 358 q 428 493 385 432 q 493 614 471 554 q 515 744 515 674 q 467 887 515 838 q 333 936 418 936 q 225 915 276 936 q 125 856 174 894 l 83 910 q 161 962 121 940 q 245 994 201 983 q 336 1006 289 1006 q 474 974 415 1006 q 563 885 532 943 q 594 749 594 828 q 569 599 594 667 q 497 466 543 531 q 385 328 450 401 l 164 75 l 164 72 l 631 72 l 631 0 z "},"3":{"ha":713,"x_min":61,"x_max":628,"o":"m 603 764 q 578 649 603 699 q 511 567 554 599 q 411 521 468 535 l 411 517 q 572 438 515 500 q 628 271 628 376 q 592 123 628 188 q 484 22 556 58 q 304 -14 413 -14 q 174 -1 235 -14 q 61 36 113 11 l 61 113 q 176 71 111 88 q 303 54 240 54 q 486 113 426 54 q 546 274 546 172 q 513 392 546 347 q 421 458 481 438 q 281 479 361 479 l 194 479 l 194 549 l 282 549 q 407 573 353 549 q 492 644 461 597 q 524 760 524 692 q 472 892 524 846 q 333 938 421 938 q 249 928 289 938 q 174 899 210 918 q 104 854 139 881 l 64 908 q 184 979 117 953 q 336 1006 251 1006 q 533 940 463 1006 q 603 764 603 875 z "},"4":{"ha":713,"x_min":28,"x_max":693,"o":"m 693 240 l 546 240 l 546 0 l 469 0 l 469 240 l 28 240 l 28 306 l 464 997 l 546 997 l 546 311 l 693 311 l 693 240 m 469 719 q 470 775 469 750 q 472 822 471 800 q 473 864 472 843 q 474 904 474 885 l 469 904 q 438 842 454 871 q 403 781 422 813 l 107 311 l 469 311 l 469 719 z "},"5":{"ha":713,"x_min":85,"x_max":636,"o":"m 342 600 q 500 565 435 600 q 601 465 565 529 q 636 311 636 401 q 597 140 636 213 q 485 26 558 67 q 307 -14 411 -14 q 182 0 239 -14 q 85 36 125 14 l 85 115 q 186 72 128 89 q 307 56 244 56 q 440 86 385 56 q 526 173 496 117 q 556 306 556 229 q 498 472 556 413 q 321 532 440 532 q 229 524 275 532 q 146 506 183 517 l 107 536 l 143 992 l 575 992 l 575 919 l 210 919 l 182 579 q 251 593 211 586 q 342 600 292 600 z "},"6":{"ha":713,"x_min":78,"x_max":644,"o":"m 78 422 q 92 626 78 535 q 138 789 107 718 q 214 908 168 860 q 322 981 260 956 q 463 1006 383 1006 q 527 1001 496 1006 q 582 990 558 997 l 582 919 q 528 933 558 928 q 465 938 499 938 q 331 908 389 938 q 235 819 274 878 q 177 676 197 761 q 154 481 157 592 l 160 481 q 205 546 175 515 q 281 596 235 576 q 388 615 326 615 q 526 578 469 615 q 614 472 583 540 q 644 313 644 404 q 612 141 644 215 q 518 26 579 67 q 371 -15 457 -15 q 244 15 299 -15 q 152 103 189 46 q 97 242 115 161 q 78 422 78 322 m 369 54 q 515 120 463 54 q 567 313 567 186 q 519 485 567 422 q 374 549 472 549 q 260 519 308 549 q 185 444 211 490 q 160 347 160 399 q 170 254 160 304 q 205 158 181 204 q 269 83 229 113 q 369 54 310 54 z "},"7":{"ha":713,"x_min":64,"x_max":642,"o":"m 190 0 l 558 919 l 64 919 l 64 992 l 642 992 l 642 933 l 275 0 l 190 0 z "},"8":{"ha":713,"x_min":68,"x_max":643,"o":"m 356 1006 q 492 978 435 1006 q 582 899 550 950 q 614 775 614 847 q 590 669 614 715 q 522 589 565 624 q 421 525 479 554 q 536 456 486 494 q 615 368 586 418 q 643 251 643 318 q 606 111 643 171 q 506 19 569 51 q 356 -14 442 -14 q 202 18 267 -14 q 103 108 138 50 q 68 244 68 167 q 95 367 68 315 q 170 456 122 418 q 279 522 218 494 q 185 588 226 553 q 120 669 144 622 q 96 775 96 715 q 129 897 96 846 q 221 977 163 949 q 356 1006 279 1006 m 144 244 q 200 106 144 158 q 353 53 256 53 q 508 106 451 53 q 565 250 565 160 q 543 340 565 300 q 478 413 521 379 q 372 475 436 447 l 344 488 q 240 428 285 461 q 169 350 194 394 q 144 244 144 306 m 354 939 q 224 895 275 939 q 174 772 174 851 q 197 681 174 719 q 261 614 219 643 q 357 560 303 585 q 453 616 413 588 q 515 683 493 644 q 536 772 536 721 q 488 896 536 853 q 354 939 439 939 z "},"9":{"ha":713,"x_min":65,"x_max":632,"o":"m 632 571 q 617 366 632 458 q 572 203 603 274 q 496 83 542 132 q 388 10 450 35 q 246 -15 325 -15 q 180 -10 215 -15 q 121 1 144 -6 l 121 72 q 178 58 144 64 q 244 53 211 53 q 381 84 324 53 q 476 175 438 115 q 533 319 514 235 q 556 510 553 404 l 550 510 q 504 445 535 476 q 428 394 474 414 q 321 375 383 375 q 183 413 240 375 q 95 518 125 450 q 65 678 65 586 q 98 851 65 778 q 192 965 131 924 q 342 1006 254 1006 q 468 975 414 1006 q 559 888 522 944 q 614 751 596 831 q 632 571 632 671 m 342 936 q 196 870 247 936 q 144 679 144 804 q 191 505 144 568 q 336 442 238 442 q 451 472 403 442 q 524 548 499 501 q 550 646 550 594 q 540 738 550 688 q 507 833 531 788 q 443 907 483 878 q 342 936 403 936 z "},"\u0000":{"ha":0,"x_min":0,"x_max":0,"o":""},"\r":{"ha":324,"x_min":0,"x_max":0,"o":""}," ":{"ha":324,"x_min":0,"x_max":0,"o":""},"!":{"ha":325,"x_min":104,"x_max":222,"o":"m 192 260 l 135 260 l 117 992 l 210 992 l 192 260 m 104 56 q 119 106 104 89 q 163 124 133 124 q 206 107 190 124 q 222 56 222 90 q 206 3 222 21 q 163 -14 190 -14 q 119 4 133 -14 q 104 56 104 22 z "},"\"":{"ha":492,"x_min":92,"x_max":400,"o":"m 178 992 l 163 633 l 108 633 l 92 992 l 178 992 m 400 992 l 383 633 l 329 633 l 314 992 l 400 992 z "},"#":{"ha":793,"x_min":33,"x_max":761,"o":"m 586 631 l 543 369 l 715 369 l 715 307 l 533 307 l 482 0 l 418 0 l 469 307 l 260 307 l 210 0 l 146 0 l 196 307 l 33 307 l 33 369 l 206 369 l 250 631 l 78 631 l 78 693 l 260 693 l 308 992 l 374 992 l 324 693 l 533 693 l 582 992 l 644 992 l 596 693 l 761 693 l 761 631 l 586 631 m 269 369 l 479 369 l 522 631 l 314 631 l 269 369 z "},"$":{"ha":713,"x_min":74,"x_max":625,"o":"m 317 44 q 181 58 243 46 q 75 89 118 71 l 75 167 q 185 131 119 146 q 317 114 250 115 l 317 475 q 185 535 240 503 q 102 613 131 567 q 74 726 74 658 q 105 845 74 796 q 190 923 136 894 q 317 957 244 951 l 317 1054 l 374 1054 l 374 957 q 488 943 433 956 q 590 907 542 931 l 565 842 q 471 875 519 864 q 374 889 422 886 l 374 531 q 510 470 454 501 q 596 394 567 439 q 625 283 625 350 q 558 120 625 181 q 374 47 490 60 l 374 -81 l 317 -81 l 317 44 m 374 117 q 503 165 456 124 q 550 279 550 207 q 531 354 550 324 q 474 408 513 385 q 374 453 435 432 l 374 117 m 317 888 q 228 865 265 883 q 169 812 190 846 q 149 731 149 778 q 169 649 149 682 q 226 594 189 617 q 317 553 263 572 l 317 888 z "},"%":{"ha":1029,"x_min":69,"x_max":960,"o":"m 249 1006 q 383 926 338 1006 q 429 696 429 847 q 383 464 429 544 q 247 383 336 383 q 115 465 161 383 q 69 696 69 546 q 115 926 69 846 q 249 1006 160 1006 m 249 947 q 165 885 193 947 q 136 696 136 822 q 164 507 136 571 q 247 443 192 443 q 333 507 304 443 q 361 696 361 571 q 333 883 361 819 q 249 947 306 947 m 785 992 l 314 0 l 244 0 l 715 992 l 785 992 m 779 608 q 914 529 868 608 q 960 299 960 450 q 913 65 960 144 q 779 -14 867 -14 q 647 66 693 -14 q 601 300 601 146 q 647 530 601 451 q 779 608 692 608 m 779 550 q 697 488 725 550 q 668 299 668 425 q 696 110 668 174 q 779 47 724 47 q 865 111 838 47 q 892 299 892 175 q 865 486 892 422 q 779 550 838 550 z "},"&":{"ha":850,"x_min":67,"x_max":835,"o":"m 365 1007 q 470 983 426 1007 q 539 913 514 958 q 564 801 564 867 q 514 647 564 710 q 379 532 464 583 l 631 238 q 685 340 663 281 q 717 465 707 400 l 796 465 q 753 312 782 386 q 679 181 724 238 l 835 0 l 735 0 l 629 125 q 550 53 593 85 q 454 4 507 22 q 333 -14 401 -14 q 192 18 251 -14 q 99 109 132 50 q 67 250 67 168 q 90 372 67 321 q 160 465 114 422 q 272 546 206 507 q 212 628 238 589 q 172 710 186 668 q 157 800 157 751 q 183 910 157 864 q 255 982 208 957 q 365 1007 301 1007 m 315 494 q 222 426 260 461 q 165 351 185 392 q 146 253 146 310 q 199 109 146 161 q 338 57 251 57 q 479 91 421 57 q 583 181 538 125 l 315 494 m 363 940 q 267 903 303 940 q 232 800 232 865 q 259 690 232 742 q 335 583 286 639 q 450 680 413 628 q 488 801 488 732 q 455 903 488 867 q 363 940 422 940 z "},"'":{"ha":268,"x_min":92,"x_max":178,"o":"m 178 992 l 163 633 l 108 633 l 92 992 l 178 992 z "},"(":{"ha":385,"x_min":61,"x_max":339,"o":"m 61 382 q 84 610 61 500 q 152 817 107 719 q 263 993 197 914 l 339 993 q 190 710 240 867 q 140 383 140 554 q 163 164 140 271 q 231 -40 186 57 q 339 -219 275 -136 l 263 -219 q 153 -47 199 -142 q 85 157 108 49 q 61 382 61 265 z "},")":{"ha":385,"x_min":47,"x_max":324,"o":"m 324 388 q 301 161 324 271 q 233 -45 278 51 q 124 -219 189 -142 l 47 -219 q 156 -38 113 -136 q 223 168 200 60 q 246 388 246 276 q 223 607 246 500 q 156 812 200 714 q 47 993 111 910 l 124 993 q 233 817 189 914 q 301 613 278 721 q 324 388 324 504 z "},"*":{"ha":672,"x_min":65,"x_max":603,"o":"m 375 1056 l 360 815 l 588 889 l 603 813 l 378 768 l 526 572 l 457 531 l 333 740 l 213 531 l 143 572 l 292 768 l 65 813 l 82 889 l 310 815 l 293 1056 l 375 1056 z "},"+":{"ha":714,"x_min":61,"x_max":650,"o":"m 389 522 l 650 522 l 650 457 l 389 457 l 389 164 l 324 164 l 324 457 l 61 457 l 61 522 l 324 522 l 324 817 l 389 817 l 389 522 z "},",":{"ha":301,"x_min":54,"x_max":214,"o":"m 214 140 q 188 35 203 90 q 153 -76 172 -21 q 114 -181 135 -131 l 54 -181 q 85 -62 71 -119 q 108 51 99 -4 q 125 157 118 107 l 207 157 l 214 140 z "},"-":{"ha":419,"x_min":49,"x_max":371,"o":"m 49 339 l 49 411 l 371 411 l 371 339 l 49 339 z "},".":{"ha":318,"x_min":100,"x_max":218,"o":"m 100 56 q 115 106 100 89 q 158 124 131 124 q 203 107 188 124 q 218 56 218 90 q 203 3 218 21 q 158 -14 188 -14 q 115 4 131 -14 q 100 56 100 22 z "},"/":{"ha":483,"x_min":21,"x_max":465,"o":"m 465 993 l 99 -1 l 21 -1 l 389 993 l 465 993 z "},":":{"ha":318,"x_min":101,"x_max":219,"o":"m 101 56 q 116 106 101 89 q 158 124 131 124 q 204 106 189 124 q 219 56 219 89 q 204 4 219 22 q 158 -14 189 -14 q 116 4 131 -14 q 101 56 101 22 m 101 679 q 116 731 101 714 q 160 749 131 749 q 204 732 189 749 q 219 681 219 715 q 203 628 219 646 q 158 611 188 611 q 116 628 131 611 q 101 679 101 646 z "},";":{"ha":318,"x_min":49,"x_max":219,"o":"m 211 140 q 184 35 200 90 q 149 -76 168 -21 q 110 -181 131 -131 l 49 -181 q 74 -89 63 -133 q 93 -3 85 -44 q 108 78 101 39 q 121 157 115 118 l 203 157 l 211 140 m 101 681 q 116 731 101 714 q 160 749 131 749 q 204 731 189 749 q 219 681 219 714 q 203 628 219 646 q 160 611 188 611 q 116 628 131 611 q 101 681 101 646 z "},"<":{"ha":714,"x_min":61,"x_max":651,"o":"m 651 183 l 61 472 l 61 519 l 651 814 l 651 742 l 149 497 l 651 256 l 651 183 z "},"=":{"ha":714,"x_min":64,"x_max":647,"o":"m 64 600 l 64 665 l 647 665 l 647 600 l 64 600 m 64 314 l 64 379 l 647 379 l 647 314 l 64 314 z "},">":{"ha":714,"x_min":61,"x_max":651,"o":"m 61 256 l 564 497 l 61 742 l 61 814 l 651 519 l 651 472 l 61 183 l 61 256 z "},"?":{"ha":521,"x_min":29,"x_max":481,"o":"m 171 290 q 180 388 171 347 q 211 463 189 428 q 272 533 233 497 q 347 609 318 575 q 390 681 375 643 q 404 769 404 718 q 359 894 404 853 q 238 936 314 936 q 144 923 186 936 q 58 886 101 910 l 29 950 q 130 991 79 976 q 240 1006 181 1006 q 417 946 353 1006 q 481 772 481 886 q 462 660 481 707 q 409 576 443 614 q 329 494 375 538 q 272 429 293 460 q 244 365 251 399 q 236 283 236 332 l 236 260 l 171 260 l 171 290 m 149 56 q 163 106 149 89 q 207 124 178 124 q 251 107 236 124 q 265 56 265 90 q 250 3 265 21 q 207 -14 235 -14 q 163 4 178 -14 q 149 56 149 22 z "},"@":{"ha":1101,"x_min":75,"x_max":1028,"o":"m 1028 490 q 1015 356 1028 418 q 977 249 1003 294 q 913 178 951 203 q 824 153 875 153 q 730 190 764 153 q 692 288 696 226 l 686 288 q 619 186 664 219 q 515 153 575 153 q 377 218 426 153 q 328 403 328 283 q 360 568 328 499 q 449 676 392 638 q 585 715 507 715 q 676 708 632 715 q 751 688 719 700 l 740 435 q 738 387 739 411 q 736 344 736 363 q 759 244 736 276 q 826 213 782 213 q 901 247 871 213 q 946 343 931 281 q 961 492 961 406 q 915 725 961 626 q 785 876 869 824 q 585 929 700 929 q 398 890 481 929 q 258 781 315 851 q 172 613 201 710 q 142 399 142 515 q 186 151 142 256 q 317 -10 231 47 q 528 -67 403 -67 q 659 -51 594 -67 q 775 -12 724 -36 l 775 -78 q 663 -114 725 -100 q 528 -128 600 -128 q 283 -65 385 -128 q 128 116 182 -1 q 75 396 75 233 q 110 642 75 532 q 214 831 146 753 q 376 949 282 908 q 585 990 469 990 q 768 955 686 990 q 908 853 850 919 q 997 695 967 788 q 1028 490 1028 603 m 399 401 q 431 260 399 308 q 524 213 463 213 q 628 272 592 213 q 671 449 664 331 l 681 643 q 637 653 661 649 q 585 657 613 657 q 484 624 526 657 q 420 535 442 592 q 399 401 399 478 z "},"A":{"ha":746,"x_min":0,"x_max":744,"o":"m 663 0 l 549 344 l 197 344 l 82 0 l 0 0 l 335 994 l 417 994 l 744 0 l 663 0 m 413 781 q 400 822 407 799 q 386 869 393 844 q 374 914 379 893 q 362 868 368 892 q 349 823 356 844 q 336 781 342 801 l 219 417 l 526 417 l 413 781 z "},"B":{"ha":786,"x_min":126,"x_max":718,"o":"m 376 992 q 615 934 538 992 q 692 753 692 876 q 672 645 692 693 q 614 567 653 597 q 518 525 575 536 l 518 521 q 629 478 585 508 q 696 399 674 449 q 718 281 718 350 q 681 126 718 189 q 573 32 643 64 q 408 0 503 0 l 126 0 l 126 992 l 376 992 m 386 554 q 558 602 504 554 q 611 746 611 650 q 555 880 611 838 q 372 922 499 922 l 206 922 l 206 554 l 386 554 m 206 485 l 206 69 l 400 69 q 576 124 518 69 q 635 285 635 178 q 607 399 635 356 q 524 464 579 443 q 389 485 469 485 l 206 485 z "},"C":{"ha":767,"x_min":81,"x_max":728,"o":"m 503 935 q 356 901 419 935 q 249 809 292 868 q 185 670 207 750 q 164 497 164 590 q 202 265 164 364 q 314 111 240 165 q 496 57 388 57 q 610 69 558 57 q 706 97 661 81 l 706 26 q 609 -3 663 7 q 488 -14 556 -14 q 266 49 357 -14 q 128 226 175 111 q 81 499 81 342 q 108 698 81 606 q 188 860 135 790 q 320 967 242 929 q 501 1006 399 1006 q 621 993 564 1006 q 728 954 678 981 l 697 886 q 603 923 651 911 q 503 935 554 935 z "},"D":{"ha":876,"x_min":126,"x_max":796,"o":"m 796 506 q 745 226 796 339 q 594 57 694 114 q 347 0 494 0 l 126 0 l 126 992 l 368 992 q 603 937 508 992 q 747 774 699 882 q 796 506 796 665 m 713 503 q 674 734 713 642 q 557 874 636 826 q 357 921 478 921 l 206 921 l 206 71 l 342 71 q 622 179 531 71 q 713 503 713 288 z "},"E":{"ha":686,"x_min":126,"x_max":608,"o":"m 608 0 l 126 0 l 126 992 l 608 992 l 608 921 l 206 921 l 206 556 l 585 556 l 585 485 l 206 485 l 206 71 l 608 71 l 608 0 z "},"F":{"ha":631,"x_min":126,"x_max":610,"o":"m 206 0 l 126 0 l 126 992 l 610 992 l 610 921 l 206 921 l 206 511 l 586 511 l 586 439 l 206 439 l 206 0 z "},"G":{"ha":908,"x_min":81,"x_max":813,"o":"m 494 506 l 813 506 l 813 40 q 671 -1 744 13 q 517 -14 597 -14 q 276 49 372 -14 q 130 226 179 111 q 81 494 81 340 q 134 761 81 646 q 290 942 188 876 q 538 1007 392 1007 q 675 992 610 1007 q 800 946 740 976 l 768 876 q 654 921 713 907 q 535 935 596 935 q 333 880 417 935 q 207 726 250 825 q 164 494 164 628 q 204 260 164 358 q 326 109 244 161 q 529 57 407 57 q 641 67 590 57 q 733 90 692 76 l 733 433 l 494 433 l 494 506 z "},"H":{"ha":896,"x_min":126,"x_max":769,"o":"m 769 0 l 690 0 l 690 483 l 206 483 l 206 0 l 126 0 l 126 992 l 206 992 l 206 556 l 690 556 l 690 992 l 769 992 l 769 0 z "},"I":{"ha":401,"x_min":63,"x_max":339,"o":"m 339 0 l 63 0 l 63 49 l 161 64 l 161 926 l 63 943 l 63 992 l 339 992 l 339 943 l 240 926 l 240 64 l 339 49 l 339 0 z "},"J":{"ha":326,"x_min":-101,"x_max":206,"o":"m -3 -254 q -58 -249 -35 -254 q -101 -237 -82 -244 l -101 -165 q -58 -177 -82 -172 q -6 -182 -33 -182 q 69 -162 39 -182 q 113 -101 99 -142 q 126 0 126 -61 l 126 992 l 206 992 l 206 -3 q 183 -141 206 -85 q 113 -226 160 -197 q -3 -254 67 -254 z "},"K":{"ha":728,"x_min":126,"x_max":729,"o":"m 729 0 l 636 0 l 313 504 l 206 392 l 206 0 l 126 0 l 126 992 l 206 992 l 206 474 q 253 535 226 501 q 310 607 279 568 l 624 992 l 717 992 l 368 564 l 729 0 z "},"L":{"ha":635,"x_min":126,"x_max":606,"o":"m 126 0 l 126 992 l 206 992 l 206 72 l 606 72 l 606 0 l 126 0 z "},"M":{"ha":1115,"x_min":126,"x_max":990,"o":"m 521 0 l 200 897 l 196 897 q 199 834 197 865 q 201 774 200 803 q 201 717 201 744 l 201 0 l 126 0 l 126 992 l 243 992 l 556 119 l 560 119 l 874 992 l 990 992 l 990 0 l 911 0 l 911 721 q 912 774 911 746 q 914 832 913 801 q 917 896 915 863 l 913 896 l 590 0 l 521 0 z "},"N":{"ha":914,"x_min":126,"x_max":788,"o":"m 788 0 l 700 0 l 200 867 l 196 867 q 199 798 197 833 q 201 725 200 763 q 201 647 201 688 l 201 0 l 126 0 l 126 992 l 215 992 l 714 131 l 718 131 q 716 200 717 163 q 714 276 715 238 q 713 349 713 315 l 713 992 l 788 992 l 788 0 z "},"O":{"ha":946,"x_min":81,"x_max":864,"o":"m 864 497 q 841 294 864 388 q 769 132 818 201 q 647 24 721 63 q 474 -14 574 -14 q 297 25 371 -14 q 174 133 222 64 q 103 296 126 203 q 81 499 81 389 q 125 770 81 657 q 258 945 169 883 q 476 1007 346 1007 q 692 943 606 1007 q 821 765 778 879 q 864 497 864 650 m 164 497 q 198 264 164 363 q 301 111 232 165 q 474 57 369 57 q 647 110 578 57 q 748 261 715 163 q 781 497 781 360 q 704 821 781 707 q 476 935 628 935 q 301 882 371 935 q 197 731 231 829 q 164 497 164 633 z "},"P":{"ha":732,"x_min":126,"x_max":668,"o":"m 340 992 q 587 923 506 992 q 668 710 668 854 q 647 580 668 636 q 584 484 626 524 q 478 425 542 444 q 326 406 414 406 l 206 406 l 206 0 l 126 0 l 126 992 l 340 992 m 335 922 l 206 922 l 206 475 l 321 475 q 466 497 407 475 q 556 571 525 519 q 586 708 586 622 q 525 872 586 821 q 335 922 464 922 z "},"Q":{"ha":946,"x_min":81,"x_max":864,"o":"m 864 497 q 833 265 864 367 q 743 97 803 164 q 593 4 683 31 l 781 -236 l 675 -236 l 511 -11 q 492 -13 501 -12 q 471 -14 482 -14 q 297 24 371 -14 q 176 132 224 63 q 104 294 128 201 q 81 499 81 388 q 125 770 81 657 q 258 945 169 883 q 478 1007 347 1007 q 688 947 601 1007 q 819 774 774 888 q 864 497 864 661 m 164 499 q 197 264 164 363 q 300 111 231 165 q 474 57 369 57 q 647 110 578 57 q 748 261 715 163 q 781 497 781 360 q 704 822 781 708 q 478 935 628 935 q 301 882 371 935 q 197 731 231 829 q 164 499 164 633 z "},"R":{"ha":747,"x_min":126,"x_max":721,"o":"m 339 992 q 522 965 449 992 q 631 878 594 938 q 668 719 668 818 q 644 592 668 646 q 576 503 619 538 q 474 450 533 469 l 721 0 l 629 0 l 400 429 l 206 429 l 206 0 l 126 0 l 126 992 l 339 992 m 333 921 l 206 921 l 206 497 l 360 497 q 527 553 467 497 q 588 717 588 608 q 560 837 588 793 q 477 901 533 881 q 333 921 421 921 z "},"S":{"ha":685,"x_min":68,"x_max":619,"o":"m 619 260 q 581 111 619 172 q 472 18 542 50 q 310 -14 401 -14 q 216 -8 260 -14 q 135 6 172 -3 q 68 28 99 15 l 68 108 q 180 73 117 88 q 313 58 243 58 q 433 81 382 58 q 511 149 483 104 q 539 256 539 193 q 516 351 539 314 q 444 417 493 389 q 317 475 394 444 q 218 520 263 496 q 142 576 174 544 q 94 650 111 607 q 78 753 78 693 q 115 890 78 833 q 219 976 153 946 q 368 1006 285 1006 q 492 992 433 1006 q 600 956 551 979 l 574 886 q 469 922 522 911 q 367 933 417 933 q 257 913 304 933 q 184 852 210 892 q 158 754 158 813 q 183 655 158 693 q 254 590 207 617 q 368 536 301 564 q 504 471 449 506 q 590 387 560 436 q 619 260 619 338 z "},"T":{"ha":649,"x_min":10,"x_max":639,"o":"m 364 0 l 285 0 l 285 921 l 10 921 l 10 992 l 639 992 l 639 921 l 364 921 l 364 0 z "},"U":{"ha":892,"x_min":117,"x_max":775,"o":"m 775 333 q 735 142 775 219 q 622 26 696 65 q 444 -14 549 -14 q 201 76 286 -14 q 117 336 117 165 l 117 992 l 196 992 l 196 336 q 260 126 196 196 q 447 57 325 57 q 582 88 526 57 q 667 179 638 118 q 696 331 696 240 l 696 992 l 775 992 l 775 333 z "},"V":{"ha":717,"x_min":0,"x_max":717,"o":"m 717 992 l 400 0 l 317 0 l 0 992 l 82 992 l 310 269 q 329 208 321 238 q 345 149 338 178 q 358 92 353 119 q 372 148 364 119 q 388 207 379 176 q 407 271 397 238 l 633 992 l 717 992 z "},"W":{"ha":1139,"x_min":22,"x_max":1118,"o":"m 1118 992 l 871 0 l 785 0 l 601 721 q 591 763 596 742 q 582 804 586 783 q 574 845 578 825 q 567 885 569 865 q 561 849 564 867 q 554 811 558 831 q 545 772 550 792 q 535 729 540 751 l 353 0 l 268 0 l 22 992 l 104 992 l 271 306 q 284 247 278 275 q 295 194 290 219 q 305 145 300 168 q 313 103 310 122 q 322 153 317 128 q 332 206 326 179 q 344 258 338 232 q 356 308 350 283 l 528 992 l 607 992 l 782 306 q 795 251 789 278 q 806 200 801 225 q 816 150 811 175 q 825 100 821 125 q 836 167 831 133 q 850 235 842 200 q 867 306 858 269 l 1036 992 l 1118 992 z "},"X":{"ha":668,"x_min":4,"x_max":664,"o":"m 664 0 l 575 0 l 338 453 l 89 0 l 4 0 l 292 517 l 33 992 l 119 992 l 339 578 l 561 992 l 646 992 l 385 515 l 664 0 z "},"Y":{"ha":651,"x_min":0,"x_max":651,"o":"m 326 468 l 565 992 l 651 992 l 365 385 l 365 0 l 288 0 l 288 381 l 0 992 l 86 992 l 326 468 z "},"Z":{"ha":681,"x_min":46,"x_max":635,"o":"m 635 0 l 46 0 l 46 61 l 528 919 l 68 919 l 68 992 l 622 992 l 622 931 l 140 72 l 635 72 l 635 0 z "},"[":{"ha":440,"x_min":114,"x_max":400,"o":"m 400 -221 l 114 -221 l 114 993 l 400 993 l 400 928 l 189 928 l 189 -154 l 400 -154 l 400 -221 z "},"\\":{"ha":483,"x_min":21,"x_max":465,"o":"m 97 993 l 465 -1 l 388 -1 l 21 993 l 97 993 z "},"]":{"ha":440,"x_min":39,"x_max":326,"o":"m 39 -154 l 251 -154 l 251 928 l 39 928 l 39 993 l 326 993 l 326 -221 l 39 -221 l 39 -154 z "},"^":{"ha":715,"x_min":46,"x_max":671,"o":"m 46 419 l 333 996 l 383 996 l 671 419 l 596 419 l 358 906 l 121 419 l 46 419 z "},"_":{"ha":578,"x_min":-3,"x_max":581,"o":"m 581 -186 l -3 -186 l -3 -124 l 581 -124 l 581 -186 z "},"`":{"ha":358,"x_min":56,"x_max":303,"o":"m 147 1063 q 193 994 167 1032 q 249 919 219 956 q 303 856 278 883 l 303 842 l 250 842 q 199 889 226 863 q 144 944 171 915 q 94 1001 117 974 q 56 1051 71 1029 l 56 1063 l 147 1063 z "},"a":{"ha":671,"x_min":60,"x_max":565,"o":"m 342 751 q 511 691 457 751 q 565 497 565 631 l 565 0 l 506 0 l 493 121 l 490 121 q 439 51 468 82 q 367 3 410 21 q 265 -14 325 -14 q 153 12 200 -14 q 83 84 107 38 q 60 193 60 131 q 140 362 60 304 q 372 428 219 419 l 489 435 l 489 489 q 451 642 489 597 q 336 686 413 686 q 244 673 290 686 q 151 635 199 660 l 126 696 q 228 737 174 722 q 342 751 283 751 m 381 369 q 200 319 260 363 q 140 193 140 276 q 178 88 140 124 q 281 51 215 51 q 435 118 382 51 q 489 301 488 185 l 489 375 l 381 369 z "},"b":{"ha":753,"x_min":111,"x_max":681,"o":"m 189 744 q 188 674 189 711 q 185 608 186 636 l 189 608 q 271 713 214 672 q 411 753 328 753 q 610 656 540 753 q 681 372 681 560 q 649 165 681 251 q 556 33 618 79 q 404 -14 494 -14 q 270 23 322 -14 q 190 118 218 60 l 185 118 l 171 0 l 111 0 l 111 1056 l 189 1056 l 189 744 m 400 685 q 278 649 325 685 q 210 544 231 613 q 189 381 189 476 l 189 356 q 238 130 189 206 q 393 54 288 54 q 549 135 496 54 q 601 372 601 215 q 552 606 601 528 q 400 685 503 685 z "},"c":{"ha":586,"x_min":74,"x_max":549,"o":"m 375 -14 q 210 31 278 -14 q 108 160 142 75 q 74 364 74 244 q 112 576 74 489 q 221 708 150 663 q 388 753 292 753 q 476 744 435 753 q 549 718 517 735 l 525 653 q 458 675 493 667 q 389 683 422 683 q 260 646 313 683 q 181 538 208 608 q 153 365 153 467 q 177 201 153 271 q 251 93 201 131 q 378 56 300 56 q 465 65 424 56 q 542 90 506 75 l 542 21 q 466 -4 508 6 q 375 -14 424 -14 z "},"d":{"ha":753,"x_min":72,"x_max":642,"o":"m 346 -14 q 142 82 213 -14 q 72 363 72 178 q 146 653 72 553 q 350 753 219 753 q 447 735 406 753 q 518 685 489 717 q 564 615 547 654 l 569 615 q 566 681 568 647 q 564 743 564 715 l 564 1056 l 642 1056 l 642 0 l 579 0 l 569 125 l 564 125 q 518 56 547 88 q 447 6 489 25 q 346 -14 404 -14 m 357 53 q 516 128 467 53 q 565 344 565 204 l 565 383 q 517 607 565 529 q 361 685 468 685 q 206 601 258 685 q 153 361 153 518 q 203 132 153 211 q 357 53 253 53 z "},"e":{"ha":689,"x_min":74,"x_max":618,"o":"m 360 753 q 504 708 447 753 q 590 588 561 664 q 618 417 618 513 l 618 361 l 151 361 q 213 133 153 211 q 386 54 272 54 q 490 66 443 54 q 589 104 536 78 l 589 33 q 493 -2 542 10 q 382 -14 444 -14 q 211 33 281 -14 q 108 165 142 79 q 74 365 74 250 q 106 568 74 481 q 203 704 139 656 q 360 753 267 753 m 358 686 q 217 620 271 686 q 154 425 163 554 l 540 425 q 521 560 540 501 q 461 652 501 618 q 358 686 421 686 z "},"f":{"ha":390,"x_min":17,"x_max":450,"o":"m 367 675 l 214 675 l 214 0 l 138 0 l 138 675 l 17 675 l 17 718 l 138 742 l 138 815 q 158 953 138 899 q 222 1035 178 1008 q 333 1063 265 1063 q 397 1056 368 1063 q 450 1042 425 1050 l 431 978 q 384 991 408 986 q 336 996 360 996 q 242 954 271 996 q 214 815 214 913 l 214 739 l 367 739 l 367 675 z "},"g":{"ha":751,"x_min":72,"x_max":640,"o":"m 350 753 q 481 719 431 753 q 563 628 531 685 l 567 628 l 578 739 l 640 739 l 640 -25 q 609 -192 640 -124 q 513 -297 578 -261 q 342 -333 447 -333 q 216 -322 272 -333 q 114 -287 160 -310 l 114 -211 q 220 -251 163 -236 q 343 -267 278 -267 q 510 -206 456 -267 q 564 -33 564 -146 l 564 11 q 565 69 564 39 q 568 131 565 100 l 563 131 q 479 24 535 61 q 342 -14 424 -14 q 144 83 215 -14 q 72 364 72 179 q 144 650 72 547 q 350 753 215 753 m 360 685 q 244 647 290 685 q 175 537 197 608 q 153 364 153 465 q 204 131 153 208 q 354 53 256 53 q 453 74 413 53 q 517 134 493 96 q 553 224 542 172 q 564 335 564 275 l 564 399 q 544 553 564 490 q 479 651 524 617 q 360 685 435 685 z "},"h":{"ha":744,"x_min":111,"x_max":638,"o":"m 189 718 q 188 664 189 689 q 183 613 186 639 l 189 613 q 237 684 207 653 q 310 734 267 715 q 410 753 354 753 q 535 724 485 753 q 612 638 586 696 q 638 492 638 581 l 638 0 l 561 0 l 561 483 q 520 637 561 589 q 400 685 479 685 q 285 653 332 685 q 213 560 238 622 q 189 401 189 497 l 189 0 l 111 0 l 111 1056 l 189 1056 l 189 718 z "},"i":{"ha":303,"x_min":100,"x_max":206,"o":"m 190 739 l 190 0 l 113 0 l 113 739 l 190 739 m 153 1014 q 192 997 179 1014 q 206 953 206 981 q 192 907 206 924 q 153 890 178 890 q 114 907 128 890 q 100 953 100 924 q 113 997 100 981 q 153 1014 126 1014 z "},"j":{"ha":303,"x_min":-50,"x_max":206,"o":"m 31 -333 q -15 -330 6 -333 q -50 -321 -35 -326 l -50 -253 q -15 -262 -33 -260 q 22 -265 3 -265 q 90 -235 67 -265 q 113 -139 113 -204 l 113 739 l 190 739 l 190 -140 q 171 -249 190 -206 q 116 -312 151 -292 q 31 -333 81 -333 m 100 953 q 113 997 100 981 q 153 1014 126 1014 q 192 997 179 1014 q 206 953 206 981 q 192 907 206 924 q 153 890 178 890 q 114 907 128 890 q 100 953 100 924 z "},"k":{"ha":618,"x_min":111,"x_max":614,"o":"m 189 518 q 188 429 189 474 q 185 340 186 385 l 188 340 q 210 371 199 356 q 234 402 222 386 q 257 433 246 418 l 504 739 l 593 739 l 344 435 l 614 0 l 525 0 l 292 379 l 189 263 l 189 0 l 111 0 l 111 1056 l 189 1056 l 189 518 z "},"l":{"ha":300,"x_min":113,"x_max":189,"o":"m 189 0 l 113 0 l 113 1056 l 189 1056 l 189 0 z "},"m":{"ha":1114,"x_min":111,"x_max":1010,"o":"m 801 753 q 955 692 900 753 q 1010 499 1010 631 l 1010 0 l 932 0 l 932 493 q 893 639 932 593 q 788 685 854 685 q 647 622 696 685 q 599 435 599 560 l 599 0 l 522 0 l 522 489 q 505 602 522 558 q 456 665 488 646 q 378 685 424 685 q 273 653 315 685 q 210 564 231 622 q 189 422 189 506 l 189 0 l 111 0 l 111 739 l 174 739 l 183 621 l 189 621 q 233 687 206 657 q 299 735 260 717 q 392 753 339 753 q 516 717 468 753 q 581 617 564 681 l 586 617 q 669 717 615 681 q 801 753 724 753 z "},"n":{"ha":744,"x_min":111,"x_max":638,"o":"m 411 753 q 579 690 521 753 q 638 494 638 628 l 638 0 l 561 0 l 561 485 q 520 636 561 588 q 400 685 479 685 q 243 615 297 685 q 189 406 189 546 l 189 0 l 111 0 l 111 739 l 174 739 l 183 611 l 189 611 q 238 683 207 651 q 311 734 268 715 q 411 753 354 753 z "},"o":{"ha":735,"x_min":72,"x_max":663,"o":"m 663 371 q 644 211 663 282 q 588 90 625 140 q 494 13 550 39 q 367 -14 439 -14 q 242 13 297 -14 q 150 90 188 39 q 92 211 113 140 q 72 371 72 282 q 107 577 72 492 q 208 708 142 663 q 371 753 275 753 q 532 706 467 753 q 630 574 597 660 q 663 371 663 489 m 153 371 q 176 201 153 272 q 247 92 199 129 q 368 54 294 54 q 490 92 442 54 q 560 201 538 129 q 583 371 583 272 q 561 537 583 467 q 492 646 539 607 q 369 685 446 685 q 206 603 260 685 q 153 371 153 521 z "},"p":{"ha":753,"x_min":113,"x_max":681,"o":"m 413 753 q 610 658 540 753 q 681 374 681 563 q 648 160 681 247 q 554 30 615 74 q 408 -14 493 -14 q 307 6 350 -14 q 235 57 264 25 q 190 126 207 89 l 185 126 q 188 61 188 96 q 189 -6 189 26 l 189 -328 l 113 -328 l 113 739 l 175 739 l 183 601 l 189 601 q 236 678 207 643 q 309 733 265 713 q 413 753 353 753 m 400 685 q 283 650 329 685 q 213 549 236 615 q 189 389 190 483 l 189 357 q 213 190 189 257 q 282 88 236 122 q 397 54 328 54 q 508 90 463 54 q 577 197 553 126 q 601 374 601 268 q 552 605 601 525 q 400 685 503 685 z "},"q":{"ha":751,"x_min":71,"x_max":640,"o":"m 563 0 q 564 63 563 25 q 568 132 565 101 l 563 132 q 480 27 536 68 q 339 -14 424 -14 q 142 83 213 -14 q 71 367 71 179 q 103 573 71 486 q 197 706 135 660 q 349 753 260 753 q 483 715 431 753 q 563 618 536 676 l 567 618 l 578 739 l 640 739 l 640 -328 l 563 -328 l 563 0 m 351 53 q 470 87 424 53 q 540 185 517 121 q 563 342 563 250 l 563 389 q 514 609 563 533 q 358 685 465 685 q 203 601 256 685 q 151 365 151 517 q 202 131 151 210 q 351 53 253 53 z "},"r":{"ha":490,"x_min":113,"x_max":472,"o":"m 386 751 q 431 749 408 751 q 472 739 453 746 l 460 665 q 423 674 442 671 q 382 678 404 678 q 302 656 338 678 q 241 597 267 635 q 202 509 215 560 q 189 399 189 458 l 189 0 l 113 0 l 113 739 l 175 739 l 185 597 l 189 597 q 233 674 206 639 q 299 731 260 710 q 386 751 338 751 z "},"s":{"ha":578,"x_min":57,"x_max":521,"o":"m 521 192 q 492 81 521 128 q 406 10 463 35 q 267 -14 349 -14 q 147 -1 200 -14 q 57 32 94 13 l 57 110 q 155 69 100 85 q 268 54 210 54 q 402 90 360 54 q 444 189 444 125 q 425 255 444 228 q 367 303 406 282 q 271 349 329 325 q 165 401 211 375 q 92 465 118 426 q 65 564 65 503 q 131 702 65 651 q 307 753 196 753 q 416 741 365 753 q 510 708 467 729 l 481 644 q 397 674 443 663 q 304 686 351 686 q 184 655 228 686 q 140 567 140 624 q 160 501 140 526 q 219 455 179 475 q 314 410 258 435 q 419 358 372 385 q 494 294 467 332 q 521 192 521 256 z "},"t":{"ha":418,"x_min":21,"x_max":389,"o":"m 297 53 q 347 58 324 53 q 389 69 371 63 l 389 6 q 342 -8 368 -3 q 283 -14 315 -14 q 190 8 228 -14 q 134 76 153 31 q 115 193 115 121 l 115 675 l 21 675 l 21 718 l 117 743 l 142 914 l 193 914 l 193 739 l 385 739 l 385 675 l 193 675 l 193 196 q 217 89 193 125 q 297 53 242 53 z "},"u":{"ha":744,"x_min":104,"x_max":632,"o":"m 632 739 l 632 0 l 569 0 l 558 126 l 554 126 q 507 56 538 88 q 433 5 476 24 q 332 -14 390 -14 q 205 16 256 -14 q 129 104 154 46 q 104 250 104 163 l 104 739 l 182 739 l 182 260 q 222 104 182 154 q 342 54 263 54 q 460 85 413 54 q 531 178 507 117 q 554 335 554 240 l 554 739 l 632 739 z "},"v":{"ha":582,"x_min":3,"x_max":579,"o":"m 247 0 l 3 739 l 83 739 l 240 251 q 259 194 250 224 q 275 136 268 164 q 288 83 282 108 l 292 83 q 305 133 297 106 q 322 189 313 160 q 339 246 331 218 l 497 739 l 579 739 l 332 0 l 247 0 z "},"w":{"ha":932,"x_min":17,"x_max":915,"o":"m 510 486 q 499 528 504 507 q 488 569 493 550 q 479 608 483 589 q 471 643 475 626 l 468 643 q 460 607 464 626 q 451 567 456 588 q 442 527 447 547 q 431 486 436 507 l 293 0 l 208 0 l 17 739 l 96 739 l 210 288 q 227 216 219 250 q 241 152 235 182 q 251 96 247 122 l 256 96 q 264 134 260 113 q 273 179 268 156 q 285 228 278 203 q 299 281 292 254 l 431 739 l 513 739 l 639 279 q 656 217 647 249 q 671 156 664 186 q 682 96 678 125 l 686 96 q 694 147 689 121 q 707 204 700 174 q 722 271 714 235 l 838 739 l 915 739 l 728 0 l 642 0 l 510 486 z "},"x":{"ha":618,"x_min":28,"x_max":589,"o":"m 263 381 l 39 739 l 128 739 l 308 436 l 490 739 l 578 739 l 356 378 l 589 0 l 503 0 l 308 321 l 114 0 l 28 0 l 263 381 z "},"y":{"ha":588,"x_min":7,"x_max":585,"o":"m 7 739 l 89 739 l 243 272 q 265 203 256 233 q 283 146 275 172 q 294 97 290 119 l 299 97 q 322 176 308 132 q 351 271 335 221 l 503 739 l 585 739 l 292 -136 q 242 -246 269 -201 q 176 -312 214 -290 q 86 -335 138 -335 q 45 -332 64 -335 q 8 -324 26 -329 l 8 -256 q 41 -263 24 -260 q 76 -267 58 -267 q 135 -253 110 -267 q 179 -207 160 -239 q 215 -125 199 -175 l 260 6 l 7 739 z "},"z":{"ha":550,"x_min":49,"x_max":503,"o":"m 503 0 l 49 0 l 49 53 l 410 674 l 75 674 l 75 739 l 499 739 l 499 682 l 139 65 l 503 65 l 503 0 z "},"{":{"ha":496,"x_min":47,"x_max":442,"o":"m 442 -221 q 310 -197 364 -219 q 228 -130 256 -175 q 200 -15 200 -85 l 200 206 q 184 292 200 260 q 135 340 168 325 q 47 354 101 354 l 47 418 q 134 433 100 419 q 184 478 168 446 q 200 565 200 511 l 200 789 q 228 902 200 857 q 310 969 256 947 q 442 993 364 992 l 442 926 q 350 911 386 926 q 296 864 314 896 q 278 779 278 832 l 278 558 q 249 444 278 486 q 154 389 219 401 l 154 385 q 249 329 221 372 q 278 214 278 286 l 278 -8 q 295 -92 278 -60 q 349 -139 313 -124 q 442 -154 385 -154 l 442 -221 z "},"|":{"ha":676,"x_min":303,"x_max":372,"o":"m 303 1058 l 372 1058 l 372 -339 l 303 -339 l 303 1058 z "},"}":{"ha":496,"x_min":53,"x_max":447,"o":"m 53 -154 q 146 -139 110 -154 q 199 -92 182 -124 q 217 -8 217 -60 l 217 214 q 246 328 217 286 q 340 383 275 371 l 340 389 q 246 442 275 400 q 217 558 217 485 l 217 779 q 199 865 217 833 q 146 912 182 897 q 53 926 110 926 l 53 993 q 185 969 132 992 q 267 903 239 947 q 294 788 294 858 l 294 567 q 310 480 294 513 q 360 433 326 447 q 447 418 393 419 l 447 354 q 360 340 394 354 q 310 293 326 325 q 294 207 294 261 l 294 -15 q 267 -130 294 -85 q 185 -197 239 -175 q 53 -221 132 -219 l 53 -154 z "},"~":{"ha":714,"x_min":61,"x_max":651,"o":"m 346 458 q 277 488 308 478 q 211 499 246 499 q 135 478 174 499 q 61 421 96 458 l 61 496 q 131 547 92 528 q 214 565 169 565 q 294 554 260 565 q 372 521 329 543 q 442 492 413 501 q 504 482 471 482 q 579 501 540 482 q 651 558 618 521 l 651 485 q 585 435 624 454 q 501 415 547 415 q 425 426 460 415 q 346 458 390 438 z "}," ":{"ha":324,"x_min":0,"x_max":0,"o":""},"¡":{"ha":325,"x_min":104,"x_max":222,"o":"m 132 474 l 190 474 l 207 -260 l 115 -260 l 132 474 m 222 679 q 207 627 222 644 q 164 610 192 610 q 119 627 133 610 q 104 679 104 644 q 119 730 104 713 q 164 747 133 747 q 207 731 192 747 q 222 679 222 714 z "},"¢":{"ha":717,"x_min":117,"x_max":594,"o":"m 442 890 q 525 880 488 889 q 594 856 563 871 l 572 790 q 503 813 539 806 q 435 821 467 821 q 303 783 356 821 q 223 674 250 744 q 196 503 196 603 q 221 335 196 404 q 297 229 246 265 q 425 193 347 193 q 511 203 471 193 q 589 228 551 213 l 589 158 q 524 135 560 144 q 443 124 488 126 l 443 -14 l 383 -14 l 383 125 q 235 181 294 135 q 147 308 176 226 q 117 501 117 389 q 148 699 117 617 q 239 829 179 782 q 381 886 299 876 l 381 1006 l 442 1006 l 442 890 z "},"£":{"ha":710,"x_min":54,"x_max":651,"o":"m 428 1004 q 537 990 489 1004 q 625 954 585 976 l 596 890 q 516 924 556 913 q 429 936 476 936 q 308 887 347 936 q 268 731 268 838 l 268 521 l 507 521 l 507 458 l 268 458 l 268 276 q 256 181 268 221 q 221 114 243 140 q 169 72 199 88 l 651 72 l 651 0 l 54 0 l 54 67 q 127 103 97 78 q 173 172 157 129 q 189 276 189 215 l 189 458 l 61 458 l 61 521 l 189 521 l 189 738 q 216 883 189 824 q 297 973 243 942 q 428 1004 350 1004 z "},"¤":{"ha":786,"x_min":81,"x_max":703,"o":"m 121 490 q 135 581 121 538 q 179 660 150 625 l 81 760 l 124 801 l 222 704 q 302 749 258 733 q 392 764 346 764 q 481 749 438 764 q 561 704 525 735 l 661 801 l 703 760 l 606 661 q 650 581 635 625 q 665 492 665 538 q 651 401 665 446 q 606 319 636 357 l 703 221 l 661 179 l 563 276 q 482 233 526 249 q 392 218 438 218 q 302 233 346 218 q 222 278 258 249 l 124 181 l 82 222 l 179 321 q 135 401 150 358 q 121 490 121 444 m 179 490 q 208 381 179 429 q 286 306 238 333 q 392 278 335 278 q 501 306 453 278 q 578 383 549 335 q 607 490 607 432 q 578 600 607 551 q 500 677 549 649 q 393 706 451 706 q 286 678 335 706 q 208 601 238 650 q 179 490 179 553 z "},"¥":{"ha":713,"x_min":39,"x_max":671,"o":"m 356 492 l 588 992 l 671 992 l 414 457 l 596 457 l 596 396 l 394 396 l 394 261 l 596 261 l 596 200 l 394 200 l 394 0 l 317 0 l 317 200 l 115 200 l 115 261 l 317 261 l 317 396 l 115 396 l 115 457 l 294 457 l 39 992 l 122 992 l 356 492 z "},"¦":{"ha":676,"x_min":303,"x_max":372,"o":"m 303 1057 l 372 1057 l 372 531 l 303 531 l 303 1057 m 303 189 l 372 189 l 372 -339 l 303 -339 l 303 189 z "},"§":{"ha":632,"x_min":75,"x_max":539,"o":"m 88 557 q 124 664 88 622 q 211 726 160 706 q 128 791 160 754 q 96 886 96 828 q 157 1011 96 965 q 326 1057 218 1057 q 435 1046 388 1057 q 525 1015 482 1035 l 499 956 q 418 985 461 974 q 325 996 375 996 q 208 968 247 996 q 168 888 168 940 q 188 828 168 853 q 244 785 207 804 q 335 744 282 767 q 440 693 394 719 q 513 631 486 667 q 539 538 539 594 q 509 429 539 474 q 435 360 479 385 q 509 297 482 332 q 536 207 536 261 q 469 68 536 119 q 282 17 403 17 q 165 29 217 17 q 75 60 113 42 l 75 131 q 137 104 103 117 q 208 85 171 92 q 283 78 246 78 q 420 113 378 78 q 463 203 463 149 q 442 267 463 242 q 381 314 421 293 q 281 358 342 335 q 178 407 222 382 q 111 467 135 432 q 88 557 88 503 m 157 564 q 176 500 157 526 q 231 454 194 474 q 319 413 267 435 l 379 389 q 444 442 417 408 q 471 528 471 476 q 451 595 471 567 q 389 648 432 624 q 274 697 346 672 q 192 651 226 683 q 157 564 157 618 z "},"¨":{"ha":776,"x_min":218,"x_max":556,"o":"m 218 936 q 231 978 218 964 q 267 993 244 993 q 301 978 289 993 q 314 936 314 964 q 301 894 314 910 q 267 879 289 879 q 231 894 244 879 q 218 936 218 910 m 460 936 q 473 978 460 964 q 507 993 486 993 q 543 978 531 993 q 556 938 556 964 q 543 894 556 910 q 507 879 531 879 q 472 894 485 879 q 460 936 460 910 z "},"©":{"ha":1154,"x_min":68,"x_max":1086,"o":"m 601 192 q 395 271 469 192 q 321 494 321 350 q 355 656 321 588 q 453 762 389 724 q 606 800 517 800 q 698 790 656 800 q 778 761 740 779 l 750 704 q 681 729 717 721 q 606 738 646 738 q 450 674 507 738 q 393 496 393 610 q 449 314 393 375 q 606 253 504 253 q 681 260 644 253 q 757 283 718 268 l 757 224 q 685 200 722 208 q 601 192 647 192 m 576 -12 q 370 26 464 -12 q 209 135 276 65 q 105 297 142 204 q 68 496 68 389 q 107 700 68 607 q 215 861 146 793 q 377 967 285 929 q 578 1004 469 1004 q 781 965 688 1004 q 942 856 874 925 q 1049 694 1011 786 q 1086 496 1086 601 q 1048 294 1086 388 q 941 133 1010 201 q 779 26 872 64 q 576 -12 686 -12 m 576 42 q 756 76 674 42 q 900 174 839 111 q 995 318 961 236 q 1029 496 1029 400 q 996 672 1029 590 q 901 817 963 754 q 758 915 840 879 q 576 950 676 950 q 397 916 479 950 q 253 820 314 882 q 158 676 192 758 q 125 496 125 593 q 158 318 125 401 q 251 173 190 235 q 394 76 311 111 q 576 42 476 42 z "},"ª":{"ha":443,"x_min":46,"x_max":371,"o":"m 225 1003 q 335 966 300 1003 q 371 857 371 929 l 371 550 l 325 550 l 314 615 q 258 563 293 582 q 176 543 224 543 q 108 558 138 543 q 62 601 78 572 q 46 671 46 631 q 67 747 46 718 q 133 792 89 776 q 244 811 178 808 l 310 815 l 310 856 q 286 928 310 907 q 221 950 263 950 q 158 941 188 950 q 100 917 128 932 l 79 967 q 148 992 111 982 q 225 1003 185 1003 m 253 765 q 141 740 175 761 q 107 672 107 718 q 128 613 107 632 q 190 594 150 594 q 280 630 250 594 q 310 728 310 665 l 310 768 l 253 765 z "},"«":{"ha":617,"x_min":49,"x_max":568,"o":"m 49 386 l 261 650 l 315 619 l 135 376 l 315 136 l 261 104 l 49 367 l 49 386 m 301 386 l 515 650 l 568 619 l 389 376 l 568 136 l 515 104 l 301 367 l 301 386 z "},"¬":{"ha":714,"x_min":63,"x_max":639,"o":"m 639 522 l 639 175 l 572 175 l 572 457 l 63 457 l 63 522 l 639 522 z "},"­":{"ha":419,"x_min":49,"x_max":371,"o":"m 49 339 l 49 411 l 371 411 l 371 339 l 49 339 z "},"®":{"ha":1154,"x_min":68,"x_max":1086,"o":"m 401 197 l 401 794 l 569 794 q 722 753 668 794 q 776 622 776 711 q 742 516 776 556 q 658 460 708 476 l 808 197 l 729 197 l 593 442 l 471 442 l 471 197 l 401 197 m 564 499 q 666 529 626 499 q 706 621 706 560 q 669 708 706 681 q 565 735 632 735 l 469 735 l 469 499 l 564 499 m 576 -12 q 370 26 464 -12 q 209 135 276 65 q 105 297 142 204 q 68 496 68 389 q 107 700 68 607 q 215 861 146 793 q 377 967 285 929 q 578 1004 469 1004 q 781 965 688 1004 q 942 856 874 925 q 1049 694 1011 786 q 1086 496 1086 601 q 1048 294 1086 388 q 941 133 1010 201 q 779 26 872 64 q 576 -12 686 -12 m 576 42 q 756 76 674 42 q 900 174 839 111 q 995 318 961 236 q 1029 496 1029 400 q 996 672 1029 590 q 901 817 963 754 q 758 915 840 879 q 576 950 676 950 q 397 916 479 950 q 253 820 314 882 q 158 676 192 758 q 125 496 125 593 q 158 318 125 401 q 251 173 190 235 q 394 76 311 111 q 576 42 476 42 z "},"¯":{"ha":650,"x_min":-4,"x_max":654,"o":"m 654 1056 l -4 1056 l -4 1118 l 654 1118 l 654 1056 z "},"°":{"ha":561,"x_min":82,"x_max":479,"o":"m 281 615 q 178 640 222 615 q 108 708 133 664 q 82 810 82 751 q 108 913 82 869 q 178 981 133 957 q 281 1006 222 1006 q 383 981 338 1006 q 453 913 428 957 q 479 810 479 869 q 453 708 479 751 q 383 640 428 664 q 281 615 338 615 m 281 671 q 381 710 343 671 q 418 810 418 749 q 381 912 418 874 q 281 950 343 950 q 179 911 215 950 q 143 810 143 872 q 180 710 143 749 q 281 671 217 671 z "},"±":{"ha":714,"x_min":61,"x_max":650,"o":"m 63 0 l 63 67 l 650 67 l 650 0 l 63 0 m 389 528 l 650 528 l 650 463 l 389 463 l 389 171 l 324 171 l 324 463 l 61 463 l 61 528 l 324 528 l 324 822 l 389 822 l 389 528 z "},"²":{"ha":451,"x_min":36,"x_max":403,"o":"m 403 576 l 36 576 l 36 631 l 186 792 q 265 881 233 843 q 311 952 296 918 q 326 1024 326 986 q 298 1099 326 1071 q 217 1128 269 1128 q 146 1113 179 1128 q 79 1071 113 1099 l 46 1115 q 124 1167 81 1149 q 219 1186 168 1186 q 347 1142 301 1186 q 393 1026 393 1099 q 374 940 393 979 q 319 857 356 900 q 231 758 283 814 l 117 636 l 403 636 l 403 576 z "},"³":{"ha":451,"x_min":35,"x_max":408,"o":"m 218 1183 q 346 1144 300 1183 q 392 1035 392 1104 q 363 942 392 979 q 290 892 335 906 l 290 889 q 377 840 346 876 q 408 744 408 803 q 353 615 408 663 q 194 568 297 568 q 110 577 150 568 q 35 603 69 586 l 35 665 q 114 637 74 647 q 194 626 154 626 q 306 658 269 626 q 342 746 342 690 q 303 831 342 803 q 190 858 265 858 l 119 858 l 119 914 l 190 914 q 292 945 257 914 q 326 1029 326 976 q 297 1101 326 1076 q 217 1126 267 1126 q 139 1113 174 1126 q 71 1075 104 1099 l 39 1121 q 120 1167 76 1150 q 218 1183 164 1183 z "},"´":{"ha":357,"x_min":56,"x_max":301,"o":"m 301 1051 q 263 1001 286 1029 q 213 944 240 974 q 159 889 186 915 q 107 842 132 863 l 56 842 l 56 856 q 111 922 83 886 q 165 995 139 958 q 210 1063 192 1032 l 301 1063 l 301 1051 z "},"µ":{"ha":750,"x_min":111,"x_max":638,"o":"m 638 739 l 638 0 l 575 0 l 565 119 l 560 119 q 517 53 543 83 q 450 4 490 22 q 353 -14 410 -14 q 251 8 292 -14 q 188 68 211 29 l 185 68 q 187 24 186 47 q 188 -23 188 1 q 189 -74 189 -47 l 189 -332 l 111 -332 l 111 739 l 189 739 l 189 257 q 230 105 189 156 q 354 54 271 54 q 475 87 429 54 q 541 182 521 119 q 561 336 561 244 l 561 739 l 638 739 z "},"¶":{"ha":807,"x_min":100,"x_max":653,"o":"m 653 -176 l 596 -176 l 596 999 l 451 999 l 451 -176 l 393 -176 l 393 436 q 356 427 375 431 q 314 424 336 424 q 197 460 244 424 q 124 567 149 496 q 100 739 100 638 q 127 917 100 847 q 208 1022 154 988 q 339 1056 261 1056 l 653 1056 l 653 -176 z "},"·":{"ha":318,"x_min":100,"x_max":218,"o":"m 100 468 q 115 519 100 501 q 158 536 131 536 q 203 519 188 536 q 218 468 218 503 q 203 416 218 433 q 158 399 188 399 q 115 417 131 399 q 100 468 100 435 z "},"¸":{"ha":293,"x_min":21,"x_max":267,"o":"m 267 -197 q 221 -297 267 -260 q 93 -333 175 -333 q 52 -331 71 -333 q 21 -325 33 -329 l 21 -271 q 53 -277 35 -275 q 92 -279 71 -279 q 170 -259 140 -279 q 200 -199 200 -239 q 166 -138 200 -157 q 72 -115 132 -119 l 128 0 l 183 0 l 144 -81 q 209 -100 182 -85 q 251 -139 236 -115 q 267 -197 267 -162 z "},"¹":{"ha":451,"x_min":53,"x_max":290,"o":"m 290 1171 l 290 576 l 225 576 l 225 967 q 225 1014 225 990 q 226 1060 225 1038 q 228 1104 228 1083 q 197 1081 213 1092 q 161 1058 181 1069 l 85 1007 l 53 1054 l 231 1171 l 290 1171 z "},"º":{"ha":474,"x_min":47,"x_max":429,"o":"m 429 774 q 380 604 429 668 q 238 540 331 540 q 97 603 147 540 q 47 774 47 667 q 99 943 47 882 q 240 1004 150 1004 q 344 976 301 1004 q 408 896 386 947 q 429 774 429 844 m 108 772 q 140 640 108 688 q 238 593 172 593 q 336 641 306 593 q 367 772 367 689 q 337 903 367 856 q 239 951 307 951 q 142 906 176 951 q 108 772 108 860 z "},"»":{"ha":613,"x_min":49,"x_max":565,"o":"m 565 368 l 351 104 l 299 136 l 478 378 l 299 619 l 351 650 l 565 386 l 565 368 m 315 368 l 101 104 l 49 136 l 228 378 l 49 619 l 101 650 l 315 386 l 315 368 z "},"¼":{"ha":976,"x_min":35,"x_max":961,"o":"m 193 0 l 731 992 l 800 992 l 263 0 l 193 0 m 207 786 q 208 834 207 810 q 209 881 208 858 q 211 925 210 904 q 179 901 194 913 q 144 878 164 890 l 67 828 l 35 875 l 214 992 l 272 992 l 272 397 l 207 397 l 207 786 m 807 0 l 807 153 l 549 153 l 549 201 l 807 599 l 874 599 l 874 210 l 961 210 l 961 153 l 874 153 l 874 0 l 807 0 m 617 210 l 807 210 l 807 403 q 808 463 807 435 q 810 517 808 492 q 789 480 801 500 q 763 438 776 460 l 617 210 z "},"½":{"ha":1036,"x_min":31,"x_max":988,"o":"m 175 0 l 713 992 l 782 992 l 244 0 l 175 0 m 201 786 q 202 822 201 804 q 203 858 203 840 q 204 892 203 875 q 206 925 206 910 q 174 901 190 913 q 139 878 158 890 l 63 828 l 31 875 l 208 992 l 268 992 l 268 397 l 201 397 l 201 786 m 621 0 l 621 53 l 771 214 q 849 303 818 265 q 896 375 881 342 q 911 446 911 408 q 883 523 911 494 q 801 551 854 551 q 731 537 764 551 q 664 494 697 522 l 631 539 q 709 590 665 571 q 804 608 753 608 q 932 565 886 608 q 978 450 978 521 q 959 363 978 403 q 905 282 940 324 q 819 186 869 240 l 701 58 l 988 58 l 988 0 l 621 0 z "},"¾":{"ha":1025,"x_min":31,"x_max":1008,"o":"m 247 0 l 785 992 l 856 992 l 317 0 l 247 0 m 192 389 q 107 398 147 389 q 31 424 67 407 l 31 486 q 110 457 69 468 q 192 446 151 446 q 301 478 265 446 q 338 567 338 511 q 300 651 338 622 q 188 679 263 679 l 115 679 l 115 735 l 188 735 q 288 766 253 735 q 322 850 322 797 q 293 922 322 897 q 213 947 264 947 q 136 933 171 947 q 67 896 101 919 l 35 942 q 116 988 72 971 q 214 1004 160 1004 q 342 965 296 1004 q 389 856 389 925 q 360 763 389 799 q 288 713 331 726 l 288 710 q 374 660 343 696 q 406 564 406 624 q 350 436 406 483 q 192 389 294 389 m 856 0 l 856 153 l 597 153 l 597 201 l 856 599 l 921 599 l 921 210 l 1008 210 l 1008 153 l 921 153 l 921 0 l 856 0 m 665 210 l 856 210 l 856 403 q 856 463 856 435 q 857 517 857 492 q 837 480 849 500 q 811 438 825 460 l 665 210 z "},"¿":{"ha":521,"x_min":40,"x_max":492,"o":"m 350 447 q 341 349 350 390 q 310 274 332 308 q 249 203 289 240 q 175 128 204 163 q 131 56 146 93 q 117 -33 117 18 q 162 -158 117 -117 q 283 -199 207 -199 q 378 -185 335 -199 q 463 -150 421 -172 l 492 -214 q 392 -255 443 -240 q 281 -269 340 -269 q 105 -209 169 -269 q 40 -35 40 -149 q 59 76 40 31 q 112 161 78 122 q 192 242 146 200 q 249 308 229 278 q 277 372 269 338 q 285 454 285 406 l 285 476 l 350 476 l 350 447 m 372 681 q 358 630 372 647 q 314 613 343 613 q 271 629 286 613 q 256 681 256 646 q 271 733 256 715 q 314 750 286 750 q 358 733 343 750 q 372 681 372 715 z "},"À":{"ha":746,"x_min":0,"x_max":744,"o":"m 663 0 l 549 344 l 197 344 l 82 0 l 0 0 l 335 994 l 417 994 l 744 0 l 663 0 m 413 781 q 400 822 407 799 q 386 869 393 844 q 374 914 379 893 q 362 868 368 892 q 349 823 356 844 q 336 781 342 801 l 219 417 l 526 417 l 413 781 m 322 1315 q 368 1247 342 1285 q 424 1172 394 1208 q 478 1108 453 1136 l 478 1094 l 425 1094 q 374 1142 401 1115 q 319 1197 346 1168 q 269 1254 292 1226 q 231 1304 246 1282 l 231 1315 l 322 1315 z "},"Á":{"ha":746,"x_min":0,"x_max":744,"o":"m 663 0 l 549 344 l 197 344 l 82 0 l 0 0 l 335 994 l 417 994 l 744 0 l 663 0 m 413 781 q 400 822 407 799 q 386 869 393 844 q 374 914 379 893 q 362 868 368 892 q 349 823 356 844 q 336 781 342 801 l 219 417 l 526 417 l 413 781 m 551 1304 q 513 1254 536 1282 q 463 1197 490 1226 q 409 1142 436 1168 q 357 1094 382 1115 l 306 1094 l 306 1108 q 361 1175 333 1139 q 415 1248 389 1211 q 460 1315 442 1285 l 551 1315 l 551 1304 z "},"Â":{"ha":746,"x_min":0,"x_max":744,"o":"m 663 0 l 549 344 l 197 344 l 82 0 l 0 0 l 335 994 l 417 994 l 744 0 l 663 0 m 413 781 q 400 822 407 799 q 386 869 393 844 q 374 914 379 893 q 362 868 368 892 q 349 823 356 844 q 336 781 342 801 l 219 417 l 526 417 l 413 781 m 410 1315 q 453 1246 426 1285 q 510 1169 481 1207 q 561 1107 539 1132 l 561 1094 l 510 1094 q 439 1166 475 1125 q 371 1246 403 1207 q 303 1166 339 1207 q 233 1094 267 1125 l 182 1094 l 182 1107 q 234 1172 206 1135 q 290 1247 263 1210 q 333 1315 317 1285 l 410 1315 z "},"Ã":{"ha":746,"x_min":0,"x_max":744,"o":"m 663 0 l 549 344 l 197 344 l 82 0 l 0 0 l 335 994 l 417 994 l 744 0 l 663 0 m 413 781 q 400 822 407 799 q 386 869 393 844 q 374 914 379 893 q 362 868 368 892 q 349 823 356 844 q 336 781 342 801 l 219 417 l 526 417 l 413 781 m 150 1103 q 163 1167 153 1139 q 188 1215 172 1194 q 226 1245 204 1235 q 276 1256 249 1256 q 333 1242 307 1256 q 381 1210 358 1228 q 425 1180 403 1193 q 471 1167 447 1167 q 518 1188 499 1167 q 544 1256 538 1208 l 596 1256 q 556 1142 590 1182 q 469 1103 522 1103 q 414 1116 439 1103 q 366 1147 389 1129 q 321 1178 343 1165 q 275 1192 299 1192 q 228 1171 247 1192 q 201 1103 210 1150 l 150 1103 z "},"Ä":{"ha":746,"x_min":0,"x_max":744,"o":"m 663 0 l 549 344 l 197 344 l 82 0 l 0 0 l 335 994 l 417 994 l 744 0 l 663 0 m 413 781 q 400 822 407 799 q 386 869 393 844 q 374 914 379 893 q 362 868 368 892 q 349 823 356 844 q 336 781 342 801 l 219 417 l 526 417 l 413 781 m 204 1189 q 217 1231 204 1217 q 253 1246 231 1246 q 288 1231 275 1246 q 300 1189 300 1217 q 288 1147 300 1163 q 253 1132 275 1132 q 217 1147 231 1132 q 204 1189 204 1163 m 446 1189 q 459 1231 446 1217 q 493 1246 472 1246 q 529 1231 517 1246 q 542 1190 542 1217 q 529 1147 542 1163 q 493 1132 517 1132 q 458 1147 471 1132 q 446 1189 446 1163 z "},"Å":{"ha":746,"x_min":0,"x_max":744,"o":"m 663 0 l 549 344 l 197 344 l 82 0 l 0 0 l 335 994 l 417 994 l 744 0 l 663 0 m 413 781 q 400 822 407 799 q 386 869 393 844 q 374 914 379 893 q 362 868 368 892 q 349 823 356 844 q 336 781 342 801 l 219 417 l 526 417 l 413 781 m 374 947 q 272 985 313 947 q 232 1085 232 1022 q 272 1186 232 1149 q 374 1224 311 1224 q 474 1185 433 1224 q 515 1086 515 1147 q 475 985 515 1022 q 374 947 435 947 m 374 999 q 437 1023 413 999 q 461 1085 461 1047 q 436 1149 461 1124 q 374 1174 411 1174 q 310 1149 335 1174 q 285 1085 285 1124 q 308 1023 285 1047 q 374 999 332 999 z "},"Æ":{"ha":1025,"x_min":-1,"x_max":969,"o":"m 969 0 l 489 0 l 489 344 l 217 344 l 83 0 l -1 0 l 389 992 l 969 992 l 969 921 l 568 921 l 568 556 l 946 556 l 946 485 l 568 485 l 568 71 l 969 71 l 969 0 m 244 417 l 489 417 l 489 919 l 439 919 l 244 417 z "},"Ç":{"ha":767,"x_min":81,"x_max":728,"o":"m 503 935 q 356 901 419 935 q 249 809 292 868 q 185 670 207 750 q 164 497 164 590 q 202 265 164 364 q 314 111 240 165 q 496 57 388 57 q 610 69 558 57 q 706 97 661 81 l 706 26 q 609 -3 663 7 q 488 -14 556 -14 q 266 49 357 -14 q 128 226 175 111 q 81 499 81 342 q 108 698 81 606 q 188 860 135 790 q 320 967 242 929 q 501 1006 399 1006 q 621 993 564 1006 q 728 954 678 981 l 697 886 q 603 923 651 911 q 503 935 554 935 m 581 -197 q 535 -297 581 -260 q 407 -333 489 -333 q 366 -331 385 -333 q 335 -325 347 -329 l 335 -271 q 367 -277 349 -275 q 406 -279 385 -279 q 484 -259 454 -279 q 514 -199 514 -239 q 480 -138 514 -157 q 386 -115 446 -119 l 442 0 l 497 0 l 458 -81 q 523 -100 496 -85 q 565 -139 550 -115 q 581 -197 581 -162 z "},"È":{"ha":686,"x_min":126,"x_max":608,"o":"m 608 0 l 126 0 l 126 992 l 608 992 l 608 921 l 206 921 l 206 556 l 585 556 l 585 485 l 206 485 l 206 71 l 608 71 l 608 0 m 329 1315 q 375 1247 349 1285 q 431 1172 401 1208 q 485 1108 460 1136 l 485 1094 l 432 1094 q 381 1142 408 1115 q 326 1197 353 1168 q 276 1254 299 1226 q 238 1304 253 1282 l 238 1315 l 329 1315 z "},"É":{"ha":686,"x_min":126,"x_max":608,"o":"m 608 0 l 126 0 l 126 992 l 608 992 l 608 921 l 206 921 l 206 556 l 585 556 l 585 485 l 206 485 l 206 71 l 608 71 l 608 0 m 557 1304 q 519 1254 542 1282 q 469 1197 496 1226 q 415 1142 442 1168 q 363 1094 388 1115 l 311 1094 l 311 1108 q 367 1175 339 1139 q 421 1248 394 1211 q 465 1315 447 1285 l 557 1315 l 557 1304 z "},"Ê":{"ha":686,"x_min":126,"x_max":608,"o":"m 608 0 l 126 0 l 126 992 l 608 992 l 608 921 l 206 921 l 206 556 l 585 556 l 585 485 l 206 485 l 206 71 l 608 71 l 608 0 m 417 1315 q 460 1246 433 1285 q 517 1169 488 1207 q 568 1107 546 1132 l 568 1094 l 517 1094 q 446 1166 482 1125 q 378 1246 410 1207 q 310 1166 346 1207 q 240 1094 274 1125 l 189 1094 l 189 1107 q 241 1172 213 1135 q 297 1247 269 1210 q 340 1315 324 1285 l 417 1315 z "},"Ë":{"ha":686,"x_min":126,"x_max":608,"o":"m 608 0 l 126 0 l 126 992 l 608 992 l 608 921 l 206 921 l 206 556 l 585 556 l 585 485 l 206 485 l 206 71 l 608 71 l 608 0 m 210 1189 q 223 1231 210 1217 q 258 1246 236 1246 q 293 1231 281 1246 q 306 1189 306 1217 q 293 1147 306 1163 q 258 1132 281 1132 q 223 1147 236 1132 q 210 1189 210 1163 m 451 1189 q 465 1231 451 1217 q 499 1246 478 1246 q 535 1231 522 1246 q 547 1190 547 1217 q 535 1147 547 1163 q 499 1132 522 1132 q 464 1147 476 1132 q 451 1189 451 1163 z "},"Ì":{"ha":401,"x_min":60,"x_max":339,"o":"m 339 0 l 63 0 l 63 49 l 161 64 l 161 926 l 63 943 l 63 992 l 339 992 l 339 943 l 240 926 l 240 64 l 339 49 l 339 0 m 151 1315 q 197 1247 171 1285 q 253 1172 224 1208 q 307 1108 282 1136 l 307 1094 l 254 1094 q 203 1142 231 1115 q 148 1197 175 1168 q 98 1254 121 1226 q 60 1304 75 1282 l 60 1315 l 151 1315 z "},"Í":{"ha":401,"x_min":63,"x_max":381,"o":"m 339 0 l 63 0 l 63 49 l 161 64 l 161 926 l 63 943 l 63 992 l 339 992 l 339 943 l 240 926 l 240 64 l 339 49 l 339 0 m 381 1304 q 342 1254 365 1282 q 292 1197 319 1226 q 238 1142 265 1168 q 186 1094 211 1115 l 135 1094 l 135 1108 q 190 1175 163 1139 q 244 1248 218 1211 q 289 1315 271 1285 l 381 1315 l 381 1304 z "},"Î":{"ha":401,"x_min":11,"x_max":390,"o":"m 339 0 l 63 0 l 63 49 l 161 64 l 161 926 l 63 943 l 63 992 l 339 992 l 339 943 l 240 926 l 240 64 l 339 49 l 339 0 m 239 1315 q 283 1246 256 1285 q 339 1169 310 1207 q 390 1107 368 1132 l 390 1094 l 339 1094 q 268 1166 304 1125 q 200 1246 232 1207 q 132 1166 168 1207 q 63 1094 96 1125 l 11 1094 l 11 1107 q 63 1172 35 1135 q 119 1247 92 1210 q 163 1315 146 1285 l 239 1315 z "},"Ï":{"ha":401,"x_min":32,"x_max":371,"o":"m 339 0 l 63 0 l 63 49 l 161 64 l 161 926 l 63 943 l 63 992 l 339 992 l 339 943 l 240 926 l 240 64 l 339 49 l 339 0 m 32 1189 q 45 1231 32 1217 q 81 1246 58 1246 q 115 1231 103 1246 q 128 1189 128 1217 q 115 1147 128 1163 q 81 1132 103 1132 q 45 1147 58 1132 q 32 1189 32 1163 m 274 1189 q 287 1231 274 1217 q 321 1246 300 1246 q 357 1231 344 1246 q 369 1190 369 1217 q 357 1147 369 1163 q 321 1132 344 1132 q 286 1147 299 1132 q 274 1189 274 1163 z "},"Ð":{"ha":879,"x_min":33,"x_max":797,"o":"m 369 992 q 603 937 508 992 q 748 774 699 882 q 797 506 797 665 q 747 226 797 339 q 596 57 696 114 q 347 0 496 0 l 131 0 l 131 465 l 33 465 l 33 535 l 131 535 l 131 992 l 369 992 m 358 921 l 210 921 l 210 535 l 439 535 l 439 465 l 210 465 l 210 71 l 343 71 q 624 179 532 71 q 715 503 715 288 q 676 734 715 642 q 558 874 638 826 q 358 921 479 921 z "},"Ñ":{"ha":914,"x_min":126,"x_max":788,"o":"m 788 0 l 700 0 l 200 867 l 196 867 q 199 798 197 833 q 201 725 200 763 q 201 647 201 688 l 201 0 l 126 0 l 126 992 l 215 992 l 714 131 l 718 131 q 716 200 717 163 q 714 276 715 238 q 713 349 713 315 l 713 992 l 788 992 l 788 0 m 235 1103 q 247 1167 238 1139 q 273 1215 257 1194 q 311 1245 289 1235 q 361 1256 333 1256 q 417 1242 392 1256 q 465 1210 443 1228 q 510 1180 488 1193 q 556 1167 532 1167 q 603 1188 583 1167 q 629 1256 622 1208 l 681 1256 q 641 1142 675 1182 q 554 1103 607 1103 q 499 1116 524 1103 q 451 1147 474 1129 q 406 1178 428 1165 q 360 1192 383 1192 q 313 1171 332 1192 q 286 1103 294 1150 l 235 1103 z "},"Ò":{"ha":946,"x_min":81,"x_max":864,"o":"m 864 497 q 841 294 864 388 q 769 132 818 201 q 647 24 721 63 q 474 -14 574 -14 q 297 25 371 -14 q 174 133 222 64 q 103 296 126 203 q 81 499 81 389 q 125 770 81 657 q 258 945 169 883 q 476 1007 346 1007 q 692 943 606 1007 q 821 765 778 879 q 864 497 864 650 m 164 497 q 198 264 164 363 q 301 111 232 165 q 474 57 369 57 q 647 110 578 57 q 748 261 715 163 q 781 497 781 360 q 704 821 781 707 q 476 935 628 935 q 301 882 371 935 q 197 731 231 829 q 164 497 164 633 m 424 1315 q 469 1247 443 1285 q 525 1172 496 1208 q 579 1108 554 1136 l 579 1094 l 526 1094 q 475 1142 503 1115 q 420 1197 447 1168 q 370 1254 393 1226 q 332 1304 347 1282 l 332 1315 l 424 1315 z "},"Ó":{"ha":946,"x_min":81,"x_max":864,"o":"m 864 497 q 841 294 864 388 q 769 132 818 201 q 647 24 721 63 q 474 -14 574 -14 q 297 25 371 -14 q 174 133 222 64 q 103 296 126 203 q 81 499 81 389 q 125 770 81 657 q 258 945 169 883 q 476 1007 346 1007 q 692 943 606 1007 q 821 765 778 879 q 864 497 864 650 m 164 497 q 198 264 164 363 q 301 111 232 165 q 474 57 369 57 q 647 110 578 57 q 748 261 715 163 q 781 497 781 360 q 704 821 781 707 q 476 935 628 935 q 301 882 371 935 q 197 731 231 829 q 164 497 164 633 m 651 1304 q 613 1254 636 1282 q 563 1197 590 1226 q 509 1142 536 1168 q 457 1094 482 1115 l 406 1094 l 406 1108 q 461 1175 433 1139 q 515 1248 489 1211 q 560 1315 542 1285 l 651 1315 l 651 1304 z "},"Ô":{"ha":946,"x_min":81,"x_max":864,"o":"m 864 497 q 841 294 864 388 q 769 132 818 201 q 647 24 721 63 q 474 -14 574 -14 q 297 25 371 -14 q 174 133 222 64 q 103 296 126 203 q 81 499 81 389 q 125 770 81 657 q 258 945 169 883 q 476 1007 346 1007 q 692 943 606 1007 q 821 765 778 879 q 864 497 864 650 m 164 497 q 198 264 164 363 q 301 111 232 165 q 474 57 369 57 q 647 110 578 57 q 748 261 715 163 q 781 497 781 360 q 704 821 781 707 q 476 935 628 935 q 301 882 371 935 q 197 731 231 829 q 164 497 164 633 m 511 1315 q 555 1246 528 1285 q 611 1169 582 1207 q 663 1107 640 1132 l 663 1094 l 611 1094 q 540 1166 576 1125 q 472 1246 504 1207 q 404 1166 440 1207 q 335 1094 368 1125 l 283 1094 l 283 1107 q 335 1172 307 1135 q 391 1247 364 1210 q 435 1315 418 1285 l 511 1315 z "},"Õ":{"ha":946,"x_min":81,"x_max":864,"o":"m 864 497 q 841 294 864 388 q 769 132 818 201 q 647 24 721 63 q 474 -14 574 -14 q 297 25 371 -14 q 174 133 222 64 q 103 296 126 203 q 81 499 81 389 q 125 770 81 657 q 258 945 169 883 q 476 1007 346 1007 q 692 943 606 1007 q 821 765 778 879 q 864 497 864 650 m 164 497 q 198 264 164 363 q 301 111 232 165 q 474 57 369 57 q 647 110 578 57 q 748 261 715 163 q 781 497 781 360 q 704 821 781 707 q 476 935 628 935 q 301 882 371 935 q 197 731 231 829 q 164 497 164 633 m 251 1103 q 264 1167 254 1139 q 290 1215 274 1194 q 328 1245 306 1235 q 378 1256 350 1256 q 434 1242 408 1256 q 482 1210 460 1228 q 526 1180 504 1193 q 572 1167 549 1167 q 619 1188 600 1167 q 646 1256 639 1208 l 697 1256 q 658 1142 692 1182 q 571 1103 624 1103 q 515 1116 540 1103 q 467 1147 490 1129 q 422 1178 444 1165 q 376 1192 400 1192 q 330 1171 349 1192 q 303 1103 311 1150 l 251 1103 z "},"Ö":{"ha":946,"x_min":81,"x_max":864,"o":"m 864 497 q 841 294 864 388 q 769 132 818 201 q 647 24 721 63 q 474 -14 574 -14 q 297 25 371 -14 q 174 133 222 64 q 103 296 126 203 q 81 499 81 389 q 125 770 81 657 q 258 945 169 883 q 476 1007 346 1007 q 692 943 606 1007 q 821 765 778 879 q 864 497 864 650 m 164 497 q 198 264 164 363 q 301 111 232 165 q 474 57 369 57 q 647 110 578 57 q 748 261 715 163 q 781 497 781 360 q 704 821 781 707 q 476 935 628 935 q 301 882 371 935 q 197 731 231 829 q 164 497 164 633 m 304 1189 q 317 1231 304 1217 q 353 1246 331 1246 q 388 1231 375 1246 q 400 1189 400 1217 q 388 1147 400 1163 q 353 1132 375 1132 q 317 1147 331 1132 q 304 1189 304 1163 m 546 1189 q 559 1231 546 1217 q 593 1246 572 1246 q 629 1231 617 1246 q 642 1190 642 1217 q 629 1147 642 1163 q 593 1132 617 1132 q 558 1147 571 1132 q 546 1189 546 1163 z "},"×":{"ha":714,"x_min":78,"x_max":635,"o":"m 589 769 l 635 724 l 401 490 l 633 258 l 588 213 l 356 444 l 124 211 l 78 257 l 310 490 l 78 722 l 125 769 l 356 536 l 589 769 z "},"Ø":{"ha":953,"x_min":88,"x_max":869,"o":"m 869 497 q 846 291 869 385 q 774 128 822 197 q 652 23 725 60 q 479 -14 579 -14 q 344 8 404 -14 q 240 71 285 31 l 161 -53 l 107 -19 l 193 117 q 113 283 139 186 q 88 499 88 381 q 132 770 88 657 q 265 945 176 883 q 482 1007 353 1007 q 611 985 553 1007 q 715 925 669 964 l 786 1038 l 840 1003 l 763 879 q 842 716 815 813 q 869 497 869 619 m 788 497 q 715 804 788 694 l 281 136 q 367 77 318 97 q 479 57 417 57 q 653 110 585 57 q 754 261 721 163 q 788 497 788 360 m 169 497 q 187 325 169 403 q 239 192 204 247 l 675 860 q 590 916 639 897 q 482 935 542 935 q 307 882 376 935 q 203 731 238 829 q 169 497 169 633 z "},"Ù":{"ha":892,"x_min":117,"x_max":775,"o":"m 775 333 q 735 142 775 219 q 622 26 696 65 q 444 -14 549 -14 q 201 76 286 -14 q 117 336 117 165 l 117 992 l 196 992 l 196 336 q 260 126 196 196 q 447 57 325 57 q 582 88 526 57 q 667 179 638 118 q 696 331 696 240 l 696 992 l 775 992 l 775 333 m 396 1315 q 442 1247 415 1285 q 497 1172 468 1208 q 551 1108 526 1136 l 551 1094 l 499 1094 q 447 1142 475 1115 q 392 1197 419 1168 q 342 1254 365 1226 q 304 1304 319 1282 l 304 1315 l 396 1315 z "},"Ú":{"ha":892,"x_min":117,"x_max":775,"o":"m 775 333 q 735 142 775 219 q 622 26 696 65 q 444 -14 549 -14 q 201 76 286 -14 q 117 336 117 165 l 117 992 l 196 992 l 196 336 q 260 126 196 196 q 447 57 325 57 q 582 88 526 57 q 667 179 638 118 q 696 331 696 240 l 696 992 l 775 992 l 775 333 m 625 1304 q 587 1254 610 1282 q 537 1197 564 1226 q 483 1142 510 1168 q 431 1094 456 1115 l 379 1094 l 379 1108 q 435 1175 407 1139 q 489 1248 463 1211 q 533 1315 515 1285 l 625 1315 l 625 1304 z "},"Û":{"ha":892,"x_min":117,"x_max":775,"o":"m 775 333 q 735 142 775 219 q 622 26 696 65 q 444 -14 549 -14 q 201 76 286 -14 q 117 336 117 165 l 117 992 l 196 992 l 196 336 q 260 126 196 196 q 447 57 325 57 q 582 88 526 57 q 667 179 638 118 q 696 331 696 240 l 696 992 l 775 992 l 775 333 m 485 1315 q 528 1246 501 1285 q 585 1169 556 1207 q 636 1107 614 1132 l 636 1094 l 585 1094 q 514 1166 550 1125 q 446 1246 478 1207 q 378 1166 414 1207 q 308 1094 342 1125 l 257 1094 l 257 1107 q 309 1172 281 1135 q 365 1247 338 1210 q 408 1315 392 1285 l 485 1315 z "},"Ü":{"ha":892,"x_min":117,"x_max":775,"o":"m 775 333 q 735 142 775 219 q 622 26 696 65 q 444 -14 549 -14 q 201 76 286 -14 q 117 336 117 165 l 117 992 l 196 992 l 196 336 q 260 126 196 196 q 447 57 325 57 q 582 88 526 57 q 667 179 638 118 q 696 331 696 240 l 696 992 l 775 992 l 775 333 m 278 1189 q 291 1231 278 1217 q 326 1246 304 1246 q 361 1231 349 1246 q 374 1189 374 1217 q 361 1147 374 1163 q 326 1132 349 1132 q 291 1147 304 1132 q 278 1189 278 1163 m 519 1189 q 533 1231 519 1217 q 567 1246 546 1246 q 603 1231 590 1246 q 615 1190 615 1217 q 603 1147 615 1163 q 567 1132 590 1132 q 532 1147 544 1132 q 519 1189 519 1163 z "},"Ý":{"ha":651,"x_min":0,"x_max":651,"o":"m 326 468 l 565 992 l 651 992 l 365 385 l 365 0 l 288 0 l 288 381 l 0 992 l 86 992 l 326 468 m 504 1304 q 466 1254 489 1282 q 416 1197 443 1226 q 362 1142 389 1168 q 310 1094 335 1115 l 258 1094 l 258 1108 q 314 1175 286 1139 q 368 1248 342 1211 q 413 1315 394 1285 l 504 1315 l 504 1304 z "},"Þ":{"ha":731,"x_min":126,"x_max":668,"o":"m 668 532 q 648 403 668 460 q 587 308 628 347 q 481 247 546 268 q 328 226 417 226 l 206 226 l 206 0 l 126 0 l 126 992 l 206 992 l 206 813 l 347 813 q 591 744 514 813 q 668 532 668 675 m 318 297 q 468 320 408 297 q 558 394 528 343 q 588 528 588 446 q 529 692 588 642 q 340 743 471 743 l 206 743 l 206 297 l 318 297 z "},"ß":{"ha":733,"x_min":111,"x_max":674,"o":"m 594 874 q 578 792 594 825 q 536 733 561 758 q 486 685 511 708 q 444 638 461 663 q 426 579 426 614 q 438 528 426 550 q 474 483 450 506 q 538 431 499 461 q 610 363 579 396 q 657 292 640 331 q 674 200 674 254 q 648 87 674 135 q 572 13 622 39 q 451 -14 522 -14 q 356 -3 397 -14 q 283 25 315 7 l 283 100 q 333 76 307 86 q 389 59 360 65 q 447 53 418 53 q 560 92 522 53 q 597 196 597 131 q 584 267 597 236 q 545 324 571 297 q 481 379 519 350 q 408 444 438 414 q 365 506 379 474 q 350 576 350 538 q 367 651 350 621 q 408 703 383 681 q 458 749 433 726 q 500 801 483 772 q 517 871 517 829 q 477 962 517 929 q 365 994 438 994 q 270 973 310 994 q 210 908 231 951 q 189 797 189 864 l 189 0 l 111 0 l 111 799 q 142 945 111 886 q 230 1033 172 1004 q 367 1063 288 1063 q 489 1040 438 1063 q 567 976 540 1018 q 594 874 594 933 z "},"à":{"ha":671,"x_min":60,"x_max":565,"o":"m 342 751 q 511 691 457 751 q 565 497 565 631 l 565 0 l 506 0 l 493 121 l 490 121 q 439 51 468 82 q 367 3 410 21 q 265 -14 325 -14 q 153 12 200 -14 q 83 84 107 38 q 60 193 60 131 q 140 362 60 304 q 372 428 219 419 l 489 435 l 489 489 q 451 642 489 597 q 336 686 413 686 q 244 673 290 686 q 151 635 199 660 l 126 696 q 228 737 174 722 q 342 751 283 751 m 381 369 q 200 319 260 363 q 140 193 140 276 q 178 88 140 124 q 281 51 215 51 q 435 118 382 51 q 489 301 488 185 l 489 375 l 381 369 m 288 1063 q 333 994 307 1032 q 389 919 360 956 q 443 856 418 883 l 443 842 l 390 842 q 339 889 367 863 q 284 944 311 915 q 234 1001 257 974 q 196 1051 211 1029 l 196 1063 l 288 1063 z "},"á":{"ha":671,"x_min":60,"x_max":565,"o":"m 342 751 q 511 691 457 751 q 565 497 565 631 l 565 0 l 506 0 l 493 121 l 490 121 q 439 51 468 82 q 367 3 410 21 q 265 -14 325 -14 q 153 12 200 -14 q 83 84 107 38 q 60 193 60 131 q 140 362 60 304 q 372 428 219 419 l 489 435 l 489 489 q 451 642 489 597 q 336 686 413 686 q 244 673 290 686 q 151 635 199 660 l 126 696 q 228 737 174 722 q 342 751 283 751 m 381 369 q 200 319 260 363 q 140 193 140 276 q 178 88 140 124 q 281 51 215 51 q 435 118 382 51 q 489 301 488 185 l 489 375 l 381 369 m 517 1051 q 478 1001 501 1029 q 428 944 456 974 q 374 889 401 915 q 322 842 347 863 l 271 842 l 271 856 q 326 922 299 886 q 381 995 354 958 q 425 1063 407 1032 l 517 1063 l 517 1051 z "},"â":{"ha":671,"x_min":60,"x_max":565,"o":"m 342 751 q 511 691 457 751 q 565 497 565 631 l 565 0 l 506 0 l 493 121 l 490 121 q 439 51 468 82 q 367 3 410 21 q 265 -14 325 -14 q 153 12 200 -14 q 83 84 107 38 q 60 193 60 131 q 140 362 60 304 q 372 428 219 419 l 489 435 l 489 489 q 451 642 489 597 q 336 686 413 686 q 244 673 290 686 q 151 635 199 660 l 126 696 q 228 737 174 722 q 342 751 283 751 m 381 369 q 200 319 260 363 q 140 193 140 276 q 178 88 140 124 q 281 51 215 51 q 435 118 382 51 q 489 301 488 185 l 489 375 l 381 369 m 375 1063 q 419 993 392 1032 q 475 917 446 954 q 526 854 504 879 l 526 842 l 475 842 q 404 913 440 872 q 336 993 368 954 q 268 913 304 954 q 199 842 232 872 l 147 842 l 147 854 q 199 919 171 882 q 255 994 228 957 q 299 1063 282 1032 l 375 1063 z "},"ã":{"ha":671,"x_min":60,"x_max":565,"o":"m 342 751 q 511 691 457 751 q 565 497 565 631 l 565 0 l 506 0 l 493 121 l 490 121 q 439 51 468 82 q 367 3 410 21 q 265 -14 325 -14 q 153 12 200 -14 q 83 84 107 38 q 60 193 60 131 q 140 362 60 304 q 372 428 219 419 l 489 435 l 489 489 q 451 642 489 597 q 336 686 413 686 q 244 673 290 686 q 151 635 199 660 l 126 696 q 228 737 174 722 q 342 751 283 751 m 381 369 q 200 319 260 363 q 140 193 140 276 q 178 88 140 124 q 281 51 215 51 q 435 118 382 51 q 489 301 488 185 l 489 375 l 381 369 m 115 850 q 128 914 118 886 q 153 962 138 942 q 192 992 169 982 q 242 1003 214 1003 q 298 989 272 1003 q 346 958 324 975 q 390 927 368 940 q 436 914 413 914 q 483 935 464 914 q 510 1003 503 956 l 561 1003 q 522 890 556 929 q 435 850 488 850 q 379 863 404 850 q 331 894 354 876 q 286 926 308 913 q 240 939 264 939 q 194 918 213 939 q 167 850 175 897 l 115 850 z "},"ä":{"ha":671,"x_min":60,"x_max":565,"o":"m 342 751 q 511 691 457 751 q 565 497 565 631 l 565 0 l 506 0 l 493 121 l 490 121 q 439 51 468 82 q 367 3 410 21 q 265 -14 325 -14 q 153 12 200 -14 q 83 84 107 38 q 60 193 60 131 q 140 362 60 304 q 372 428 219 419 l 489 435 l 489 489 q 451 642 489 597 q 336 686 413 686 q 244 673 290 686 q 151 635 199 660 l 126 696 q 228 737 174 722 q 342 751 283 751 m 381 369 q 200 319 260 363 q 140 193 140 276 q 178 88 140 124 q 281 51 215 51 q 435 118 382 51 q 489 301 488 185 l 489 375 l 381 369 m 169 936 q 183 978 169 964 q 218 993 196 993 q 253 978 240 993 q 265 936 265 964 q 253 894 265 910 q 218 879 240 879 q 183 894 196 879 q 169 936 169 910 m 411 936 q 424 978 411 964 q 458 993 438 993 q 494 978 482 993 q 507 938 507 964 q 494 894 507 910 q 458 879 482 879 q 424 894 436 879 q 411 936 411 910 z "},"å":{"ha":671,"x_min":60,"x_max":565,"o":"m 342 751 q 511 691 457 751 q 565 497 565 631 l 565 0 l 506 0 l 493 121 l 490 121 q 439 51 468 82 q 367 3 410 21 q 265 -14 325 -14 q 153 12 200 -14 q 83 84 107 38 q 60 193 60 131 q 140 362 60 304 q 372 428 219 419 l 489 435 l 489 489 q 451 642 489 597 q 336 686 413 686 q 244 673 290 686 q 151 635 199 660 l 126 696 q 228 737 174 722 q 342 751 283 751 m 381 369 q 200 319 260 363 q 140 193 140 276 q 178 88 140 124 q 281 51 215 51 q 435 118 382 51 q 489 301 488 185 l 489 375 l 381 369 m 338 847 q 236 885 276 847 q 196 985 196 922 q 235 1086 196 1049 q 338 1124 275 1124 q 438 1085 397 1124 q 479 986 479 1047 q 439 885 479 922 q 338 847 399 847 m 338 899 q 401 923 376 899 q 425 985 425 947 q 400 1049 425 1024 q 338 1074 375 1074 q 274 1049 299 1074 q 249 985 249 1024 q 272 923 249 947 q 338 899 296 899 z "},"æ":{"ha":1074,"x_min":60,"x_max":1003,"o":"m 751 753 q 892 708 836 753 q 975 589 947 664 q 1001 418 1003 514 l 1001 363 l 556 363 q 615 132 557 210 q 775 54 672 54 q 876 65 829 54 q 974 103 922 76 l 974 32 q 878 -2 926 10 q 772 -14 829 -14 q 656 9 707 -14 q 571 73 606 32 q 515 168 536 114 q 461 72 494 113 q 381 8 428 31 q 268 -14 333 -14 q 155 12 201 -14 q 84 84 108 38 q 60 193 60 131 q 95 318 60 268 q 199 395 131 368 q 365 428 268 422 l 478 433 l 478 496 q 440 642 478 597 q 331 686 401 686 q 240 674 286 686 q 146 635 193 661 l 121 697 q 222 736 165 721 q 335 751 278 751 q 465 714 417 751 q 532 594 514 676 q 617 709 561 665 q 751 753 672 753 m 376 368 q 199 319 257 363 q 140 193 140 276 q 176 88 140 125 q 279 51 213 51 q 387 81 343 51 q 453 164 431 110 q 478 290 476 218 l 478 374 l 376 368 m 751 686 q 618 620 671 686 q 558 426 565 554 l 924 426 q 905 561 924 503 q 848 653 886 619 q 751 686 810 686 z "},"ç":{"ha":586,"x_min":74,"x_max":549,"o":"m 375 -14 q 210 31 278 -14 q 108 160 142 75 q 74 364 74 244 q 112 576 74 489 q 221 708 150 663 q 388 753 292 753 q 476 744 435 753 q 549 718 517 735 l 525 653 q 458 675 493 667 q 389 683 422 683 q 260 646 313 683 q 181 538 208 608 q 153 365 153 467 q 177 201 153 271 q 251 93 201 131 q 378 56 300 56 q 465 65 424 56 q 542 90 506 75 l 542 21 q 466 -4 508 6 q 375 -14 424 -14 m 476 -197 q 431 -297 476 -260 q 303 -333 385 -333 q 262 -331 281 -333 q 231 -325 243 -329 l 231 -271 q 263 -277 244 -275 q 301 -279 281 -279 q 380 -259 350 -279 q 410 -199 410 -239 q 376 -138 410 -157 q 282 -115 342 -119 l 338 0 l 393 0 l 354 -81 q 419 -100 392 -85 q 461 -139 446 -115 q 476 -197 476 -162 z "},"è":{"ha":689,"x_min":74,"x_max":618,"o":"m 360 753 q 504 708 447 753 q 590 588 561 664 q 618 417 618 513 l 618 361 l 151 361 q 213 133 153 211 q 386 54 272 54 q 490 66 443 54 q 589 104 536 78 l 589 33 q 493 -2 542 10 q 382 -14 444 -14 q 211 33 281 -14 q 108 165 142 79 q 74 365 74 250 q 106 568 74 481 q 203 704 139 656 q 360 753 267 753 m 358 686 q 217 620 271 686 q 154 425 163 554 l 540 425 q 521 560 540 501 q 461 652 501 618 q 358 686 421 686 m 297 1063 q 343 994 317 1032 q 399 919 369 956 q 453 856 428 883 l 453 842 l 400 842 q 349 889 376 863 q 294 944 321 915 q 244 1001 267 974 q 206 1051 221 1029 l 206 1063 l 297 1063 z "},"é":{"ha":689,"x_min":74,"x_max":618,"o":"m 360 753 q 504 708 447 753 q 590 588 561 664 q 618 417 618 513 l 618 361 l 151 361 q 213 133 153 211 q 386 54 272 54 q 490 66 443 54 q 589 104 536 78 l 589 33 q 493 -2 542 10 q 382 -14 444 -14 q 211 33 281 -14 q 108 165 142 79 q 74 365 74 250 q 106 568 74 481 q 203 704 139 656 q 360 753 267 753 m 358 686 q 217 620 271 686 q 154 425 163 554 l 540 425 q 521 560 540 501 q 461 652 501 618 q 358 686 421 686 m 525 1051 q 487 1001 510 1029 q 437 944 464 974 q 383 889 410 915 q 331 842 356 863 l 279 842 l 279 856 q 335 922 307 886 q 389 995 363 958 q 433 1063 415 1032 l 525 1063 l 525 1051 z "},"ê":{"ha":689,"x_min":74,"x_max":618,"o":"m 360 753 q 504 708 447 753 q 590 588 561 664 q 618 417 618 513 l 618 361 l 151 361 q 213 133 153 211 q 386 54 272 54 q 490 66 443 54 q 589 104 536 78 l 589 33 q 493 -2 542 10 q 382 -14 444 -14 q 211 33 281 -14 q 108 165 142 79 q 74 365 74 250 q 106 568 74 481 q 203 704 139 656 q 360 753 267 753 m 358 686 q 217 620 271 686 q 154 425 163 554 l 540 425 q 521 560 540 501 q 461 652 501 618 q 358 686 421 686 m 385 1063 q 428 993 401 1032 q 485 917 456 954 q 536 854 514 879 l 536 842 l 485 842 q 414 913 450 872 q 346 993 378 954 q 278 913 314 954 q 208 842 242 872 l 157 842 l 157 854 q 209 919 181 882 q 265 994 238 957 q 308 1063 292 1032 l 385 1063 z "},"ë":{"ha":689,"x_min":74,"x_max":618,"o":"m 360 753 q 504 708 447 753 q 590 588 561 664 q 618 417 618 513 l 618 361 l 151 361 q 213 133 153 211 q 386 54 272 54 q 490 66 443 54 q 589 104 536 78 l 589 33 q 493 -2 542 10 q 382 -14 444 -14 q 211 33 281 -14 q 108 165 142 79 q 74 365 74 250 q 106 568 74 481 q 203 704 139 656 q 360 753 267 753 m 358 686 q 217 620 271 686 q 154 425 163 554 l 540 425 q 521 560 540 501 q 461 652 501 618 q 358 686 421 686 m 178 936 q 191 978 178 964 q 226 993 204 993 q 261 978 249 993 q 274 936 274 964 q 261 894 274 910 q 226 879 249 879 q 191 894 204 879 q 178 936 178 910 m 419 936 q 433 978 419 964 q 467 993 446 993 q 503 978 490 993 q 515 938 515 964 q 503 894 515 910 q 467 879 490 879 q 432 894 444 879 q 419 936 419 910 z "},"ì":{"ha":300,"x_min":10,"x_max":256,"o":"m 189 0 l 111 0 l 111 739 l 189 739 l 189 0 m 101 1063 q 147 994 121 1032 q 203 919 174 956 q 257 856 232 883 l 257 842 l 204 842 q 153 889 181 863 q 98 944 125 915 q 48 1001 71 974 q 10 1051 25 1029 l 10 1063 l 101 1063 z "},"í":{"ha":300,"x_min":83,"x_max":329,"o":"m 189 0 l 111 0 l 111 739 l 189 739 l 189 0 m 329 1051 q 291 1001 314 1029 q 241 944 268 974 q 187 889 214 915 q 135 842 160 863 l 83 842 l 83 856 q 139 922 111 886 q 193 995 167 958 q 238 1063 219 1032 l 329 1063 l 329 1051 z "},"î":{"ha":300,"x_min":-39,"x_max":340,"o":"m 189 0 l 111 0 l 111 739 l 189 739 l 189 0 m 189 1063 q 233 993 206 1032 q 289 917 260 954 q 340 854 318 879 l 340 842 l 289 842 q 218 913 254 872 q 150 993 182 954 q 82 913 118 954 q 13 842 46 872 l -39 842 l -39 854 q 13 919 -15 882 q 69 994 42 957 q 113 1063 96 1032 l 189 1063 z "},"ï":{"ha":300,"x_min":-18,"x_max":319,"o":"m 189 0 l 111 0 l 111 739 l 189 739 l 189 0 m -18 936 q -5 978 -18 964 q 31 993 8 993 q 65 978 53 993 q 78 936 78 964 q 65 894 78 910 q 31 879 53 879 q -5 894 8 879 q -18 936 -18 910 m 224 936 q 237 978 224 964 q 271 993 250 993 q 307 978 294 993 q 319 938 319 964 q 307 894 319 910 q 271 879 294 879 q 236 894 249 879 q 224 936 224 910 z "},"ð":{"ha":725,"x_min":72,"x_max":653,"o":"m 260 1056 q 335 1014 300 1036 q 403 965 371 992 l 544 1051 l 578 1003 l 447 925 q 560 771 514 857 q 629 585 606 685 q 653 372 653 486 q 619 163 653 250 q 520 31 585 76 q 361 -14 456 -14 q 205 29 269 -14 q 106 147 140 72 q 72 317 72 222 q 108 497 72 422 q 208 611 144 571 q 356 651 272 651 q 442 640 404 651 q 508 608 479 628 q 554 563 536 589 l 558 564 q 495 738 539 654 q 388 888 451 822 l 233 794 l 200 844 l 340 929 q 285 969 315 950 q 224 1006 254 989 l 260 1056 m 365 585 q 250 553 299 585 q 176 461 201 521 q 150 315 150 401 q 174 178 150 238 q 246 85 199 118 q 363 53 293 53 q 521 131 468 53 q 574 356 574 210 q 563 442 574 400 q 526 515 551 483 q 462 566 501 547 q 365 585 422 585 z "},"ñ":{"ha":744,"x_min":111,"x_max":638,"o":"m 411 753 q 579 690 521 753 q 638 494 638 628 l 638 0 l 561 0 l 561 485 q 520 636 561 588 q 400 685 479 685 q 243 615 297 685 q 189 406 189 546 l 189 0 l 111 0 l 111 739 l 174 739 l 183 611 l 189 611 q 238 683 207 651 q 311 734 268 715 q 411 753 354 753 m 151 850 q 164 914 154 886 q 190 962 174 942 q 228 992 206 982 q 278 1003 250 1003 q 334 989 308 1003 q 382 958 360 975 q 426 927 404 940 q 472 914 449 914 q 519 935 500 914 q 546 1003 539 956 l 597 1003 q 558 890 592 929 q 471 850 524 850 q 415 863 440 850 q 367 894 390 876 q 322 926 344 913 q 276 939 300 939 q 230 918 249 939 q 203 850 211 897 l 151 850 z "},"ò":{"ha":735,"x_min":72,"x_max":663,"o":"m 663 371 q 644 211 663 282 q 588 90 625 140 q 494 13 550 39 q 367 -14 439 -14 q 242 13 297 -14 q 150 90 188 39 q 92 211 113 140 q 72 371 72 282 q 107 577 72 492 q 208 708 142 663 q 371 753 275 753 q 532 706 467 753 q 630 574 597 660 q 663 371 663 489 m 153 371 q 176 201 153 272 q 247 92 199 129 q 368 54 294 54 q 490 92 442 54 q 560 201 538 129 q 583 371 583 272 q 561 537 583 467 q 492 646 539 607 q 369 685 446 685 q 206 603 260 685 q 153 371 153 521 m 318 1063 q 364 994 338 1032 q 419 919 390 956 q 474 856 449 883 l 474 842 l 421 842 q 369 889 397 863 q 315 944 342 915 q 265 1001 288 974 q 226 1051 242 1029 l 226 1063 l 318 1063 z "},"ó":{"ha":735,"x_min":72,"x_max":663,"o":"m 663 371 q 644 211 663 282 q 588 90 625 140 q 494 13 550 39 q 367 -14 439 -14 q 242 13 297 -14 q 150 90 188 39 q 92 211 113 140 q 72 371 72 282 q 107 577 72 492 q 208 708 142 663 q 371 753 275 753 q 532 706 467 753 q 630 574 597 660 q 663 371 663 489 m 153 371 q 176 201 153 272 q 247 92 199 129 q 368 54 294 54 q 490 92 442 54 q 560 201 538 129 q 583 371 583 272 q 561 537 583 467 q 492 646 539 607 q 369 685 446 685 q 206 603 260 685 q 153 371 153 521 m 547 1051 q 509 1001 532 1029 q 459 944 486 974 q 405 889 432 915 q 353 842 378 863 l 301 842 l 301 856 q 357 922 329 886 q 411 995 385 958 q 456 1063 438 1032 l 547 1063 l 547 1051 z "},"ô":{"ha":735,"x_min":72,"x_max":663,"o":"m 663 371 q 644 211 663 282 q 588 90 625 140 q 494 13 550 39 q 367 -14 439 -14 q 242 13 297 -14 q 150 90 188 39 q 92 211 113 140 q 72 371 72 282 q 107 577 72 492 q 208 708 142 663 q 371 753 275 753 q 532 706 467 753 q 630 574 597 660 q 663 371 663 489 m 153 371 q 176 201 153 272 q 247 92 199 129 q 368 54 294 54 q 490 92 442 54 q 560 201 538 129 q 583 371 583 272 q 561 537 583 467 q 492 646 539 607 q 369 685 446 685 q 206 603 260 685 q 153 371 153 521 m 406 1063 q 449 993 422 1032 q 506 917 476 954 q 557 854 535 879 l 557 842 l 506 842 q 435 913 471 872 q 367 993 399 954 q 299 913 335 954 q 229 842 263 872 l 178 842 l 178 854 q 230 919 201 882 q 285 994 258 957 q 329 1063 313 1032 l 406 1063 z "},"õ":{"ha":735,"x_min":72,"x_max":663,"o":"m 663 371 q 644 211 663 282 q 588 90 625 140 q 494 13 550 39 q 367 -14 439 -14 q 242 13 297 -14 q 150 90 188 39 q 92 211 113 140 q 72 371 72 282 q 107 577 72 492 q 208 708 142 663 q 371 753 275 753 q 532 706 467 753 q 630 574 597 660 q 663 371 663 489 m 153 371 q 176 201 153 272 q 247 92 199 129 q 368 54 294 54 q 490 92 442 54 q 560 201 538 129 q 583 371 583 272 q 561 537 583 467 q 492 646 539 607 q 369 685 446 685 q 206 603 260 685 q 153 371 153 521 m 146 850 q 158 914 149 886 q 184 962 168 942 q 222 992 200 982 q 272 1003 244 1003 q 328 989 303 1003 q 376 958 354 975 q 421 927 399 940 q 467 914 443 914 q 514 935 494 914 q 540 1003 533 956 l 592 1003 q 552 890 586 929 q 465 850 518 850 q 410 863 435 850 q 362 894 385 876 q 317 926 339 913 q 271 939 294 939 q 224 918 243 939 q 197 850 206 897 l 146 850 z "},"ö":{"ha":735,"x_min":72,"x_max":663,"o":"m 663 371 q 644 211 663 282 q 588 90 625 140 q 494 13 550 39 q 367 -14 439 -14 q 242 13 297 -14 q 150 90 188 39 q 92 211 113 140 q 72 371 72 282 q 107 577 72 492 q 208 708 142 663 q 371 753 275 753 q 532 706 467 753 q 630 574 597 660 q 663 371 663 489 m 153 371 q 176 201 153 272 q 247 92 199 129 q 368 54 294 54 q 490 92 442 54 q 560 201 538 129 q 583 371 583 272 q 561 537 583 467 q 492 646 539 607 q 369 685 446 685 q 206 603 260 685 q 153 371 153 521 m 200 936 q 213 978 200 964 q 249 993 226 993 q 283 978 271 993 q 296 936 296 964 q 283 894 296 910 q 249 879 271 879 q 213 894 226 879 q 200 936 200 910 m 442 936 q 455 978 442 964 q 489 993 468 993 q 525 978 513 993 q 538 938 538 964 q 525 894 538 910 q 489 879 513 879 q 454 894 467 879 q 442 936 442 910 z "},"÷":{"ha":714,"x_min":61,"x_max":651,"o":"m 61 457 l 61 522 l 651 522 l 651 457 l 61 457 m 356 181 q 315 198 329 181 q 301 246 301 215 q 315 294 301 278 q 356 311 329 311 q 397 294 383 311 q 411 246 411 278 q 397 198 411 215 q 356 181 383 181 m 356 668 q 315 685 329 668 q 301 733 301 703 q 315 782 301 765 q 356 799 329 799 q 397 782 383 799 q 411 733 411 765 q 397 685 411 701 q 356 668 383 668 z "},"ø":{"ha":744,"x_min":71,"x_max":669,"o":"m 669 371 q 635 165 669 251 q 535 32 601 78 q 374 -14 469 -14 q 274 3 318 -14 q 196 50 231 19 l 122 -64 l 71 -31 l 153 96 q 98 215 117 146 q 79 371 79 285 q 158 653 79 554 q 376 753 236 753 q 474 737 431 753 q 550 692 517 721 l 615 792 l 667 758 l 594 647 q 651 527 632 597 q 669 371 669 457 m 158 371 q 168 256 158 308 q 197 165 178 204 l 513 632 q 453 672 488 658 q 376 685 419 685 q 212 603 265 685 q 158 371 158 521 m 590 371 q 581 485 590 433 q 550 576 571 538 l 235 110 q 295 68 260 83 q 374 53 331 53 q 497 91 449 53 q 567 201 544 129 q 590 371 590 272 z "},"ù":{"ha":744,"x_min":104,"x_max":632,"o":"m 632 739 l 632 0 l 569 0 l 558 126 l 554 126 q 507 56 538 88 q 433 5 476 24 q 332 -14 390 -14 q 205 16 256 -14 q 129 104 154 46 q 104 250 104 163 l 104 739 l 182 739 l 182 260 q 222 104 182 154 q 342 54 263 54 q 460 85 413 54 q 531 178 507 117 q 554 335 554 240 l 554 739 l 632 739 m 322 1063 q 368 994 342 1032 q 424 919 394 956 q 478 856 453 883 l 478 842 l 425 842 q 374 889 401 863 q 319 944 346 915 q 269 1001 292 974 q 231 1051 246 1029 l 231 1063 l 322 1063 z "},"ú":{"ha":744,"x_min":104,"x_max":632,"o":"m 632 739 l 632 0 l 569 0 l 558 126 l 554 126 q 507 56 538 88 q 433 5 476 24 q 332 -14 390 -14 q 205 16 256 -14 q 129 104 154 46 q 104 250 104 163 l 104 739 l 182 739 l 182 260 q 222 104 182 154 q 342 54 263 54 q 460 85 413 54 q 531 178 507 117 q 554 335 554 240 l 554 739 l 632 739 m 551 1051 q 513 1001 536 1029 q 463 944 490 974 q 409 889 436 915 q 357 842 382 863 l 306 842 l 306 856 q 361 922 333 886 q 415 995 389 958 q 460 1063 442 1032 l 551 1063 l 551 1051 z "},"û":{"ha":744,"x_min":104,"x_max":632,"o":"m 632 739 l 632 0 l 569 0 l 558 126 l 554 126 q 507 56 538 88 q 433 5 476 24 q 332 -14 390 -14 q 205 16 256 -14 q 129 104 154 46 q 104 250 104 163 l 104 739 l 182 739 l 182 260 q 222 104 182 154 q 342 54 263 54 q 460 85 413 54 q 531 178 507 117 q 554 335 554 240 l 554 739 l 632 739 m 411 1063 q 455 993 428 1032 q 511 917 482 954 q 563 854 540 879 l 563 842 l 511 842 q 440 913 476 872 q 372 993 404 954 q 304 913 340 954 q 235 842 268 872 l 183 842 l 183 854 q 235 919 207 882 q 291 994 264 957 q 335 1063 318 1032 l 411 1063 z "},"ü":{"ha":744,"x_min":104,"x_max":632,"o":"m 632 739 l 632 0 l 569 0 l 558 126 l 554 126 q 507 56 538 88 q 433 5 476 24 q 332 -14 390 -14 q 205 16 256 -14 q 129 104 154 46 q 104 250 104 163 l 104 739 l 182 739 l 182 260 q 222 104 182 154 q 342 54 263 54 q 460 85 413 54 q 531 178 507 117 q 554 335 554 240 l 554 739 l 632 739 m 204 936 q 217 978 204 964 q 253 993 231 993 q 288 978 275 993 q 300 936 300 964 q 288 894 300 910 q 253 879 275 879 q 217 894 231 879 q 204 936 204 910 m 446 936 q 459 978 446 964 q 493 993 472 993 q 529 978 517 993 q 542 938 542 964 q 529 894 542 910 q 493 879 517 879 q 458 894 471 879 q 446 936 446 910 z "},"ý":{"ha":588,"x_min":7,"x_max":585,"o":"m 7 739 l 89 739 l 243 272 q 265 203 256 233 q 283 146 275 172 q 294 97 290 119 l 299 97 q 322 176 308 132 q 351 271 335 221 l 503 739 l 585 739 l 292 -136 q 242 -246 269 -201 q 176 -312 214 -290 q 86 -335 138 -335 q 45 -332 64 -335 q 8 -324 26 -329 l 8 -256 q 41 -263 24 -260 q 76 -267 58 -267 q 135 -253 110 -267 q 179 -207 160 -239 q 215 -125 199 -175 l 260 6 l 7 739 m 472 1051 q 434 1001 457 1029 q 384 944 411 974 q 330 889 357 915 q 278 842 303 863 l 226 842 l 226 856 q 282 922 254 886 q 336 995 310 958 q 381 1063 363 1032 l 472 1063 l 472 1051 z "},"þ":{"ha":753,"x_min":113,"x_max":681,"o":"m 681 374 q 648 160 681 247 q 554 30 615 74 q 408 -14 493 -14 q 307 6 350 -14 q 235 57 264 25 q 190 126 207 89 l 185 126 q 187 85 186 108 q 189 40 188 63 q 190 -4 190 17 l 190 -328 l 113 -328 l 113 1056 l 189 1056 l 189 738 q 188 672 189 710 q 185 604 188 633 l 189 604 q 236 679 207 646 q 309 733 265 713 q 413 753 353 753 q 610 657 540 753 q 681 374 681 561 m 601 374 q 552 608 601 531 q 401 685 503 685 q 242 609 294 685 q 190 390 190 533 l 190 357 q 242 130 190 206 q 397 54 294 54 q 509 90 464 54 q 578 198 554 126 q 601 374 601 269 z "},"ÿ":{"ha":588,"x_min":7,"x_max":585,"o":"m 7 739 l 89 739 l 243 272 q 265 203 256 233 q 283 146 275 172 q 294 97 290 119 l 299 97 q 322 176 308 132 q 351 271 335 221 l 503 739 l 585 739 l 292 -136 q 242 -246 269 -201 q 176 -312 214 -290 q 86 -335 138 -335 q 45 -332 64 -335 q 8 -324 26 -329 l 8 -256 q 41 -263 24 -260 q 76 -267 58 -267 q 135 -253 110 -267 q 179 -207 160 -239 q 215 -125 199 -175 l 260 6 l 7 739 m 125 936 q 138 978 125 964 q 174 993 151 993 q 208 978 196 993 q 221 936 221 964 q 208 894 221 910 q 174 879 196 879 q 138 894 151 879 q 125 936 125 910 m 367 936 q 380 978 367 964 q 414 993 393 993 q 450 978 438 993 q 463 938 463 964 q 450 894 463 910 q 414 879 438 879 q 379 894 392 879 q 367 936 367 910 z "},"Ā":{"ha":746,"x_min":0,"x_max":744,"o":"m 663 0 l 549 344 l 197 344 l 82 0 l 0 0 l 335 994 l 417 994 l 744 0 l 663 0 m 413 781 q 400 822 407 799 q 386 869 393 844 q 374 914 379 893 q 362 868 368 892 q 349 823 356 844 q 336 781 342 801 l 219 417 l 526 417 l 413 781 m 550 1167 l 550 1103 l 194 1103 l 194 1167 l 550 1167 z "},"ā":{"ha":671,"x_min":60,"x_max":565,"o":"m 342 751 q 511 691 457 751 q 565 497 565 631 l 565 0 l 506 0 l 493 121 l 490 121 q 439 51 468 82 q 367 3 410 21 q 265 -14 325 -14 q 153 12 200 -14 q 83 84 107 38 q 60 193 60 131 q 140 362 60 304 q 372 428 219 419 l 489 435 l 489 489 q 451 642 489 597 q 336 686 413 686 q 244 673 290 686 q 151 635 199 660 l 126 696 q 228 737 174 722 q 342 751 283 751 m 381 369 q 200 319 260 363 q 140 193 140 276 q 178 88 140 124 q 281 51 215 51 q 435 118 382 51 q 489 301 488 185 l 489 375 l 381 369 m 515 914 l 515 850 l 160 850 l 160 914 l 515 914 z "},"Ă":{"ha":746,"x_min":0,"x_max":744,"o":"m 663 0 l 549 344 l 197 344 l 82 0 l 0 0 l 335 994 l 417 994 l 744 0 l 663 0 m 413 781 q 400 822 407 799 q 386 869 393 844 q 374 914 379 893 q 362 868 368 892 q 349 823 356 844 q 336 781 342 801 l 219 417 l 526 417 l 413 781 m 550 1264 q 524 1175 547 1213 q 463 1117 501 1138 q 369 1096 424 1096 q 244 1140 289 1096 q 193 1264 199 1183 l 247 1264 q 265 1206 250 1229 q 308 1171 281 1182 q 371 1160 335 1160 q 435 1172 408 1160 q 477 1206 461 1183 q 496 1264 493 1229 l 550 1264 z "},"ă":{"ha":671,"x_min":60,"x_max":565,"o":"m 342 751 q 511 691 457 751 q 565 497 565 631 l 565 0 l 506 0 l 493 121 l 490 121 q 439 51 468 82 q 367 3 410 21 q 265 -14 325 -14 q 153 12 200 -14 q 83 84 107 38 q 60 193 60 131 q 140 362 60 304 q 372 428 219 419 l 489 435 l 489 489 q 451 642 489 597 q 336 686 413 686 q 244 673 290 686 q 151 635 199 660 l 126 696 q 228 737 174 722 q 342 751 283 751 m 381 369 q 200 319 260 363 q 140 193 140 276 q 178 88 140 124 q 281 51 215 51 q 435 118 382 51 q 489 301 488 185 l 489 375 l 381 369 m 515 1011 q 490 922 513 960 q 428 864 467 885 q 335 843 389 843 q 209 887 254 843 q 158 1011 164 931 l 213 1011 q 231 953 215 976 q 273 918 246 929 q 336 907 300 907 q 400 919 374 907 q 442 953 426 931 q 461 1011 458 976 l 515 1011 z "},"Ą":{"ha":746,"x_min":0,"x_max":744,"o":"m 663 0 l 549 344 l 197 344 l 82 0 l 0 0 l 335 994 l 417 994 l 744 0 l 663 0 m 413 781 q 400 822 407 799 q 386 869 393 844 q 374 914 379 893 q 362 868 368 892 q 349 823 356 844 q 336 781 342 801 l 219 417 l 526 417 l 413 781 m 615 -174 q 633 -228 615 -208 q 683 -247 650 -247 q 718 -244 703 -247 q 743 -237 733 -240 l 743 -293 q 712 -301 729 -299 q 672 -304 694 -304 q 581 -273 614 -304 q 549 -183 549 -242 q 565 -112 549 -147 q 609 -44 581 -76 q 675 17 638 -11 l 721 0 q 644 -85 672 -44 q 615 -174 615 -126 z "},"ą":{"ha":671,"x_min":60,"x_max":588,"o":"m 342 751 q 511 691 457 751 q 565 497 565 631 l 565 0 l 506 0 l 493 121 l 490 121 q 439 51 468 82 q 367 3 410 21 q 265 -14 325 -14 q 153 12 200 -14 q 83 84 107 38 q 60 193 60 131 q 140 362 60 304 q 372 428 219 419 l 489 435 l 489 489 q 451 642 489 597 q 336 686 413 686 q 244 673 290 686 q 151 635 199 660 l 126 696 q 228 737 174 722 q 342 751 283 751 m 381 369 q 200 319 260 363 q 140 193 140 276 q 178 88 140 124 q 281 51 215 51 q 435 118 382 51 q 489 301 488 185 l 489 375 l 381 369 m 461 -174 q 478 -228 461 -208 q 529 -247 496 -247 q 564 -244 549 -247 q 589 -237 579 -240 l 589 -293 q 558 -301 575 -299 q 518 -304 540 -304 q 427 -273 460 -304 q 394 -183 394 -242 q 410 -112 394 -147 q 455 -44 426 -76 q 521 17 483 -11 l 567 0 q 490 -85 518 -44 q 461 -174 461 -126 z "},"Ć":{"ha":767,"x_min":81,"x_max":728,"o":"m 503 935 q 356 901 419 935 q 249 809 292 868 q 185 670 207 750 q 164 497 164 590 q 202 265 164 364 q 314 111 240 165 q 496 57 388 57 q 610 69 558 57 q 706 97 661 81 l 706 26 q 609 -3 663 7 q 488 -14 556 -14 q 266 49 357 -14 q 128 226 175 111 q 81 499 81 342 q 108 698 81 606 q 188 860 135 790 q 320 967 242 929 q 501 1006 399 1006 q 621 993 564 1006 q 728 954 678 981 l 697 886 q 603 923 651 911 q 503 935 554 935 m 654 1304 q 616 1254 639 1282 q 566 1197 593 1226 q 512 1142 539 1168 q 460 1094 485 1115 l 408 1094 l 408 1108 q 464 1175 436 1139 q 518 1248 492 1211 q 563 1315 544 1285 l 654 1315 l 654 1304 z "},"ć":{"ha":586,"x_min":74,"x_max":549,"o":"m 375 -14 q 210 31 278 -14 q 108 160 142 75 q 74 364 74 244 q 112 576 74 489 q 221 708 150 663 q 388 753 292 753 q 476 744 435 753 q 549 718 517 735 l 525 653 q 458 675 493 667 q 389 683 422 683 q 260 646 313 683 q 181 538 208 608 q 153 365 153 467 q 177 201 153 271 q 251 93 201 131 q 378 56 300 56 q 465 65 424 56 q 542 90 506 75 l 542 21 q 466 -4 508 6 q 375 -14 424 -14 m 544 1051 q 506 1001 529 1029 q 456 944 483 974 q 402 889 429 915 q 350 842 375 863 l 299 842 l 299 856 q 354 922 326 886 q 408 995 382 958 q 453 1063 435 1032 l 544 1063 l 544 1051 z "},"Ĉ":{"ha":767,"x_min":81,"x_max":728,"o":"m 503 935 q 356 901 419 935 q 249 809 292 868 q 185 670 207 750 q 164 497 164 590 q 202 265 164 364 q 314 111 240 165 q 496 57 388 57 q 610 69 558 57 q 706 97 661 81 l 706 26 q 609 -3 663 7 q 488 -14 556 -14 q 266 49 357 -14 q 128 226 175 111 q 81 499 81 342 q 108 698 81 606 q 188 860 135 790 q 320 967 242 929 q 501 1006 399 1006 q 621 993 564 1006 q 728 954 678 981 l 697 886 q 603 923 651 911 q 503 935 554 935 m 514 1315 q 558 1246 531 1285 q 614 1169 585 1207 q 665 1107 643 1132 l 665 1094 l 614 1094 q 543 1166 579 1125 q 475 1246 507 1207 q 407 1166 443 1207 q 338 1094 371 1125 l 286 1094 l 286 1107 q 338 1172 310 1135 q 394 1247 367 1210 q 438 1315 421 1285 l 514 1315 z "},"ĉ":{"ha":586,"x_min":74,"x_max":554,"o":"m 375 -14 q 210 31 278 -14 q 108 160 142 75 q 74 364 74 244 q 112 576 74 489 q 221 708 150 663 q 388 753 292 753 q 476 744 435 753 q 549 718 517 735 l 525 653 q 458 675 493 667 q 389 683 422 683 q 260 646 313 683 q 181 538 208 608 q 153 365 153 467 q 177 201 153 271 q 251 93 201 131 q 378 56 300 56 q 465 65 424 56 q 542 90 506 75 l 542 21 q 466 -4 508 6 q 375 -14 424 -14 m 403 1063 q 447 993 419 1032 q 503 917 474 954 q 554 854 532 879 l 554 842 l 503 842 q 432 913 468 872 q 364 993 396 954 q 296 913 332 954 q 226 842 260 872 l 175 842 l 175 854 q 227 919 199 882 q 283 994 256 957 q 326 1063 310 1032 l 403 1063 z "},"Ċ":{"ha":767,"x_min":81,"x_max":728,"o":"m 503 935 q 356 901 419 935 q 249 809 292 868 q 185 670 207 750 q 164 497 164 590 q 202 265 164 364 q 314 111 240 165 q 496 57 388 57 q 610 69 558 57 q 706 97 661 81 l 706 26 q 609 -3 663 7 q 488 -14 556 -14 q 266 49 357 -14 q 128 226 175 111 q 81 499 81 342 q 108 698 81 606 q 188 860 135 790 q 320 967 242 929 q 501 1006 399 1006 q 621 993 564 1006 q 728 954 678 981 l 697 886 q 603 923 651 911 q 503 935 554 935 m 476 1267 q 516 1250 503 1267 q 529 1206 529 1233 q 515 1160 529 1176 q 476 1143 501 1143 q 438 1160 451 1143 q 424 1206 424 1176 q 437 1250 424 1233 q 476 1267 450 1267 z "},"ċ":{"ha":586,"x_min":74,"x_max":549,"o":"m 375 -14 q 210 31 278 -14 q 108 160 142 75 q 74 364 74 244 q 112 576 74 489 q 221 708 150 663 q 388 753 292 753 q 476 744 435 753 q 549 718 517 735 l 525 653 q 458 675 493 667 q 389 683 422 683 q 260 646 313 683 q 181 538 208 608 q 153 365 153 467 q 177 201 153 271 q 251 93 201 131 q 378 56 300 56 q 465 65 424 56 q 542 90 506 75 l 542 21 q 466 -4 508 6 q 375 -14 424 -14 m 365 1014 q 405 997 392 1014 q 418 953 418 981 q 404 907 418 924 q 365 890 390 890 q 326 907 340 890 q 313 953 313 924 q 326 997 313 981 q 365 1014 339 1014 z "},"Č":{"ha":767,"x_min":81,"x_max":728,"o":"m 503 935 q 356 901 419 935 q 249 809 292 868 q 185 670 207 750 q 164 497 164 590 q 202 265 164 364 q 314 111 240 165 q 496 57 388 57 q 610 69 558 57 q 706 97 661 81 l 706 26 q 609 -3 663 7 q 488 -14 556 -14 q 266 49 357 -14 q 128 226 175 111 q 81 499 81 342 q 108 698 81 606 q 188 860 135 790 q 320 967 242 929 q 501 1006 399 1006 q 621 993 564 1006 q 728 954 678 981 l 697 886 q 603 923 651 911 q 503 935 554 935 m 438 1094 q 394 1164 421 1126 q 340 1238 368 1201 q 288 1301 311 1275 l 288 1315 l 339 1315 q 408 1244 372 1285 q 475 1163 444 1203 q 542 1242 507 1204 q 613 1315 576 1279 l 665 1315 l 665 1301 q 613 1238 642 1275 q 556 1163 583 1200 q 513 1094 529 1126 l 438 1094 z "},"č":{"ha":586,"x_min":74,"x_max":554,"o":"m 375 -14 q 210 31 278 -14 q 108 160 142 75 q 74 364 74 244 q 112 576 74 489 q 221 708 150 663 q 388 753 292 753 q 476 744 435 753 q 549 718 517 735 l 525 653 q 458 675 493 667 q 389 683 422 683 q 260 646 313 683 q 181 538 208 608 q 153 365 153 467 q 177 201 153 271 q 251 93 201 131 q 378 56 300 56 q 465 65 424 56 q 542 90 506 75 l 542 21 q 466 -4 508 6 q 375 -14 424 -14 m 326 842 q 283 911 310 874 q 228 985 257 949 q 176 1049 200 1022 l 176 1063 l 228 1063 q 297 991 261 1032 q 364 910 333 950 q 431 989 396 951 q 501 1063 465 1026 l 554 1063 l 554 1049 q 501 985 531 1022 q 445 910 472 947 q 401 842 418 874 l 326 842 z "},"Ď":{"ha":876,"x_min":126,"x_max":796,"o":"m 796 506 q 745 226 796 339 q 594 57 694 114 q 347 0 494 0 l 126 0 l 126 992 l 368 992 q 603 937 508 992 q 747 774 699 882 q 796 506 796 665 m 713 503 q 674 734 713 642 q 557 874 636 826 q 357 921 478 921 l 206 921 l 206 71 l 342 71 q 622 179 531 71 q 713 503 713 288 m 397 1094 q 354 1164 381 1126 q 299 1238 328 1201 q 247 1301 271 1275 l 247 1315 l 299 1315 q 368 1244 332 1285 q 435 1163 404 1203 q 501 1242 467 1204 q 572 1315 536 1279 l 625 1315 l 625 1301 q 572 1238 601 1275 q 516 1163 543 1200 q 472 1094 489 1126 l 397 1094 z "},"ď":{"ha":753,"x_min":72,"x_max":822,"o":"m 822 1044 q 803 976 817 1015 q 773 899 790 938 q 738 832 756 861 l 694 832 l 694 847 q 708 888 701 861 q 722 947 715 915 q 735 1007 729 978 q 742 1056 740 1036 l 822 1056 l 822 1044 m 346 -14 q 142 82 213 -14 q 72 363 72 178 q 146 653 72 553 q 350 753 219 753 q 447 735 406 753 q 518 685 489 717 q 564 615 547 654 l 569 615 q 566 681 568 647 q 564 743 564 715 l 564 1056 l 642 1056 l 642 0 l 579 0 l 569 125 l 564 125 q 518 56 547 88 q 447 6 489 25 q 346 -14 404 -14 m 357 53 q 516 128 467 53 q 565 344 565 204 l 565 383 q 517 607 565 529 q 361 685 468 685 q 206 601 258 685 q 153 361 153 518 q 203 132 153 211 q 357 53 253 53 z "},"Đ":{"ha":879,"x_min":33,"x_max":797,"o":"m 369 992 q 603 937 508 992 q 748 774 699 882 q 797 506 797 665 q 747 226 797 339 q 596 57 696 114 q 347 0 496 0 l 131 0 l 131 465 l 33 465 l 33 535 l 131 535 l 131 992 l 369 992 m 358 921 l 210 921 l 210 535 l 439 535 l 439 465 l 210 465 l 210 71 l 343 71 q 624 179 532 71 q 715 503 715 288 q 676 734 715 642 q 558 874 638 826 q 358 921 479 921 z "},"đ":{"ha":756,"x_min":72,"x_max":740,"o":"m 346 -14 q 142 82 213 -14 q 72 361 72 178 q 146 651 72 551 q 350 750 219 750 q 447 731 406 750 q 518 682 489 713 q 564 613 547 651 l 569 613 q 566 678 568 644 q 564 740 564 713 l 564 860 l 304 860 l 304 922 l 564 922 l 564 1056 l 642 1056 l 642 922 l 740 922 l 740 860 l 642 860 l 642 0 l 579 0 l 568 126 l 564 126 q 517 56 546 88 q 447 5 489 24 q 346 -14 404 -14 m 358 53 q 515 128 467 53 q 564 344 564 204 l 564 382 q 516 605 564 528 q 361 682 468 682 q 206 599 258 682 q 153 360 153 517 q 203 132 153 211 q 358 53 253 53 z "},"Ē":{"ha":686,"x_min":126,"x_max":608,"o":"m 608 0 l 126 0 l 126 992 l 608 992 l 608 921 l 206 921 l 206 556 l 585 556 l 585 485 l 206 485 l 206 71 l 608 71 l 608 0 m 556 1167 l 556 1103 l 200 1103 l 200 1167 l 556 1167 z "},"ē":{"ha":689,"x_min":74,"x_max":618,"o":"m 360 753 q 504 708 447 753 q 590 588 561 664 q 618 417 618 513 l 618 361 l 151 361 q 213 133 153 211 q 386 54 272 54 q 490 66 443 54 q 589 104 536 78 l 589 33 q 493 -2 542 10 q 382 -14 444 -14 q 211 33 281 -14 q 108 165 142 79 q 74 365 74 250 q 106 568 74 481 q 203 704 139 656 q 360 753 267 753 m 358 686 q 217 620 271 686 q 154 425 163 554 l 540 425 q 521 560 540 501 q 461 652 501 618 q 358 686 421 686 m 524 914 l 524 850 l 168 850 l 168 914 l 524 914 z "},"Ĕ":{"ha":686,"x_min":126,"x_max":608,"o":"m 608 0 l 126 0 l 126 992 l 608 992 l 608 921 l 206 921 l 206 556 l 585 556 l 585 485 l 206 485 l 206 71 l 608 71 l 608 0 m 557 1264 q 531 1175 554 1213 q 469 1117 508 1138 q 376 1096 431 1096 q 251 1140 296 1096 q 200 1264 206 1183 l 254 1264 q 272 1206 257 1229 q 315 1171 288 1182 q 378 1160 342 1160 q 442 1172 415 1160 q 484 1206 468 1183 q 503 1264 500 1229 l 557 1264 z "},"ĕ":{"ha":689,"x_min":74,"x_max":618,"o":"m 360 753 q 504 708 447 753 q 590 588 561 664 q 618 417 618 513 l 618 361 l 151 361 q 213 133 153 211 q 386 54 272 54 q 490 66 443 54 q 589 104 536 78 l 589 33 q 493 -2 542 10 q 382 -14 444 -14 q 211 33 281 -14 q 108 165 142 79 q 74 365 74 250 q 106 568 74 481 q 203 704 139 656 q 360 753 267 753 m 358 686 q 217 620 271 686 q 154 425 163 554 l 540 425 q 521 560 540 501 q 461 652 501 618 q 358 686 421 686 m 525 1011 q 499 922 522 960 q 438 864 476 885 q 344 843 399 843 q 219 887 264 843 q 168 1011 174 931 l 222 1011 q 240 953 225 976 q 283 918 256 929 q 346 907 310 907 q 410 919 383 907 q 452 953 436 931 q 471 1011 468 976 l 525 1011 z "},"Ė":{"ha":686,"x_min":126,"x_max":608,"o":"m 608 0 l 126 0 l 126 992 l 608 992 l 608 921 l 206 921 l 206 556 l 585 556 l 585 485 l 206 485 l 206 71 l 608 71 l 608 0 m 379 1267 q 419 1250 406 1267 q 432 1206 432 1233 q 418 1160 432 1176 q 379 1143 404 1143 q 340 1160 354 1143 q 326 1206 326 1176 q 340 1250 326 1233 q 379 1267 353 1267 z "},"ė":{"ha":689,"x_min":74,"x_max":618,"o":"m 360 753 q 504 708 447 753 q 590 588 561 664 q 618 417 618 513 l 618 361 l 151 361 q 213 133 153 211 q 386 54 272 54 q 490 66 443 54 q 589 104 536 78 l 589 33 q 493 -2 542 10 q 382 -14 444 -14 q 211 33 281 -14 q 108 165 142 79 q 74 365 74 250 q 106 568 74 481 q 203 704 139 656 q 360 753 267 753 m 358 686 q 217 620 271 686 q 154 425 163 554 l 540 425 q 521 560 540 501 q 461 652 501 618 q 358 686 421 686 m 347 1014 q 387 997 374 1014 q 400 953 400 981 q 386 907 400 924 q 347 890 372 890 q 308 907 322 890 q 294 953 294 924 q 308 997 294 981 q 347 1014 321 1014 z "},"Ę":{"ha":686,"x_min":126,"x_max":608,"o":"m 608 0 l 126 0 l 126 992 l 608 992 l 608 921 l 206 921 l 206 556 l 585 556 l 585 485 l 206 485 l 206 71 l 608 71 l 608 0 m 464 -174 q 481 -228 464 -208 q 532 -247 499 -247 q 567 -244 551 -247 q 592 -237 582 -240 l 592 -293 q 560 -301 578 -299 q 521 -304 543 -304 q 430 -273 463 -304 q 397 -183 397 -242 q 413 -112 397 -147 q 458 -44 429 -76 q 524 17 486 -11 l 569 0 q 492 -85 521 -44 q 464 -174 464 -126 z "},"ę":{"ha":689,"x_min":74,"x_max":618,"o":"m 450 -174 q 468 -227 450 -208 q 521 -246 486 -246 q 556 -243 540 -246 q 581 -237 571 -240 l 581 -293 q 549 -301 567 -297 q 510 -304 532 -304 q 417 -273 450 -304 q 383 -183 383 -242 q 400 -112 383 -147 q 445 -43 417 -76 q 511 19 474 -10 l 585 32 q 512 -41 542 -6 q 466 -109 482 -76 q 450 -174 450 -142 m 360 753 q 504 708 447 753 q 590 588 561 664 q 618 417 618 513 l 618 361 l 151 361 q 213 133 153 211 q 386 54 272 54 q 490 66 443 54 q 589 104 536 78 l 589 33 q 493 -2 542 10 q 382 -14 444 -14 q 211 33 281 -14 q 108 165 142 79 q 74 365 74 250 q 106 568 74 481 q 203 704 139 656 q 360 753 267 753 m 358 686 q 217 620 271 686 q 154 425 163 554 l 540 425 q 521 560 540 501 q 461 652 501 618 q 358 686 421 686 z "},"Ě":{"ha":686,"x_min":126,"x_max":608,"o":"m 608 0 l 126 0 l 126 992 l 608 992 l 608 921 l 206 921 l 206 556 l 585 556 l 585 485 l 206 485 l 206 71 l 608 71 l 608 0 m 340 1094 q 297 1164 324 1126 q 242 1238 271 1201 q 190 1301 214 1275 l 190 1315 l 242 1315 q 311 1244 275 1285 q 378 1163 347 1203 q 444 1242 410 1204 q 515 1315 479 1279 l 568 1315 l 568 1301 q 515 1238 544 1275 q 459 1163 486 1200 q 415 1094 432 1126 l 340 1094 z "},"ě":{"ha":689,"x_min":74,"x_max":618,"o":"m 360 753 q 504 708 447 753 q 590 588 561 664 q 618 417 618 513 l 618 361 l 151 361 q 213 133 153 211 q 386 54 272 54 q 490 66 443 54 q 589 104 536 78 l 589 33 q 493 -2 542 10 q 382 -14 444 -14 q 211 33 281 -14 q 108 165 142 79 q 74 365 74 250 q 106 568 74 481 q 203 704 139 656 q 360 753 267 753 m 358 686 q 217 620 271 686 q 154 425 163 554 l 540 425 q 521 560 540 501 q 461 652 501 618 q 358 686 421 686 m 308 842 q 265 911 292 874 q 210 985 239 949 q 158 1049 182 1022 l 158 1063 l 210 1063 q 279 991 243 1032 q 346 910 315 950 q 413 989 378 951 q 483 1063 447 1026 l 536 1063 l 536 1049 q 483 985 513 1022 q 427 910 454 947 q 383 842 400 874 l 308 842 z "},"Ĝ":{"ha":908,"x_min":81,"x_max":813,"o":"m 494 506 l 813 506 l 813 40 q 671 -1 744 13 q 517 -14 597 -14 q 276 49 372 -14 q 130 226 179 111 q 81 494 81 340 q 134 761 81 646 q 290 942 188 876 q 538 1007 392 1007 q 675 992 610 1007 q 800 946 740 976 l 768 876 q 654 921 713 907 q 535 935 596 935 q 333 880 417 935 q 207 726 250 825 q 164 494 164 628 q 204 260 164 358 q 326 109 244 161 q 529 57 407 57 q 641 67 590 57 q 733 90 692 76 l 733 433 l 494 433 l 494 506 m 549 1315 q 592 1246 565 1285 q 649 1169 619 1207 q 700 1107 678 1132 l 700 1094 l 649 1094 q 578 1166 614 1125 q 510 1246 542 1207 q 442 1166 478 1207 q 372 1094 406 1125 l 321 1094 l 321 1107 q 373 1172 344 1135 q 428 1247 401 1210 q 472 1315 456 1285 l 549 1315 z "},"ĝ":{"ha":751,"x_min":72,"x_max":640,"o":"m 350 753 q 481 719 431 753 q 563 628 531 685 l 567 628 l 578 739 l 640 739 l 640 -25 q 609 -192 640 -124 q 513 -297 578 -261 q 342 -333 447 -333 q 216 -322 272 -333 q 114 -287 160 -310 l 114 -211 q 220 -251 163 -236 q 343 -267 278 -267 q 510 -206 456 -267 q 564 -33 564 -146 l 564 11 q 565 69 564 39 q 568 131 565 100 l 563 131 q 479 24 535 61 q 342 -14 424 -14 q 144 83 215 -14 q 72 364 72 179 q 144 650 72 547 q 350 753 215 753 m 360 685 q 244 647 290 685 q 175 537 197 608 q 153 364 153 465 q 204 131 153 208 q 354 53 256 53 q 453 74 413 53 q 517 134 493 96 q 553 224 542 172 q 564 335 564 275 l 564 399 q 544 553 564 490 q 479 651 524 617 q 360 685 435 685 m 410 1063 q 453 993 426 1032 q 510 917 481 954 q 561 854 539 879 l 561 842 l 510 842 q 439 913 475 872 q 371 993 403 954 q 303 913 339 954 q 233 842 267 872 l 182 842 l 182 854 q 234 919 206 882 q 290 994 263 957 q 333 1063 317 1032 l 410 1063 z "},"Ğ":{"ha":908,"x_min":81,"x_max":813,"o":"m 494 506 l 813 506 l 813 40 q 671 -1 744 13 q 517 -14 597 -14 q 276 49 372 -14 q 130 226 179 111 q 81 494 81 340 q 134 761 81 646 q 290 942 188 876 q 538 1007 392 1007 q 675 992 610 1007 q 800 946 740 976 l 768 876 q 654 921 713 907 q 535 935 596 935 q 333 880 417 935 q 207 726 250 825 q 164 494 164 628 q 204 260 164 358 q 326 109 244 161 q 529 57 407 57 q 641 67 590 57 q 733 90 692 76 l 733 433 l 494 433 l 494 506 m 689 1264 q 663 1175 686 1213 q 601 1117 640 1138 q 508 1096 563 1096 q 383 1140 428 1096 q 332 1264 338 1183 l 386 1264 q 404 1206 389 1229 q 447 1171 419 1182 q 510 1160 474 1160 q 574 1172 547 1160 q 616 1206 600 1183 q 635 1264 632 1229 l 689 1264 z "},"ğ":{"ha":751,"x_min":72,"x_max":640,"o":"m 350 753 q 481 719 431 753 q 563 628 531 685 l 567 628 l 578 739 l 640 739 l 640 -25 q 609 -192 640 -124 q 513 -297 578 -261 q 342 -333 447 -333 q 216 -322 272 -333 q 114 -287 160 -310 l 114 -211 q 220 -251 163 -236 q 343 -267 278 -267 q 510 -206 456 -267 q 564 -33 564 -146 l 564 11 q 565 69 564 39 q 568 131 565 100 l 563 131 q 479 24 535 61 q 342 -14 424 -14 q 144 83 215 -14 q 72 364 72 179 q 144 650 72 547 q 350 753 215 753 m 360 685 q 244 647 290 685 q 175 537 197 608 q 153 364 153 465 q 204 131 153 208 q 354 53 256 53 q 453 74 413 53 q 517 134 493 96 q 553 224 542 172 q 564 335 564 275 l 564 399 q 544 553 564 490 q 479 651 524 617 q 360 685 435 685 m 550 1011 q 524 922 547 960 q 463 864 501 885 q 369 843 424 843 q 244 887 289 843 q 193 1011 199 931 l 247 1011 q 265 953 250 976 q 308 918 281 929 q 371 907 335 907 q 435 919 408 907 q 477 953 461 931 q 496 1011 493 976 l 550 1011 z "},"Ġ":{"ha":908,"x_min":81,"x_max":813,"o":"m 494 506 l 813 506 l 813 40 q 671 -1 744 13 q 517 -14 597 -14 q 276 49 372 -14 q 130 226 179 111 q 81 494 81 340 q 134 761 81 646 q 290 942 188 876 q 538 1007 392 1007 q 675 992 610 1007 q 800 946 740 976 l 768 876 q 654 921 713 907 q 535 935 596 935 q 333 880 417 935 q 207 726 250 825 q 164 494 164 628 q 204 260 164 358 q 326 109 244 161 q 529 57 407 57 q 641 67 590 57 q 733 90 692 76 l 733 433 l 494 433 l 494 506 m 511 1267 q 551 1250 538 1267 q 564 1206 564 1233 q 550 1160 564 1176 q 511 1143 536 1143 q 472 1160 486 1143 q 458 1206 458 1176 q 472 1250 458 1233 q 511 1267 485 1267 z "},"ġ":{"ha":751,"x_min":72,"x_max":640,"o":"m 350 753 q 481 719 431 753 q 563 628 531 685 l 567 628 l 578 739 l 640 739 l 640 -25 q 609 -192 640 -124 q 513 -297 578 -261 q 342 -333 447 -333 q 216 -322 272 -333 q 114 -287 160 -310 l 114 -211 q 220 -251 163 -236 q 343 -267 278 -267 q 510 -206 456 -267 q 564 -33 564 -146 l 564 11 q 565 69 564 39 q 568 131 565 100 l 563 131 q 479 24 535 61 q 342 -14 424 -14 q 144 83 215 -14 q 72 364 72 179 q 144 650 72 547 q 350 753 215 753 m 360 685 q 244 647 290 685 q 175 537 197 608 q 153 364 153 465 q 204 131 153 208 q 354 53 256 53 q 453 74 413 53 q 517 134 493 96 q 553 224 542 172 q 564 335 564 275 l 564 399 q 544 553 564 490 q 479 651 524 617 q 360 685 435 685 m 372 1014 q 412 997 399 1014 q 425 953 425 981 q 411 907 425 924 q 372 890 397 890 q 333 907 347 890 q 319 953 319 924 q 333 997 319 981 q 372 1014 346 1014 z "},"Ģ":{"ha":908,"x_min":81,"x_max":813,"o":"m 494 506 l 813 506 l 813 40 q 671 -1 744 13 q 517 -14 597 -14 q 276 49 372 -14 q 130 226 179 111 q 81 494 81 340 q 134 761 81 646 q 290 942 188 876 q 538 1007 392 1007 q 675 992 610 1007 q 800 946 740 976 l 768 876 q 654 921 713 907 q 535 935 596 935 q 333 880 417 935 q 207 726 250 825 q 164 494 164 628 q 204 260 164 358 q 326 109 244 161 q 529 57 407 57 q 641 67 590 57 q 733 90 692 76 l 733 433 l 494 433 l 494 506 m 574 -96 q 551 -165 565 -128 q 519 -240 538 -203 q 479 -307 501 -276 l 436 -307 l 436 -293 q 459 -233 447 -271 q 481 -154 471 -194 q 494 -85 490 -114 l 574 -85 l 574 -96 z "},"ģ":{"ha":751,"x_min":72,"x_max":640,"o":"m 449 1050 q 425 988 438 1026 q 402 910 413 950 q 389 840 392 869 l 310 840 l 310 851 q 331 921 317 883 q 364 995 344 958 q 404 1063 383 1032 l 449 1063 l 449 1050 m 350 753 q 481 719 431 753 q 563 628 531 685 l 567 628 l 578 739 l 640 739 l 640 -25 q 609 -192 640 -124 q 513 -297 578 -261 q 342 -333 447 -333 q 216 -322 272 -333 q 114 -287 160 -310 l 114 -211 q 220 -251 163 -236 q 343 -267 278 -267 q 510 -206 456 -267 q 564 -33 564 -146 l 564 11 q 565 69 564 39 q 568 131 565 100 l 563 131 q 479 24 535 61 q 342 -14 424 -14 q 144 83 215 -14 q 72 364 72 179 q 144 650 72 547 q 350 753 215 753 m 360 685 q 244 647 290 685 q 175 537 197 608 q 153 364 153 465 q 204 131 153 208 q 354 53 256 53 q 453 74 413 53 q 517 134 493 96 q 553 224 542 172 q 564 335 564 275 l 564 399 q 544 553 564 490 q 479 651 524 617 q 360 685 435 685 z "},"Ĥ":{"ha":896,"x_min":126,"x_max":769,"o":"m 769 0 l 690 0 l 690 483 l 206 483 l 206 0 l 126 0 l 126 992 l 206 992 l 206 556 l 690 556 l 690 992 l 769 992 l 769 0 m 486 1315 q 530 1246 503 1285 q 586 1169 557 1207 q 638 1107 615 1132 l 638 1094 l 586 1094 q 515 1166 551 1125 q 447 1246 479 1207 q 379 1166 415 1207 q 310 1094 343 1125 l 258 1094 l 258 1107 q 310 1172 282 1135 q 366 1247 339 1210 q 410 1315 393 1285 l 486 1315 z "},"ĥ":{"ha":744,"x_min":-39,"x_max":638,"o":"m 189 718 q 188 664 189 689 q 183 613 186 639 l 189 613 q 237 684 207 653 q 310 734 267 715 q 410 753 354 753 q 535 724 485 753 q 612 638 586 696 q 638 492 638 581 l 638 0 l 561 0 l 561 483 q 520 637 561 589 q 400 685 479 685 q 285 653 332 685 q 213 560 238 622 q 189 401 189 497 l 189 0 l 111 0 l 111 1056 l 189 1056 l 189 718 m 189 1379 q 233 1310 206 1349 q 289 1233 260 1271 q 340 1171 318 1196 l 340 1158 l 289 1158 q 218 1230 254 1189 q 150 1310 182 1271 q 82 1230 118 1271 q 13 1158 46 1189 l -39 1158 l -39 1171 q 13 1236 -15 1199 q 69 1311 42 1274 q 113 1379 96 1349 l 189 1379 z "},"Ħ":{"ha":897,"x_min":0,"x_max":897,"o":"m 126 0 l 126 746 l 0 746 l 0 811 l 126 811 l 126 992 l 206 992 l 206 811 l 690 811 l 690 992 l 769 992 l 769 811 l 897 811 l 897 746 l 769 746 l 769 0 l 690 0 l 690 483 l 206 483 l 206 0 l 126 0 m 206 556 l 690 556 l 690 746 l 206 746 l 206 556 z "},"ħ":{"ha":746,"x_min":17,"x_max":640,"o":"m 192 1056 l 192 921 l 453 921 l 453 858 l 192 858 l 192 706 q 190 653 192 678 q 186 603 189 628 l 192 603 q 239 674 208 643 q 313 724 269 706 q 413 742 356 742 q 537 714 486 742 q 614 628 588 686 q 640 481 640 571 l 640 0 l 563 0 l 563 472 q 522 626 563 578 q 401 674 481 674 q 287 643 333 674 q 215 550 240 613 q 190 392 190 488 l 190 0 l 114 0 l 114 858 l 17 858 l 17 921 l 114 921 l 114 1056 l 192 1056 z "},"Ĩ":{"ha":401,"x_min":-21,"x_max":425,"o":"m 339 0 l 63 0 l 63 49 l 161 64 l 161 926 l 63 943 l 63 992 l 339 992 l 339 943 l 240 926 l 240 64 l 339 49 l 339 0 m -21 1103 q -8 1167 -18 1139 q 17 1215 1 1194 q 56 1245 33 1235 q 106 1256 78 1256 q 162 1242 136 1256 q 210 1210 188 1228 q 254 1180 232 1193 q 300 1167 276 1167 q 347 1188 328 1167 q 374 1256 367 1208 l 425 1256 q 385 1142 419 1182 q 299 1103 351 1103 q 243 1116 268 1103 q 195 1147 218 1129 q 150 1178 172 1165 q 104 1192 128 1192 q 58 1171 76 1192 q 31 1103 39 1150 l -21 1103 z "},"ĩ":{"ha":300,"x_min":-72,"x_max":374,"o":"m 189 0 l 111 0 l 111 739 l 189 739 l 189 0 m -72 850 q -60 914 -69 886 q -34 962 -50 942 q 4 992 -18 982 q 54 1003 26 1003 q 110 989 85 1003 q 158 958 136 975 q 203 927 181 940 q 249 914 225 914 q 296 935 276 914 q 322 1003 315 956 l 374 1003 q 334 890 368 929 q 247 850 300 850 q 192 863 217 850 q 144 894 167 876 q 99 926 121 913 q 53 939 76 939 q 6 918 25 939 q -21 850 -12 897 l -72 850 z "},"Ī":{"ha":401,"x_min":24,"x_max":379,"o":"m 339 0 l 63 0 l 63 49 l 161 64 l 161 926 l 63 943 l 63 992 l 339 992 l 339 943 l 240 926 l 240 64 l 339 49 l 339 0 m 379 1167 l 379 1103 l 24 1103 l 24 1167 l 379 1167 z "},"ī":{"ha":300,"x_min":-28,"x_max":328,"o":"m 189 0 l 111 0 l 111 739 l 189 739 l 189 0 m 328 914 l 328 850 l -28 850 l -28 914 l 328 914 z "},"Ĭ":{"ha":401,"x_min":22,"x_max":381,"o":"m 339 0 l 63 0 l 63 49 l 161 64 l 161 926 l 63 943 l 63 992 l 339 992 l 339 943 l 240 926 l 240 64 l 339 49 l 339 0 m 379 1264 q 353 1175 376 1213 q 292 1117 331 1138 q 199 1096 253 1096 q 73 1140 118 1096 q 22 1264 28 1183 l 76 1264 q 94 1206 79 1229 q 137 1171 110 1182 q 200 1160 164 1160 q 264 1172 238 1160 q 306 1206 290 1183 q 325 1264 322 1229 l 379 1264 z "},"ĭ":{"ha":300,"x_min":-28,"x_max":329,"o":"m 189 0 l 111 0 l 111 739 l 189 739 l 189 0 m 329 1011 q 303 922 326 960 q 242 864 281 885 q 149 843 203 843 q 23 887 68 843 q -28 1011 -22 931 l 26 1011 q 44 953 29 976 q 87 918 60 929 q 150 907 114 907 q 214 919 188 907 q 256 953 240 931 q 275 1011 272 976 l 329 1011 z "},"Į":{"ha":401,"x_min":63,"x_max":339,"o":"m 339 0 l 63 0 l 63 49 l 161 64 l 161 926 l 63 943 l 63 992 l 339 992 l 339 943 l 240 926 l 240 64 l 339 49 l 339 0 m 200 -174 q 217 -228 200 -208 q 268 -247 235 -247 q 303 -244 288 -247 q 328 -237 318 -240 l 328 -293 q 297 -301 314 -299 q 257 -304 279 -304 q 166 -273 199 -304 q 133 -183 133 -242 q 149 -112 133 -147 q 194 -44 165 -76 q 260 17 222 -11 l 306 0 q 228 -85 257 -44 q 200 -174 200 -126 z "},"į":{"ha":303,"x_min":14,"x_max":208,"o":"m 190 739 l 190 0 l 113 0 l 113 739 l 190 739 m 153 1014 q 192 997 179 1014 q 206 953 206 981 q 192 907 206 924 q 153 890 178 890 q 114 907 128 890 q 100 953 100 924 q 113 997 100 981 q 153 1014 126 1014 m 81 -174 q 98 -228 81 -208 q 149 -247 115 -247 q 183 -244 168 -247 q 208 -237 199 -240 l 208 -293 q 177 -301 194 -299 q 138 -304 160 -304 q 47 -273 79 -304 q 14 -183 14 -242 q 30 -112 14 -147 q 74 -44 46 -76 q 140 17 103 -11 l 186 0 q 109 -85 138 -44 q 81 -174 81 -126 z "},"İ":{"ha":401,"x_min":63,"x_max":339,"o":"m 339 0 l 63 0 l 63 49 l 161 64 l 161 926 l 63 943 l 63 992 l 339 992 l 339 943 l 240 926 l 240 64 l 339 49 l 339 0 m 201 1267 q 241 1250 228 1267 q 254 1206 254 1233 q 240 1160 254 1176 q 201 1143 226 1143 q 163 1160 176 1143 q 149 1206 149 1176 q 162 1250 149 1233 q 201 1267 175 1267 z "},"Ĳ":{"ha":726,"x_min":63,"x_max":606,"o":"m 339 0 l 63 0 l 63 49 l 161 64 l 161 926 l 63 943 l 63 992 l 339 992 l 339 943 l 240 926 l 240 64 l 339 49 l 339 0 m 397 -254 q 342 -249 365 -254 q 299 -237 318 -244 l 299 -165 q 342 -177 318 -172 q 394 -182 367 -182 q 469 -162 439 -182 q 513 -101 499 -142 q 526 0 526 -61 l 526 992 l 606 992 l 606 -3 q 583 -141 606 -85 q 513 -226 560 -197 q 397 -254 467 -254 z "},"ĳ":{"ha":606,"x_min":100,"x_max":507,"o":"m 190 739 l 190 0 l 113 0 l 113 739 l 190 739 m 153 1014 q 192 997 179 1014 q 206 953 206 981 q 192 907 206 924 q 153 890 178 890 q 114 907 128 890 q 100 953 100 924 q 113 997 100 981 q 153 1014 126 1014 m 332 -333 q 287 -330 307 -333 q 251 -321 267 -326 l 251 -253 q 286 -262 268 -260 q 324 -265 304 -265 q 391 -235 368 -265 q 414 -139 414 -204 l 414 739 l 492 739 l 492 -140 q 472 -249 492 -206 q 417 -312 453 -292 q 332 -333 382 -333 m 401 953 q 415 997 401 981 q 454 1014 428 1014 q 494 997 481 1014 q 507 953 507 981 q 493 907 507 924 q 454 890 479 890 q 415 907 429 890 q 401 953 401 924 z "},"Ĵ":{"ha":326,"x_min":-101,"x_max":356,"o":"m -3 -254 q -58 -249 -35 -254 q -101 -237 -82 -244 l -101 -165 q -58 -177 -82 -172 q -6 -182 -33 -182 q 69 -162 39 -182 q 113 -101 99 -142 q 126 0 126 -61 l 126 992 l 206 992 l 206 -3 q 183 -141 206 -85 q 113 -226 160 -197 q -3 -254 67 -254 m 204 1315 q 248 1246 221 1285 q 304 1169 275 1207 q 356 1107 333 1132 l 356 1094 l 304 1094 q 233 1166 269 1125 q 165 1246 197 1207 q 97 1166 133 1207 q 28 1094 61 1125 l -24 1094 l -24 1107 q 28 1172 0 1135 q 84 1247 57 1210 q 128 1315 111 1285 l 204 1315 z "},"ĵ":{"ha":303,"x_min":-50,"x_max":340,"o":"m 31 -333 q -15 -330 6 -333 q -50 -321 -35 -326 l -50 -253 q -15 -262 -33 -260 q 22 -265 3 -265 q 90 -234 67 -265 q 113 -139 113 -203 l 113 739 l 190 739 l 190 -140 q 171 -249 190 -206 q 116 -312 151 -292 q 31 -333 81 -333 m 189 1063 q 233 993 206 1032 q 289 917 260 954 q 340 854 318 879 l 340 842 l 289 842 q 218 913 254 872 q 150 993 182 954 q 82 913 118 954 q 13 842 46 872 l -39 842 l -39 854 q 13 919 -15 882 q 69 994 42 957 q 113 1063 96 1032 l 189 1063 z "},"Ķ":{"ha":728,"x_min":126,"x_max":729,"o":"m 729 0 l 636 0 l 313 504 l 206 392 l 206 0 l 126 0 l 126 992 l 206 992 l 206 474 q 253 535 226 501 q 310 607 279 568 l 624 992 l 717 992 l 368 564 l 729 0 m 451 -96 q 429 -165 443 -128 q 397 -240 415 -203 q 357 -307 379 -276 l 314 -307 l 314 -293 q 337 -233 325 -271 q 358 -154 349 -194 q 372 -85 368 -114 l 451 -85 l 451 -96 z "},"ķ":{"ha":618,"x_min":111,"x_max":614,"o":"m 189 518 q 188 429 189 474 q 185 340 186 385 l 188 340 q 210 371 199 356 q 234 402 222 386 q 257 433 246 418 l 504 739 l 593 739 l 344 435 l 614 0 l 525 0 l 292 379 l 189 263 l 189 0 l 111 0 l 111 1056 l 189 1056 l 189 518 m 382 -96 q 360 -165 374 -128 q 328 -240 346 -203 q 288 -307 310 -276 l 244 -307 l 244 -293 q 267 -233 256 -271 q 289 -154 279 -194 q 303 -85 299 -114 l 382 -85 l 382 -96 z "},"ĸ":{"ha":618,"x_min":111,"x_max":614,"o":"m 593 739 l 349 431 l 614 0 l 525 0 l 296 376 l 192 260 l 192 0 l 111 0 l 111 739 l 192 739 l 192 532 q 190 428 192 478 q 186 333 189 378 l 188 333 q 217 374 203 356 q 246 413 231 393 l 501 739 l 593 739 z "},"Ĺ":{"ha":635,"x_min":97,"x_max":606,"o":"m 126 0 l 126 992 l 206 992 l 206 72 l 606 72 l 606 0 l 126 0 m 343 1304 q 305 1254 328 1282 q 255 1197 282 1226 q 201 1142 228 1168 q 149 1094 174 1115 l 97 1094 l 97 1108 q 153 1175 125 1139 q 207 1248 181 1211 q 251 1315 233 1285 l 343 1315 l 343 1304 z "},"ĺ":{"ha":300,"x_min":83,"x_max":329,"o":"m 189 0 l 113 0 l 113 1056 l 189 1056 l 189 0 m 329 1368 q 291 1318 314 1346 q 241 1261 268 1290 q 187 1206 214 1232 q 135 1158 160 1179 l 83 1158 l 83 1172 q 139 1239 111 1203 q 193 1312 167 1275 q 238 1379 219 1349 l 329 1379 l 329 1368 z "},"Ļ":{"ha":635,"x_min":126,"x_max":606,"o":"m 126 0 l 126 992 l 206 992 l 206 72 l 606 72 l 606 0 l 126 0 m 429 -96 q 407 -165 421 -128 q 375 -240 393 -203 q 335 -307 357 -276 l 292 -307 l 292 -293 q 315 -233 303 -271 q 336 -154 326 -194 q 350 -85 346 -114 l 429 -85 l 429 -96 z "},"ļ":{"ha":300,"x_min":82,"x_max":219,"o":"m 189 0 l 113 0 l 113 1056 l 189 1056 l 189 0 m 219 -96 q 197 -165 211 -128 q 165 -240 183 -203 q 125 -307 147 -276 l 82 -307 l 82 -293 q 105 -233 93 -271 q 126 -154 117 -194 q 140 -85 136 -114 l 219 -85 l 219 -96 z "},"Ľ":{"ha":635,"x_min":126,"x_max":606,"o":"m 597 981 q 577 913 590 951 q 547 835 564 874 q 513 768 531 797 l 469 768 l 469 783 q 482 824 475 797 q 496 883 489 851 q 508 943 503 914 q 515 992 514 972 l 597 992 l 597 981 m 126 0 l 126 992 l 206 992 l 206 72 l 606 72 l 606 0 l 126 0 z "},"ľ":{"ha":301,"x_min":113,"x_max":371,"o":"m 371 1044 q 351 976 364 1015 q 320 899 338 938 q 285 832 303 861 l 242 832 l 242 847 q 256 888 249 861 q 269 947 263 915 q 282 1007 276 978 q 289 1056 288 1036 l 371 1056 l 371 1044 m 189 0 l 113 0 l 113 1056 l 189 1056 l 189 0 z "},"Ŀ":{"ha":635,"x_min":126,"x_max":606,"o":"m 126 0 l 126 992 l 206 992 l 206 72 l 606 72 l 606 0 l 126 0 m 467 599 q 506 582 493 599 q 519 538 519 565 q 506 492 519 508 q 467 475 492 475 q 428 492 442 475 q 414 538 414 508 q 427 582 414 565 q 467 599 440 599 z "},"ŀ":{"ha":332,"x_min":113,"x_max":369,"o":"m 189 0 l 113 0 l 113 1056 l 189 1056 l 189 0 m 317 610 q 356 593 343 610 q 369 549 369 576 q 356 503 369 519 q 317 486 342 486 q 278 503 292 486 q 264 549 264 519 q 277 593 264 576 q 317 610 290 610 z "},"Ł":{"ha":638,"x_min":8,"x_max":607,"o":"m 128 0 l 128 363 l 44 310 l 8 365 l 128 440 l 128 992 l 207 992 l 207 489 l 407 614 l 442 557 l 207 413 l 207 72 l 607 72 l 607 0 l 128 0 z "},"ł":{"ha":308,"x_min":-8,"x_max":325,"o":"m 114 0 l 114 444 l 26 386 l -8 440 l 114 522 l 114 1056 l 190 1056 l 190 574 l 290 642 l 325 589 l 190 497 l 190 0 l 114 0 z "},"Ń":{"ha":914,"x_min":126,"x_max":788,"o":"m 788 0 l 700 0 l 200 867 l 196 867 q 199 798 197 833 q 201 725 200 763 q 201 647 201 688 l 201 0 l 126 0 l 126 992 l 215 992 l 714 131 l 718 131 q 716 200 717 163 q 714 276 715 238 q 713 349 713 315 l 713 992 l 788 992 l 788 0 m 636 1304 q 598 1254 621 1282 q 548 1197 575 1226 q 494 1142 521 1168 q 442 1094 467 1115 l 390 1094 l 390 1108 q 446 1175 418 1139 q 500 1248 474 1211 q 544 1315 526 1285 l 636 1315 l 636 1304 z "},"ń":{"ha":744,"x_min":111,"x_max":638,"o":"m 411 753 q 579 690 521 753 q 638 494 638 628 l 638 0 l 561 0 l 561 485 q 520 636 561 588 q 400 685 479 685 q 243 615 297 685 q 189 406 189 546 l 189 0 l 111 0 l 111 739 l 174 739 l 183 611 l 189 611 q 238 683 207 651 q 311 734 268 715 q 411 753 354 753 m 553 1051 q 515 1001 538 1029 q 465 944 492 974 q 410 889 438 915 q 358 842 383 863 l 307 842 l 307 856 q 363 922 335 886 q 417 995 390 958 q 461 1063 443 1032 l 553 1063 l 553 1051 z "},"Ņ":{"ha":914,"x_min":126,"x_max":788,"o":"m 788 0 l 700 0 l 200 867 l 196 867 q 199 798 197 833 q 201 725 200 763 q 201 647 201 688 l 201 0 l 126 0 l 126 992 l 215 992 l 714 131 l 718 131 q 716 200 717 163 q 714 276 715 238 q 713 349 713 315 l 713 992 l 788 992 l 788 0 m 526 -96 q 504 -165 518 -128 q 472 -240 490 -203 q 432 -307 454 -276 l 389 -307 l 389 -293 q 412 -233 400 -271 q 433 -154 424 -194 q 447 -85 443 -114 l 526 -85 l 526 -96 z "},"ņ":{"ha":744,"x_min":111,"x_max":638,"o":"m 411 753 q 579 690 521 753 q 638 494 638 628 l 638 0 l 561 0 l 561 485 q 520 636 561 588 q 400 685 479 685 q 243 615 297 685 q 189 406 189 546 l 189 0 l 111 0 l 111 739 l 174 739 l 183 611 l 189 611 q 238 683 207 651 q 311 734 268 715 q 411 753 354 753 m 442 -96 q 419 -165 433 -128 q 388 -240 406 -203 q 347 -307 369 -276 l 304 -307 l 304 -293 q 327 -233 315 -271 q 349 -154 339 -194 q 363 -85 358 -114 l 442 -85 l 442 -96 z "},"Ň":{"ha":914,"x_min":126,"x_max":788,"o":"m 788 0 l 700 0 l 200 867 l 196 867 q 199 798 197 833 q 201 725 200 763 q 201 647 201 688 l 201 0 l 126 0 l 126 992 l 215 992 l 714 131 l 718 131 q 716 200 717 163 q 714 276 715 238 q 713 349 713 315 l 713 992 l 788 992 l 788 0 m 418 1094 q 375 1164 401 1126 q 320 1238 349 1201 q 268 1301 292 1275 l 268 1315 l 319 1315 q 389 1244 353 1285 q 456 1163 425 1203 q 522 1242 488 1204 q 593 1315 557 1279 l 646 1315 l 646 1301 q 593 1238 622 1275 q 537 1163 564 1200 q 493 1094 510 1126 l 418 1094 z "},"ň":{"ha":744,"x_min":111,"x_max":638,"o":"m 411 753 q 579 690 521 753 q 638 494 638 628 l 638 0 l 561 0 l 561 485 q 520 636 561 588 q 400 685 479 685 q 243 615 297 685 q 189 406 189 546 l 189 0 l 111 0 l 111 739 l 174 739 l 183 611 l 189 611 q 238 683 207 651 q 311 734 268 715 q 411 753 354 753 m 336 842 q 293 911 319 874 q 238 985 267 949 q 186 1049 210 1022 l 186 1063 l 238 1063 q 307 991 271 1032 q 374 910 343 950 q 440 989 406 951 q 511 1063 475 1026 l 564 1063 l 564 1049 q 511 985 540 1022 q 455 910 482 947 q 411 842 428 874 l 336 842 z "},"ŉ":{"ha":794,"x_min":0,"x_max":689,"o":"m 463 753 q 631 690 572 753 q 689 494 689 628 l 689 0 l 613 0 l 613 485 q 572 636 613 588 q 451 685 531 685 q 294 615 349 685 q 240 406 240 546 l 240 0 l 163 0 l 163 739 l 225 739 l 235 611 l 240 611 q 289 683 258 651 q 363 734 319 715 q 463 753 406 753 m 164 978 q 136 870 153 925 q 99 762 119 815 q 57 658 79 708 l 0 658 q 24 740 13 697 q 46 827 36 783 q 63 913 56 871 q 75 992 71 956 l 154 992 l 164 978 z "},"Ŋ":{"ha":915,"x_min":126,"x_max":789,"o":"m 582 -254 q 525 -249 551 -254 q 482 -236 499 -243 l 482 -167 q 526 -177 501 -172 q 579 -182 551 -182 q 651 -163 621 -182 q 697 -103 681 -144 q 714 7 714 -61 l 199 868 l 196 868 q 199 801 197 838 q 201 725 200 764 q 201 646 201 686 l 201 0 l 126 0 l 126 992 l 214 992 l 714 153 l 718 153 q 716 222 717 185 q 715 297 715 260 q 714 371 714 335 l 714 992 l 789 992 l 789 3 q 765 -140 789 -82 q 694 -226 740 -197 q 582 -254 649 -254 z "},"ŋ":{"ha":744,"x_min":111,"x_max":638,"o":"m 482 -333 q 438 -330 457 -333 q 404 -321 419 -326 l 404 -253 q 438 -262 421 -260 q 474 -265 456 -265 q 538 -234 515 -265 q 561 -137 561 -203 l 561 485 q 520 636 561 588 q 400 685 479 685 q 285 654 332 685 q 213 563 238 624 q 189 407 189 501 l 189 0 l 111 0 l 111 739 l 174 739 l 185 611 l 189 611 q 237 683 207 650 q 310 734 267 715 q 411 753 354 753 q 537 724 486 753 q 613 638 588 696 q 638 490 638 581 l 638 -137 q 619 -244 638 -200 q 567 -311 601 -289 q 482 -333 532 -333 z "},"Ō":{"ha":946,"x_min":81,"x_max":864,"o":"m 864 497 q 841 294 864 388 q 769 132 818 201 q 647 24 721 63 q 474 -14 574 -14 q 297 25 371 -14 q 174 133 222 64 q 103 296 126 203 q 81 499 81 389 q 125 770 81 657 q 258 945 169 883 q 476 1007 346 1007 q 692 943 606 1007 q 821 765 778 879 q 864 497 864 650 m 164 497 q 198 264 164 363 q 301 111 232 165 q 474 57 369 57 q 647 110 578 57 q 748 261 715 163 q 781 497 781 360 q 704 821 781 707 q 476 935 628 935 q 301 882 371 935 q 197 731 231 829 q 164 497 164 633 m 650 1167 l 650 1103 l 294 1103 l 294 1167 l 650 1167 z "},"ō":{"ha":735,"x_min":72,"x_max":663,"o":"m 663 371 q 644 211 663 282 q 588 90 625 140 q 494 13 550 39 q 367 -14 439 -14 q 242 13 297 -14 q 150 90 188 39 q 92 211 113 140 q 72 371 72 282 q 107 577 72 492 q 208 708 142 663 q 371 753 275 753 q 532 706 467 753 q 630 574 597 660 q 663 371 663 489 m 153 371 q 176 201 153 272 q 247 92 199 129 q 368 54 294 54 q 490 92 442 54 q 560 201 538 129 q 583 371 583 272 q 561 537 583 467 q 492 646 539 607 q 369 685 446 685 q 206 603 260 685 q 153 371 153 521 m 546 914 l 546 850 l 190 850 l 190 914 l 546 914 z "},"Ŏ":{"ha":946,"x_min":81,"x_max":864,"o":"m 864 497 q 841 294 864 388 q 769 132 818 201 q 647 24 721 63 q 474 -14 574 -14 q 297 25 371 -14 q 174 133 222 64 q 103 296 126 203 q 81 499 81 389 q 125 770 81 657 q 258 945 169 883 q 476 1007 346 1007 q 692 943 606 1007 q 821 765 778 879 q 864 497 864 650 m 164 497 q 198 264 164 363 q 301 111 232 165 q 474 57 369 57 q 647 110 578 57 q 748 261 715 163 q 781 497 781 360 q 704 821 781 707 q 476 935 628 935 q 301 882 371 935 q 197 731 231 829 q 164 497 164 633 m 651 1264 q 626 1175 649 1213 q 564 1117 603 1138 q 471 1096 525 1096 q 345 1140 390 1096 q 294 1264 300 1183 l 349 1264 q 367 1206 351 1229 q 409 1171 382 1182 q 472 1160 436 1160 q 536 1172 510 1160 q 578 1206 563 1183 q 597 1264 594 1229 l 651 1264 z "},"ŏ":{"ha":735,"x_min":72,"x_max":663,"o":"m 663 371 q 644 211 663 282 q 588 90 625 140 q 494 13 550 39 q 367 -14 439 -14 q 242 13 297 -14 q 150 90 188 39 q 92 211 113 140 q 72 371 72 282 q 107 577 72 492 q 208 708 142 663 q 371 753 275 753 q 532 706 467 753 q 630 574 597 660 q 663 371 663 489 m 153 371 q 176 201 153 272 q 247 92 199 129 q 368 54 294 54 q 490 92 442 54 q 560 201 538 129 q 583 371 583 272 q 561 537 583 467 q 492 646 539 607 q 369 685 446 685 q 206 603 260 685 q 153 371 153 521 m 546 1011 q 520 922 543 960 q 458 864 497 885 q 365 843 419 843 q 240 887 285 843 q 189 1011 194 931 l 243 1011 q 261 953 246 976 q 303 918 276 929 q 367 907 331 907 q 431 919 404 907 q 473 953 457 931 q 492 1011 489 976 l 546 1011 z "},"Ő":{"ha":946,"x_min":81,"x_max":864,"o":"m 864 497 q 841 294 864 388 q 769 132 818 201 q 647 24 721 63 q 474 -14 574 -14 q 297 25 371 -14 q 174 133 222 64 q 103 296 126 203 q 81 499 81 389 q 125 770 81 657 q 258 945 169 883 q 476 1007 346 1007 q 692 943 606 1007 q 821 765 778 879 q 864 497 864 650 m 164 497 q 198 264 164 363 q 301 111 232 165 q 474 57 369 57 q 647 110 578 57 q 748 261 715 163 q 781 497 781 360 q 704 821 781 707 q 476 935 628 935 q 301 882 371 935 q 197 731 231 829 q 164 497 164 633 m 686 1306 q 655 1257 675 1285 q 611 1199 635 1229 q 563 1142 588 1169 q 517 1094 538 1115 l 471 1094 l 471 1107 q 518 1173 493 1135 q 566 1250 543 1211 q 603 1317 589 1289 l 686 1317 l 686 1306 m 475 1306 q 443 1257 463 1285 q 399 1199 424 1229 q 351 1142 375 1169 q 304 1094 326 1115 l 258 1094 l 258 1107 q 306 1174 281 1136 q 353 1251 331 1213 q 390 1317 376 1289 l 475 1317 l 475 1306 z "},"ő":{"ha":735,"x_min":72,"x_max":663,"o":"m 663 371 q 644 211 663 282 q 588 90 625 140 q 494 13 550 39 q 367 -14 439 -14 q 242 13 297 -14 q 150 90 188 39 q 92 211 113 140 q 72 371 72 282 q 107 577 72 492 q 208 708 142 663 q 371 753 275 753 q 532 706 467 753 q 630 574 597 660 q 663 371 663 489 m 153 371 q 176 201 153 272 q 247 92 199 129 q 368 54 294 54 q 490 92 442 54 q 560 201 538 129 q 583 371 583 272 q 561 537 583 467 q 492 646 539 607 q 369 685 446 685 q 206 603 260 685 q 153 371 153 521 m 581 1053 q 549 1004 569 1032 q 506 947 529 976 q 457 890 482 917 q 411 842 432 863 l 365 842 l 365 854 q 413 920 388 882 q 460 997 438 958 q 497 1064 483 1036 l 581 1064 l 581 1053 m 369 1053 q 338 1004 357 1032 q 294 947 318 976 q 245 890 269 917 q 199 842 221 863 l 153 842 l 153 854 q 200 922 175 883 q 248 998 225 960 q 285 1064 271 1036 l 369 1064 l 369 1053 z "},"Œ":{"ha":1122,"x_min":81,"x_max":1044,"o":"m 483 999 q 541 997 515 999 q 594 992 567 994 l 1044 992 l 1044 921 l 646 921 l 646 556 l 1021 556 l 1021 485 l 646 485 l 646 71 l 1044 71 l 1044 0 l 592 0 q 540 -5 567 -3 q 482 -7 514 -7 q 258 54 347 -7 q 125 229 169 115 q 81 499 81 343 q 124 764 81 651 q 258 938 168 876 q 483 999 347 999 m 485 928 q 338 897 399 928 q 238 808 276 865 q 182 673 200 751 q 164 499 164 594 q 197 268 164 365 q 301 117 231 171 q 485 64 372 64 q 531 67 510 64 q 568 74 551 69 l 568 918 q 531 925 551 922 q 485 928 510 928 z "},"œ":{"ha":1192,"x_min":72,"x_max":1119,"o":"m 864 753 q 1008 708 951 753 q 1092 588 1064 664 q 1119 417 1119 513 l 1119 361 l 657 361 q 717 131 657 208 q 890 54 776 54 q 993 65 947 54 q 1092 103 1039 76 l 1092 32 q 996 -2 1044 10 q 886 -14 947 -14 q 716 37 782 -14 q 619 176 650 88 q 526 38 589 89 q 364 -14 463 -14 q 207 33 272 -14 q 107 165 142 79 q 72 371 72 251 q 107 578 72 493 q 208 708 142 664 q 371 753 275 753 q 528 701 467 753 q 618 563 590 650 q 672 662 639 619 q 753 728 706 704 q 864 753 801 753 m 368 685 q 206 603 258 685 q 153 371 153 522 q 176 200 153 271 q 246 91 199 129 q 365 53 293 53 q 486 91 439 53 q 556 200 533 129 q 579 368 579 271 q 558 538 579 468 q 490 647 536 608 q 368 685 443 685 m 863 686 q 721 622 775 686 q 658 425 667 557 l 1042 425 q 1023 560 1042 501 q 965 652 1004 618 q 863 686 925 686 z "},"Ŕ":{"ha":747,"x_min":126,"x_max":721,"o":"m 339 992 q 522 965 449 992 q 631 878 594 938 q 668 719 668 818 q 644 592 668 646 q 576 503 619 538 q 474 450 533 469 l 721 0 l 629 0 l 400 429 l 206 429 l 206 0 l 126 0 l 126 992 l 339 992 m 333 921 l 206 921 l 206 497 l 360 497 q 527 553 467 497 q 588 717 588 608 q 560 837 588 793 q 477 901 533 881 q 333 921 421 921 m 553 1304 q 515 1254 538 1282 q 465 1197 492 1226 q 410 1142 438 1168 q 358 1094 383 1115 l 307 1094 l 307 1108 q 363 1175 335 1139 q 417 1248 390 1211 q 461 1315 443 1285 l 553 1315 l 553 1304 z "},"ŕ":{"ha":490,"x_min":113,"x_max":472,"o":"m 386 751 q 431 749 408 751 q 472 739 453 746 l 460 665 q 423 674 442 671 q 382 678 404 678 q 302 656 338 678 q 241 597 267 635 q 202 509 215 560 q 189 399 189 458 l 189 0 l 113 0 l 113 739 l 175 739 l 185 597 l 189 597 q 233 674 206 639 q 299 731 260 710 q 386 751 338 751 m 446 1051 q 408 1001 431 1029 q 358 944 385 974 q 303 889 331 915 q 251 842 276 863 l 200 842 l 200 856 q 256 922 228 886 q 310 995 283 958 q 354 1063 336 1032 l 446 1063 l 446 1051 z "},"Ŗ":{"ha":747,"x_min":126,"x_max":721,"o":"m 339 992 q 522 965 449 992 q 631 878 594 938 q 668 719 668 818 q 644 592 668 646 q 576 503 619 538 q 474 450 533 469 l 721 0 l 629 0 l 400 429 l 206 429 l 206 0 l 126 0 l 126 992 l 339 992 m 333 921 l 206 921 l 206 497 l 360 497 q 527 553 467 497 q 588 717 588 608 q 560 837 588 793 q 477 901 533 881 q 333 921 421 921 m 460 -96 q 438 -165 451 -128 q 406 -240 424 -203 q 365 -307 388 -276 l 322 -307 l 322 -293 q 345 -233 333 -271 q 367 -154 357 -194 q 381 -85 376 -114 l 460 -85 l 460 -96 z "},"ŗ":{"ha":490,"x_min":82,"x_max":472,"o":"m 386 751 q 431 749 408 751 q 472 739 453 746 l 460 665 q 423 674 442 671 q 382 678 404 678 q 302 656 338 678 q 241 597 267 635 q 202 509 215 560 q 189 399 189 458 l 189 0 l 113 0 l 113 739 l 175 739 l 185 597 l 189 597 q 233 674 206 639 q 299 731 260 710 q 386 751 338 751 m 219 -96 q 197 -165 211 -128 q 165 -240 183 -203 q 125 -307 147 -276 l 82 -307 l 82 -293 q 105 -233 93 -271 q 126 -154 117 -194 q 140 -85 136 -114 l 219 -85 l 219 -96 z "},"Ř":{"ha":747,"x_min":126,"x_max":721,"o":"m 339 992 q 522 965 449 992 q 631 878 594 938 q 668 719 668 818 q 644 592 668 646 q 576 503 619 538 q 474 450 533 469 l 721 0 l 629 0 l 400 429 l 206 429 l 206 0 l 126 0 l 126 992 l 339 992 m 333 921 l 206 921 l 206 497 l 360 497 q 527 553 467 497 q 588 717 588 608 q 560 837 588 793 q 477 901 533 881 q 333 921 421 921 m 336 1094 q 293 1164 319 1126 q 238 1238 267 1201 q 186 1301 210 1275 l 186 1315 l 238 1315 q 307 1244 271 1285 q 374 1163 343 1203 q 440 1242 406 1204 q 511 1315 475 1279 l 564 1315 l 564 1301 q 511 1238 540 1275 q 455 1163 482 1200 q 411 1094 428 1126 l 336 1094 z "},"ř":{"ha":490,"x_min":78,"x_max":472,"o":"m 386 751 q 431 749 408 751 q 472 739 453 746 l 460 665 q 423 674 442 671 q 382 678 404 678 q 302 656 338 678 q 241 597 267 635 q 202 509 215 560 q 189 399 189 458 l 189 0 l 113 0 l 113 739 l 175 739 l 185 597 l 189 597 q 233 674 206 639 q 299 731 260 710 q 386 751 338 751 m 228 842 q 185 911 211 874 q 130 985 158 949 q 78 1049 101 1022 l 78 1063 l 129 1063 q 199 991 163 1032 q 265 910 235 950 q 332 989 297 951 q 403 1063 367 1026 l 456 1063 l 456 1049 q 403 985 432 1022 q 347 910 374 947 q 303 842 319 874 l 228 842 z "},"Ś":{"ha":685,"x_min":68,"x_max":619,"o":"m 619 260 q 581 111 619 172 q 472 18 542 50 q 310 -14 401 -14 q 216 -8 260 -14 q 135 6 172 -3 q 68 28 99 15 l 68 108 q 180 73 117 88 q 313 58 243 58 q 433 81 382 58 q 511 149 483 104 q 539 256 539 193 q 516 351 539 314 q 444 417 493 389 q 317 475 394 444 q 218 520 263 496 q 142 576 174 544 q 94 650 111 607 q 78 753 78 693 q 115 890 78 833 q 219 976 153 946 q 368 1006 285 1006 q 492 992 433 1006 q 600 956 551 979 l 574 886 q 469 922 522 911 q 367 933 417 933 q 257 913 304 933 q 184 852 210 892 q 158 754 158 813 q 183 655 158 693 q 254 590 207 617 q 368 536 301 564 q 504 471 449 506 q 590 387 560 436 q 619 260 619 338 m 528 1304 q 490 1254 513 1282 q 440 1197 467 1226 q 385 1142 413 1168 q 333 1094 358 1115 l 282 1094 l 282 1108 q 338 1175 310 1139 q 392 1248 365 1211 q 436 1315 418 1285 l 528 1315 l 528 1304 z "},"ś":{"ha":578,"x_min":57,"x_max":521,"o":"m 521 192 q 492 81 521 128 q 406 10 463 35 q 267 -14 349 -14 q 147 -1 200 -14 q 57 32 94 13 l 57 110 q 155 69 100 85 q 268 54 210 54 q 402 90 360 54 q 444 189 444 125 q 425 255 444 228 q 367 303 406 282 q 271 349 329 325 q 165 401 211 375 q 92 465 118 426 q 65 564 65 503 q 131 702 65 651 q 307 753 196 753 q 416 741 365 753 q 510 708 467 729 l 481 644 q 397 674 443 663 q 304 686 351 686 q 184 655 228 686 q 140 567 140 624 q 160 501 140 526 q 219 455 179 475 q 314 410 258 435 q 419 358 372 385 q 494 294 467 332 q 521 192 521 256 m 471 1051 q 433 1001 456 1029 q 383 944 410 974 q 328 889 356 915 q 276 842 301 863 l 225 842 l 225 856 q 281 922 253 886 q 335 995 308 958 q 379 1063 361 1032 l 471 1063 l 471 1051 z "},"Ŝ":{"ha":685,"x_min":68,"x_max":619,"o":"m 619 260 q 581 111 619 172 q 472 18 542 50 q 310 -14 401 -14 q 216 -8 260 -14 q 135 6 172 -3 q 68 28 99 15 l 68 108 q 180 73 117 88 q 313 58 243 58 q 433 81 382 58 q 511 149 483 104 q 539 256 539 193 q 516 351 539 314 q 444 417 493 389 q 317 475 394 444 q 218 520 263 496 q 142 576 174 544 q 94 650 111 607 q 78 753 78 693 q 115 890 78 833 q 219 976 153 946 q 368 1006 285 1006 q 492 992 433 1006 q 600 956 551 979 l 574 886 q 469 922 522 911 q 367 933 417 933 q 257 913 304 933 q 184 852 210 892 q 158 754 158 813 q 183 655 158 693 q 254 590 207 617 q 368 536 301 564 q 504 471 449 506 q 590 387 560 436 q 619 260 619 338 m 388 1315 q 431 1246 404 1285 q 488 1169 458 1207 q 539 1107 517 1132 l 539 1094 l 488 1094 q 417 1166 453 1125 q 349 1246 381 1207 q 281 1166 317 1207 q 211 1094 244 1125 l 160 1094 l 160 1107 q 212 1172 183 1135 q 267 1247 240 1210 q 311 1315 294 1285 l 388 1315 z "},"ŝ":{"ha":578,"x_min":57,"x_max":521,"o":"m 521 192 q 492 81 521 128 q 406 10 463 35 q 267 -14 349 -14 q 147 -1 200 -14 q 57 32 94 13 l 57 110 q 155 69 100 85 q 268 54 210 54 q 402 90 360 54 q 444 189 444 125 q 425 255 444 228 q 367 303 406 282 q 271 349 329 325 q 165 401 211 375 q 92 465 118 426 q 65 564 65 503 q 131 702 65 651 q 307 753 196 753 q 416 741 365 753 q 510 708 467 729 l 481 644 q 397 674 443 663 q 304 686 351 686 q 184 655 228 686 q 140 567 140 624 q 160 501 140 526 q 219 455 179 475 q 314 410 258 435 q 419 358 372 385 q 494 294 467 332 q 521 192 521 256 m 329 1063 q 373 993 346 1032 q 429 917 400 954 q 481 854 458 879 l 481 842 l 429 842 q 358 913 394 872 q 290 993 322 954 q 222 913 258 954 q 153 842 186 872 l 101 842 l 101 854 q 153 919 125 882 q 209 994 182 957 q 253 1063 236 1032 l 329 1063 z "},"Ş":{"ha":685,"x_min":68,"x_max":619,"o":"m 619 260 q 581 111 619 172 q 472 18 542 50 q 310 -14 401 -14 q 216 -8 260 -14 q 135 6 172 -3 q 68 28 99 15 l 68 108 q 180 73 117 88 q 313 58 243 58 q 433 81 382 58 q 511 149 483 104 q 539 256 539 193 q 516 351 539 314 q 444 417 493 389 q 317 475 394 444 q 218 520 263 496 q 142 576 174 544 q 94 650 111 607 q 78 753 78 693 q 115 890 78 833 q 219 976 153 946 q 368 1006 285 1006 q 492 992 433 1006 q 600 956 551 979 l 574 886 q 469 922 522 911 q 367 933 417 933 q 257 913 304 933 q 184 852 210 892 q 158 754 158 813 q 183 655 158 693 q 254 590 207 617 q 368 536 301 564 q 504 471 449 506 q 590 387 560 436 q 619 260 619 338 m 456 -197 q 410 -297 456 -260 q 282 -333 364 -333 q 241 -331 260 -333 q 210 -325 222 -329 l 210 -271 q 242 -277 224 -275 q 281 -279 260 -279 q 359 -259 329 -279 q 389 -199 389 -239 q 355 -138 389 -157 q 261 -115 321 -119 l 317 0 l 372 0 l 333 -81 q 398 -100 371 -85 q 440 -139 425 -115 q 456 -197 456 -162 z "},"ş":{"ha":578,"x_min":57,"x_max":521,"o":"m 521 192 q 492 81 521 128 q 406 10 463 35 q 267 -14 349 -14 q 147 -1 200 -14 q 57 32 94 13 l 57 110 q 155 69 100 85 q 268 54 210 54 q 402 90 360 54 q 444 189 444 125 q 425 255 444 228 q 367 303 406 282 q 271 349 329 325 q 165 401 211 375 q 92 465 118 426 q 65 564 65 503 q 131 702 65 651 q 307 753 196 753 q 416 741 365 753 q 510 708 467 729 l 481 644 q 397 674 443 663 q 304 686 351 686 q 184 655 228 686 q 140 567 140 624 q 160 501 140 526 q 219 455 179 475 q 314 410 258 435 q 419 358 372 385 q 494 294 467 332 q 521 192 521 256 m 410 -197 q 364 -297 410 -260 q 236 -333 318 -333 q 195 -331 214 -333 q 164 -325 176 -329 l 164 -271 q 196 -277 178 -275 q 235 -279 214 -279 q 313 -259 283 -279 q 343 -199 343 -239 q 309 -138 343 -157 q 215 -115 275 -119 l 271 0 l 326 0 l 288 -81 q 352 -100 325 -85 q 394 -139 379 -115 q 410 -197 410 -162 z "},"Š":{"ha":685,"x_min":68,"x_max":619,"o":"m 619 260 q 581 111 619 172 q 472 18 542 50 q 310 -14 401 -14 q 216 -8 260 -14 q 135 6 172 -3 q 68 28 99 15 l 68 108 q 180 73 117 88 q 313 58 243 58 q 433 81 382 58 q 511 149 483 104 q 539 256 539 193 q 516 351 539 314 q 444 417 493 389 q 317 475 394 444 q 218 520 263 496 q 142 576 174 544 q 94 650 111 607 q 78 753 78 693 q 115 890 78 833 q 219 976 153 946 q 368 1006 285 1006 q 492 992 433 1006 q 600 956 551 979 l 574 886 q 469 922 522 911 q 367 933 417 933 q 257 913 304 933 q 184 852 210 892 q 158 754 158 813 q 183 655 158 693 q 254 590 207 617 q 368 536 301 564 q 504 471 449 506 q 590 387 560 436 q 619 260 619 338 m 311 1094 q 268 1164 294 1126 q 213 1238 242 1201 q 161 1301 185 1275 l 161 1315 l 213 1315 q 282 1244 246 1285 q 349 1163 318 1203 q 415 1242 381 1204 q 486 1315 450 1279 l 539 1315 l 539 1301 q 486 1238 515 1275 q 430 1163 457 1200 q 386 1094 403 1126 l 311 1094 z "},"š":{"ha":578,"x_min":57,"x_max":521,"o":"m 521 192 q 492 81 521 128 q 406 10 463 35 q 267 -14 349 -14 q 147 -1 200 -14 q 57 32 94 13 l 57 110 q 155 69 100 85 q 268 54 210 54 q 402 90 360 54 q 444 189 444 125 q 425 255 444 228 q 367 303 406 282 q 271 349 329 325 q 165 401 211 375 q 92 465 118 426 q 65 564 65 503 q 131 702 65 651 q 307 753 196 753 q 416 741 365 753 q 510 708 467 729 l 481 644 q 397 674 443 663 q 304 686 351 686 q 184 655 228 686 q 140 567 140 624 q 160 501 140 526 q 219 455 179 475 q 314 410 258 435 q 419 358 372 385 q 494 294 467 332 q 521 192 521 256 m 253 842 q 210 911 236 874 q 155 985 183 949 q 103 1049 126 1022 l 103 1063 l 154 1063 q 224 991 188 1032 q 290 910 260 950 q 357 989 322 951 q 428 1063 392 1026 l 481 1063 l 481 1049 q 428 985 457 1022 q 372 910 399 947 q 328 842 344 874 l 253 842 z "},"Ț":{"ha":649,"x_min":10,"x_max":639,"o":"m 364 0 l 285 0 l 285 921 l 10 921 l 10 992 l 639 992 l 639 921 l 364 921 l 364 0 m 394 -96 q 372 -165 386 -128 q 340 -240 358 -203 q 300 -307 322 -276 l 257 -307 l 257 -293 q 280 -233 268 -271 q 301 -154 292 -194 q 315 -85 311 -114 l 394 -85 l 394 -96 z "},"ț":{"ha":418,"x_min":21,"x_max":389,"o":"m 297 53 q 347 58 324 53 q 389 69 371 63 l 389 6 q 342 -8 368 -3 q 283 -14 315 -14 q 190 8 228 -14 q 134 76 153 31 q 115 193 115 121 l 115 675 l 21 675 l 21 718 l 117 743 l 142 914 l 193 914 l 193 739 l 385 739 l 385 675 l 193 675 l 193 196 q 217 89 193 125 q 297 53 242 53 m 322 -96 q 300 -165 314 -128 q 268 -240 286 -203 q 228 -307 250 -276 l 185 -307 l 185 -293 q 208 -233 196 -271 q 229 -154 219 -194 q 243 -85 239 -114 l 322 -85 l 322 -96 z "},"Ť":{"ha":649,"x_min":10,"x_max":639,"o":"m 364 0 l 285 0 l 285 921 l 10 921 l 10 992 l 639 992 l 639 921 l 364 921 l 364 0 m 286 1094 q 243 1164 269 1126 q 188 1238 217 1201 q 136 1301 160 1275 l 136 1315 l 188 1315 q 257 1244 221 1285 q 324 1163 293 1203 q 390 1242 356 1204 q 461 1315 425 1279 l 514 1315 l 514 1301 q 461 1238 490 1275 q 405 1163 432 1200 q 361 1094 378 1126 l 286 1094 z "},"ť":{"ha":418,"x_min":21,"x_max":524,"o":"m 524 1044 q 503 976 517 1015 q 474 899 490 938 q 438 832 457 861 l 394 832 l 394 847 q 408 888 401 861 q 422 947 415 915 q 435 1007 429 978 q 442 1056 440 1036 l 524 1056 l 524 1044 m 297 53 q 347 58 324 53 q 389 69 371 63 l 389 6 q 342 -8 368 -3 q 283 -14 315 -14 q 190 8 228 -14 q 134 76 153 31 q 115 193 115 121 l 115 675 l 21 675 l 21 718 l 117 743 l 142 914 l 193 914 l 193 739 l 385 739 l 385 675 l 193 675 l 193 196 q 217 89 193 125 q 297 53 242 53 z "},"Ŧ":{"ha":649,"x_min":10,"x_max":639,"o":"m 285 0 l 285 474 l 78 474 l 78 542 l 285 542 l 285 919 l 10 919 l 10 992 l 639 992 l 639 919 l 363 919 l 363 542 l 569 542 l 569 474 l 363 474 l 363 0 l 285 0 z "},"ŧ":{"ha":418,"x_min":21,"x_max":389,"o":"m 29 390 l 29 453 l 372 453 l 372 390 l 29 390 m 297 53 q 347 58 324 53 q 389 69 371 63 l 389 6 q 342 -8 368 -3 q 283 -14 315 -14 q 190 8 228 -14 q 134 76 153 31 q 115 193 115 121 l 115 675 l 21 675 l 21 718 l 117 743 l 142 914 l 193 914 l 193 739 l 385 739 l 385 675 l 193 675 l 193 196 q 217 89 193 125 q 297 53 242 53 z "},"Ũ":{"ha":892,"x_min":117,"x_max":775,"o":"m 775 333 q 735 142 775 219 q 622 26 696 65 q 444 -14 549 -14 q 201 76 286 -14 q 117 336 117 165 l 117 992 l 196 992 l 196 336 q 260 126 196 196 q 447 57 325 57 q 582 88 526 57 q 667 179 638 118 q 696 331 696 240 l 696 992 l 775 992 l 775 333 m 224 1103 q 236 1167 226 1139 q 262 1215 246 1194 q 300 1245 278 1235 q 350 1256 322 1256 q 406 1242 381 1256 q 454 1210 432 1228 q 499 1180 476 1193 q 544 1167 521 1167 q 592 1188 572 1167 q 618 1256 611 1208 l 669 1256 q 630 1142 664 1182 q 543 1103 596 1103 q 488 1116 513 1103 q 440 1147 463 1129 q 394 1178 417 1165 q 349 1192 372 1192 q 302 1171 321 1192 q 275 1103 283 1150 l 224 1103 z "},"ũ":{"ha":744,"x_min":104,"x_max":632,"o":"m 632 739 l 632 0 l 569 0 l 558 126 l 554 126 q 507 56 538 88 q 433 5 476 24 q 332 -14 390 -14 q 205 16 256 -14 q 129 104 154 46 q 104 250 104 163 l 104 739 l 182 739 l 182 260 q 222 104 182 154 q 342 54 263 54 q 460 85 413 54 q 531 178 507 117 q 554 335 554 240 l 554 739 l 632 739 m 150 850 q 163 914 153 886 q 188 962 172 942 q 226 992 204 982 q 276 1003 249 1003 q 333 989 307 1003 q 381 958 358 975 q 425 927 403 940 q 471 914 447 914 q 518 935 499 914 q 544 1003 538 956 l 596 1003 q 556 890 590 929 q 469 850 522 850 q 414 863 439 850 q 366 894 389 876 q 321 926 343 913 q 275 939 299 939 q 228 918 247 939 q 201 850 210 897 l 150 850 z "},"Ū":{"ha":892,"x_min":117,"x_max":775,"o":"m 775 333 q 735 142 775 219 q 622 26 696 65 q 444 -14 549 -14 q 201 76 286 -14 q 117 336 117 165 l 117 992 l 196 992 l 196 336 q 260 126 196 196 q 447 57 325 57 q 582 88 526 57 q 667 179 638 118 q 696 331 696 240 l 696 992 l 775 992 l 775 333 m 624 1167 l 624 1103 l 268 1103 l 268 1167 l 624 1167 z "},"ū":{"ha":744,"x_min":104,"x_max":632,"o":"m 632 739 l 632 0 l 569 0 l 558 126 l 554 126 q 507 56 538 88 q 433 5 476 24 q 332 -14 390 -14 q 205 16 256 -14 q 129 104 154 46 q 104 250 104 163 l 104 739 l 182 739 l 182 260 q 222 104 182 154 q 342 54 263 54 q 460 85 413 54 q 531 178 507 117 q 554 335 554 240 l 554 739 l 632 739 m 550 914 l 550 850 l 194 850 l 194 914 l 550 914 z "},"Ŭ":{"ha":892,"x_min":117,"x_max":775,"o":"m 775 333 q 735 142 775 219 q 622 26 696 65 q 444 -14 549 -14 q 201 76 286 -14 q 117 336 117 165 l 117 992 l 196 992 l 196 336 q 260 126 196 196 q 447 57 325 57 q 582 88 526 57 q 667 179 638 118 q 696 331 696 240 l 696 992 l 775 992 l 775 333 m 624 1264 q 598 1175 621 1213 q 536 1117 575 1138 q 443 1096 497 1096 q 317 1140 363 1096 q 267 1264 272 1183 l 321 1264 q 339 1206 324 1229 q 381 1171 354 1182 q 444 1160 408 1160 q 508 1172 482 1160 q 551 1206 535 1183 q 569 1264 567 1229 l 624 1264 z "},"ŭ":{"ha":744,"x_min":104,"x_max":632,"o":"m 632 739 l 632 0 l 569 0 l 558 126 l 554 126 q 507 56 538 88 q 433 5 476 24 q 332 -14 390 -14 q 205 16 256 -14 q 129 104 154 46 q 104 250 104 163 l 104 739 l 182 739 l 182 260 q 222 104 182 154 q 342 54 263 54 q 460 85 413 54 q 531 178 507 117 q 554 335 554 240 l 554 739 l 632 739 m 551 1011 q 526 922 549 960 q 464 864 503 885 q 371 843 425 843 q 245 887 290 843 q 194 1011 200 931 l 249 1011 q 267 953 251 976 q 309 918 282 929 q 372 907 336 907 q 436 919 410 907 q 478 953 463 931 q 497 1011 494 976 l 551 1011 z "},"Ů":{"ha":892,"x_min":117,"x_max":775,"o":"m 775 333 q 735 142 775 219 q 622 26 696 65 q 444 -14 549 -14 q 201 76 286 -14 q 117 336 117 165 l 117 992 l 196 992 l 196 336 q 260 126 196 196 q 447 57 325 57 q 582 88 526 57 q 667 179 638 118 q 696 331 696 240 l 696 992 l 775 992 l 775 333 m 446 1100 q 344 1138 385 1100 q 304 1238 304 1175 q 344 1339 304 1301 q 446 1376 383 1376 q 547 1338 506 1376 q 588 1239 588 1300 q 547 1138 588 1175 q 446 1100 507 1100 m 446 1151 q 509 1176 485 1151 q 533 1238 533 1200 q 508 1301 533 1276 q 446 1326 483 1326 q 382 1301 407 1326 q 357 1238 357 1276 q 381 1176 357 1200 q 446 1151 404 1151 z "},"ů":{"ha":744,"x_min":104,"x_max":632,"o":"m 632 739 l 632 0 l 569 0 l 558 126 l 554 126 q 507 56 538 88 q 433 5 476 24 q 332 -14 390 -14 q 205 16 256 -14 q 129 104 154 46 q 104 250 104 163 l 104 739 l 182 739 l 182 260 q 222 104 182 154 q 342 54 263 54 q 460 85 413 54 q 531 178 507 117 q 554 335 554 240 l 554 739 l 632 739 m 372 847 q 271 885 311 847 q 231 985 231 922 q 270 1086 231 1049 q 372 1124 310 1124 q 473 1085 432 1124 q 514 986 514 1047 q 474 885 514 922 q 372 847 433 847 m 372 899 q 435 923 411 899 q 460 985 460 947 q 435 1049 460 1024 q 372 1074 410 1074 q 308 1049 333 1074 q 283 985 283 1024 q 307 923 283 947 q 372 899 331 899 z "},"Ű":{"ha":892,"x_min":117,"x_max":775,"o":"m 775 333 q 735 142 775 219 q 622 26 696 65 q 444 -14 549 -14 q 201 76 286 -14 q 117 336 117 165 l 117 992 l 196 992 l 196 336 q 260 126 196 196 q 447 57 325 57 q 582 88 526 57 q 667 179 638 118 q 696 331 696 240 l 696 992 l 775 992 l 775 333 m 658 1306 q 627 1257 647 1285 q 583 1199 607 1229 q 535 1142 560 1169 q 489 1094 510 1115 l 443 1094 l 443 1107 q 490 1173 465 1135 q 538 1250 515 1211 q 575 1317 561 1289 l 658 1317 l 658 1306 m 447 1306 q 415 1257 435 1285 q 372 1199 396 1229 q 323 1142 347 1169 q 276 1094 299 1115 l 231 1094 l 231 1107 q 278 1174 253 1136 q 326 1251 303 1213 q 363 1317 349 1289 l 447 1317 l 447 1306 z "},"ű":{"ha":744,"x_min":104,"x_max":632,"o":"m 632 739 l 632 0 l 569 0 l 558 126 l 554 126 q 507 56 538 88 q 433 5 476 24 q 332 -14 390 -14 q 205 16 256 -14 q 129 104 154 46 q 104 250 104 163 l 104 739 l 182 739 l 182 260 q 222 104 182 154 q 342 54 263 54 q 460 85 413 54 q 531 178 507 117 q 554 335 554 240 l 554 739 l 632 739 m 585 1053 q 553 1004 574 1032 q 510 947 533 976 q 461 890 486 917 q 415 842 436 863 l 369 842 l 369 854 q 417 920 392 882 q 465 997 442 958 q 501 1064 488 1036 l 585 1064 l 585 1053 m 374 1053 q 342 1004 361 1032 q 298 947 322 976 q 249 890 274 917 q 203 842 225 863 l 157 842 l 157 854 q 204 922 179 883 q 252 998 229 960 q 289 1064 275 1036 l 374 1064 l 374 1053 z "},"Ų":{"ha":892,"x_min":117,"x_max":775,"o":"m 536 -167 q 554 -227 536 -208 q 607 -246 572 -246 q 641 -243 625 -246 q 667 -237 657 -240 l 667 -293 q 635 -301 653 -299 q 594 -304 617 -304 q 503 -273 536 -304 q 469 -176 469 -242 q 488 -94 469 -133 q 537 -19 507 -54 q 600 43 567 15 l 665 57 q 599 -19 628 18 q 553 -92 569 -56 q 536 -167 536 -128 m 775 333 q 735 142 775 219 q 622 26 696 65 q 444 -14 549 -14 q 201 76 286 -14 q 117 336 117 165 l 117 992 l 196 992 l 196 336 q 260 126 196 196 q 447 57 325 57 q 582 88 526 57 q 667 179 638 118 q 696 331 696 240 l 696 992 l 775 992 l 775 333 z "},"ų":{"ha":744,"x_min":104,"x_max":643,"o":"m 632 739 l 632 0 l 569 0 l 558 126 l 554 126 q 507 56 538 88 q 433 5 476 24 q 332 -14 390 -14 q 205 16 256 -14 q 129 104 154 46 q 104 250 104 163 l 104 739 l 182 739 l 182 260 q 222 104 182 154 q 342 54 263 54 q 460 85 413 54 q 531 178 507 117 q 554 335 554 240 l 554 739 l 632 739 m 515 -174 q 533 -228 515 -208 q 583 -247 550 -247 q 618 -244 603 -247 q 643 -237 633 -240 l 643 -293 q 612 -301 629 -299 q 572 -304 594 -304 q 481 -273 514 -304 q 449 -183 449 -242 q 465 -112 449 -147 q 509 -44 481 -76 q 575 17 538 -11 l 621 0 q 544 -85 572 -44 q 515 -174 515 -126 z "},"Ŵ":{"ha":1139,"x_min":22,"x_max":1118,"o":"m 1118 992 l 871 0 l 785 0 l 601 721 q 591 763 596 742 q 582 804 586 783 q 574 845 578 825 q 567 885 569 865 q 561 849 564 867 q 554 811 558 831 q 545 772 550 792 q 535 729 540 751 l 353 0 l 268 0 l 22 992 l 104 992 l 271 306 q 284 247 278 275 q 295 194 290 219 q 305 145 300 168 q 313 103 310 122 q 322 153 317 128 q 332 206 326 179 q 344 258 338 232 q 356 308 350 283 l 528 992 l 607 992 l 782 306 q 795 251 789 278 q 806 200 801 225 q 816 150 811 175 q 825 100 821 125 q 836 167 831 133 q 850 235 842 200 q 867 306 858 269 l 1036 992 l 1118 992 m 608 1315 q 652 1246 625 1285 q 708 1169 679 1207 q 760 1107 738 1132 l 760 1094 l 708 1094 q 638 1166 674 1125 q 569 1246 601 1207 q 501 1166 538 1207 q 432 1094 465 1125 l 381 1094 l 381 1107 q 433 1172 404 1135 q 488 1247 461 1210 q 532 1315 515 1285 l 608 1315 z "},"ŵ":{"ha":932,"x_min":17,"x_max":915,"o":"m 510 486 q 499 528 504 507 q 488 569 493 550 q 479 608 483 589 q 471 643 475 626 l 468 643 q 460 607 464 626 q 451 567 456 588 q 442 527 447 547 q 431 486 436 507 l 293 0 l 208 0 l 17 739 l 96 739 l 210 288 q 227 216 219 250 q 241 152 235 182 q 251 96 247 122 l 256 96 q 264 134 260 113 q 273 179 268 156 q 285 228 278 203 q 299 281 292 254 l 431 739 l 513 739 l 639 279 q 656 217 647 249 q 671 156 664 186 q 682 96 678 125 l 686 96 q 694 147 689 121 q 707 204 700 174 q 722 271 714 235 l 838 739 l 915 739 l 728 0 l 642 0 l 510 486 m 504 1063 q 548 993 521 1032 q 604 917 575 954 q 656 854 633 879 l 656 842 l 604 842 q 533 913 569 872 q 465 993 497 954 q 397 913 433 954 q 328 842 361 872 l 276 842 l 276 854 q 328 919 300 882 q 384 994 357 957 q 428 1063 411 1032 l 504 1063 z "},"Ŷ":{"ha":651,"x_min":0,"x_max":651,"o":"m 326 468 l 565 992 l 651 992 l 365 385 l 365 0 l 288 0 l 288 381 l 0 992 l 86 992 l 326 468 m 364 1315 q 408 1246 381 1285 q 464 1169 435 1207 q 515 1107 493 1132 l 515 1094 l 464 1094 q 393 1166 429 1125 q 325 1246 357 1207 q 257 1166 293 1207 q 188 1094 221 1125 l 136 1094 l 136 1107 q 188 1172 160 1135 q 244 1247 217 1210 q 288 1315 271 1285 l 364 1315 z "},"ŷ":{"ha":588,"x_min":7,"x_max":585,"o":"m 7 739 l 89 739 l 243 272 q 265 203 256 233 q 283 146 275 172 q 294 97 290 119 l 299 97 q 322 176 308 132 q 351 271 335 221 l 503 739 l 585 739 l 292 -136 q 242 -246 269 -201 q 176 -312 214 -290 q 86 -335 138 -335 q 45 -332 64 -335 q 8 -324 26 -329 l 8 -256 q 41 -263 24 -260 q 76 -267 58 -267 q 135 -253 110 -267 q 179 -207 160 -239 q 215 -125 199 -175 l 260 6 l 7 739 m 332 1063 q 376 993 349 1032 q 432 917 403 954 q 483 854 461 879 l 483 842 l 432 842 q 361 913 397 872 q 293 993 325 954 q 225 913 261 954 q 156 842 189 872 l 104 842 l 104 854 q 156 919 128 882 q 212 994 185 957 q 256 1063 239 1032 l 332 1063 z "},"Ÿ":{"ha":651,"x_min":0,"x_max":651,"o":"m 326 468 l 565 992 l 651 992 l 365 385 l 365 0 l 288 0 l 288 381 l 0 992 l 86 992 l 326 468 m 157 1189 q 170 1231 157 1217 q 206 1246 183 1246 q 240 1231 228 1246 q 253 1189 253 1217 q 240 1147 253 1163 q 206 1132 228 1132 q 170 1147 183 1132 q 157 1189 157 1163 m 399 1189 q 412 1231 399 1217 q 446 1246 425 1246 q 482 1231 469 1246 q 494 1190 494 1217 q 482 1147 494 1163 q 446 1132 469 1132 q 411 1147 424 1132 q 399 1189 399 1163 z "},"Ź":{"ha":681,"x_min":46,"x_max":635,"o":"m 635 0 l 46 0 l 46 61 l 528 919 l 68 919 l 68 992 l 622 992 l 622 931 l 140 72 l 635 72 l 635 0 m 521 1304 q 483 1254 506 1282 q 433 1197 460 1226 q 378 1142 406 1168 q 326 1094 351 1115 l 275 1094 l 275 1108 q 331 1175 303 1139 q 385 1248 358 1211 q 429 1315 411 1285 l 521 1315 l 521 1304 z "},"ź":{"ha":550,"x_min":49,"x_max":503,"o":"m 503 0 l 49 0 l 49 53 l 410 674 l 75 674 l 75 739 l 499 739 l 499 682 l 139 65 l 503 65 l 503 0 m 456 1051 q 417 1001 440 1029 q 367 944 394 974 q 313 889 340 915 q 261 842 286 863 l 210 842 l 210 856 q 265 922 238 886 q 319 995 293 958 q 364 1063 346 1032 l 456 1063 l 456 1051 z "},"Ż":{"ha":681,"x_min":46,"x_max":635,"o":"m 635 0 l 46 0 l 46 61 l 528 919 l 68 919 l 68 992 l 622 992 l 622 931 l 140 72 l 635 72 l 635 0 m 343 1267 q 383 1250 369 1267 q 396 1206 396 1233 q 382 1160 396 1176 q 343 1143 368 1143 q 304 1160 318 1143 q 290 1206 290 1176 q 303 1250 290 1233 q 343 1267 317 1267 z "},"ż":{"ha":550,"x_min":49,"x_max":503,"o":"m 503 0 l 49 0 l 49 53 l 410 674 l 75 674 l 75 739 l 499 739 l 499 682 l 139 65 l 503 65 l 503 0 m 278 1014 q 317 997 304 1014 q 331 953 331 981 q 317 907 331 924 q 278 890 303 890 q 239 907 253 890 q 225 953 225 924 q 238 997 225 981 q 278 1014 251 1014 z "},"Ž":{"ha":681,"x_min":46,"x_max":635,"o":"m 635 0 l 46 0 l 46 61 l 528 919 l 68 919 l 68 992 l 622 992 l 622 931 l 140 72 l 635 72 l 635 0 m 303 1094 q 260 1164 286 1126 q 205 1238 233 1201 q 153 1301 176 1275 l 153 1315 l 204 1315 q 274 1244 238 1285 q 340 1163 310 1203 q 407 1242 372 1204 q 478 1315 442 1279 l 531 1315 l 531 1301 q 478 1238 507 1275 q 422 1163 449 1200 q 378 1094 394 1126 l 303 1094 z "},"ž":{"ha":550,"x_min":49,"x_max":503,"o":"m 503 0 l 49 0 l 49 53 l 410 674 l 75 674 l 75 739 l 499 739 l 499 682 l 139 65 l 503 65 l 503 0 m 238 842 q 194 911 221 874 q 140 985 168 949 q 88 1049 111 1022 l 88 1063 l 139 1063 q 208 991 172 1032 q 275 910 244 950 q 342 989 307 951 q 413 1063 376 1026 l 465 1063 l 465 1049 q 413 985 442 1022 q 356 910 383 947 q 313 842 329 874 l 238 842 z "},"ſ":{"ha":374,"x_min":114,"x_max":421,"o":"m 317 996 q 222 951 254 996 q 190 804 190 906 l 190 0 l 114 0 l 114 806 q 136 947 114 890 q 203 1033 158 1004 q 315 1063 247 1063 q 372 1058 346 1063 q 421 1044 397 1053 l 403 981 q 362 991 383 986 q 317 996 340 996 z "},"ƒ":{"ha":522,"x_min":-7,"x_max":582,"o":"m 172 -335 q 40 -287 88 -335 q -7 -157 -7 -240 q -4 -122 -7 -139 q 3 -93 -1 -106 l 71 -108 q 67 -127 69 -115 q 65 -156 65 -139 q 91 -238 65 -208 q 165 -268 117 -268 q 242 -233 214 -268 q 269 -128 269 -199 l 269 675 l 149 675 l 149 718 l 269 742 l 269 815 q 290 953 269 899 q 353 1035 310 1008 q 465 1063 397 1063 q 528 1056 500 1063 q 582 1042 557 1050 l 563 978 q 517 991 542 986 q 468 996 492 996 q 375 954 403 996 q 347 815 347 913 l 347 739 l 500 739 l 500 675 l 347 675 l 347 -125 q 327 -236 347 -189 q 268 -309 307 -283 q 172 -335 229 -335 z "},"Ǻ":{"ha":746,"x_min":-4,"x_max":749,"o":"m 322 835 q 256 878 282 846 q 231 961 231 911 q 271 1063 231 1025 q 374 1100 311 1100 q 476 1063 436 1100 q 517 961 517 1025 q 492 880 517 913 q 426 835 468 847 l 749 0 l 665 0 l 553 292 l 193 292 l 81 0 l -4 0 l 322 835 m 217 364 l 529 364 l 410 688 q 397 724 403 706 q 385 762 390 743 q 374 799 379 781 q 366 772 371 785 q 357 745 361 758 q 349 719 353 732 q 340 694 344 706 l 217 364 m 374 869 q 439 894 414 869 q 464 961 464 918 q 440 1027 464 1003 q 374 1051 415 1051 q 307 1027 332 1051 q 282 961 282 1003 q 307 894 282 919 q 374 869 332 869 m 324 1151 q 378 1214 353 1183 q 424 1274 403 1244 q 463 1332 446 1304 l 556 1332 l 556 1322 q 520 1278 540 1301 q 476 1229 500 1254 q 426 1181 451 1204 q 376 1139 400 1158 l 324 1139 l 324 1151 z "},"ǻ":{"ha":669,"x_min":60,"x_max":565,"o":"m 342 751 q 511 691 457 751 q 565 497 565 631 l 565 0 l 506 0 l 493 121 l 490 121 q 439 51 468 82 q 367 3 410 21 q 265 -14 325 -14 q 153 12 200 -14 q 83 84 107 38 q 60 193 60 131 q 140 362 60 304 q 372 428 219 419 l 489 435 l 489 489 q 451 642 489 597 q 336 686 413 686 q 244 673 290 686 q 151 635 199 660 l 126 696 q 228 737 174 722 q 342 751 283 751 m 381 369 q 200 319 260 363 q 140 193 140 276 q 178 88 140 124 q 281 51 215 51 q 435 118 382 51 q 489 301 488 185 l 489 375 l 381 369 m 344 1040 q 281 1016 306 1040 q 256 953 256 992 q 279 890 256 915 q 344 865 303 865 q 409 890 385 865 q 433 953 433 914 q 408 1016 433 992 q 344 1040 383 1040 m 344 1090 q 417 1073 385 1090 q 467 1025 449 1056 q 486 953 486 994 q 446 851 486 889 q 344 814 406 814 q 244 851 285 814 q 203 953 203 889 q 243 1053 203 1015 q 344 1090 283 1090 m 525 1307 q 472 1249 506 1282 q 401 1186 438 1217 q 335 1132 365 1156 l 281 1132 l 281 1144 q 332 1201 307 1172 q 380 1260 357 1231 q 421 1317 403 1290 l 525 1317 l 525 1307 z "},"Ǽ":{"ha":1025,"x_min":-1,"x_max":969,"o":"m 969 0 l 489 0 l 489 344 l 217 344 l 83 0 l -1 0 l 389 992 l 969 992 l 969 921 l 568 921 l 568 556 l 946 556 l 946 485 l 568 485 l 568 71 l 969 71 l 969 0 m 244 417 l 489 417 l 489 919 l 439 919 l 244 417 m 717 1304 q 678 1254 701 1282 q 628 1197 656 1226 q 574 1142 601 1168 q 522 1094 547 1115 l 471 1094 l 471 1108 q 526 1175 499 1139 q 581 1248 554 1211 q 625 1315 607 1285 l 717 1315 l 717 1304 z "},"ǽ":{"ha":1074,"x_min":60,"x_max":1003,"o":"m 751 753 q 892 708 836 753 q 975 589 947 664 q 1001 418 1003 514 l 1001 363 l 556 363 q 615 132 557 210 q 775 54 672 54 q 876 65 829 54 q 974 103 922 76 l 974 32 q 878 -2 926 10 q 772 -14 829 -14 q 656 9 707 -14 q 571 73 606 32 q 515 168 536 114 q 461 72 494 113 q 381 8 428 31 q 268 -14 333 -14 q 155 12 201 -14 q 84 84 108 38 q 60 193 60 131 q 95 318 60 268 q 199 395 131 368 q 365 428 268 422 l 478 433 l 478 496 q 440 642 478 597 q 331 686 401 686 q 240 674 286 686 q 146 635 193 661 l 121 697 q 222 736 165 721 q 335 751 278 751 q 465 714 417 751 q 532 594 514 676 q 617 709 561 665 q 751 753 672 753 m 376 368 q 199 319 257 363 q 140 193 140 276 q 176 88 140 125 q 279 51 213 51 q 387 81 343 51 q 453 164 431 110 q 478 290 476 218 l 478 374 l 376 368 m 751 686 q 618 620 671 686 q 558 426 565 554 l 924 426 q 905 561 924 503 q 848 653 886 619 q 751 686 810 686 m 721 1051 q 683 1001 706 1029 q 633 944 660 974 q 578 889 606 915 q 526 842 551 863 l 475 842 l 475 856 q 531 922 503 886 q 585 995 558 958 q 629 1063 611 1032 l 721 1063 l 721 1051 z "},"Ǿ":{"ha":953,"x_min":88,"x_max":869,"o":"m 869 497 q 846 291 869 385 q 774 128 822 197 q 652 23 725 60 q 479 -14 579 -14 q 344 8 404 -14 q 240 71 285 31 l 161 -53 l 107 -19 l 193 117 q 113 283 139 186 q 88 499 88 381 q 132 770 88 657 q 265 945 176 883 q 482 1007 353 1007 q 611 985 553 1007 q 715 925 669 964 l 786 1038 l 840 1003 l 763 879 q 842 716 815 813 q 869 497 869 619 m 788 497 q 715 804 788 694 l 281 136 q 367 77 318 97 q 479 57 417 57 q 653 110 585 57 q 754 261 721 163 q 788 497 788 360 m 169 497 q 187 325 169 403 q 239 192 204 247 l 675 860 q 590 916 639 897 q 482 935 542 935 q 307 882 376 935 q 203 731 238 829 q 169 497 169 633 m 656 1304 q 617 1254 640 1282 q 567 1197 594 1226 q 513 1142 540 1168 q 461 1094 486 1115 l 410 1094 l 410 1108 q 465 1175 438 1139 q 519 1248 493 1211 q 564 1315 546 1285 l 656 1315 l 656 1304 z "},"ǿ":{"ha":744,"x_min":71,"x_max":669,"o":"m 669 371 q 635 165 669 251 q 535 32 601 78 q 374 -14 469 -14 q 274 3 318 -14 q 196 50 231 19 l 122 -64 l 71 -31 l 153 96 q 98 215 117 146 q 79 371 79 285 q 158 653 79 554 q 376 753 236 753 q 474 737 431 753 q 550 692 517 721 l 615 792 l 667 758 l 594 647 q 651 527 632 597 q 669 371 669 457 m 158 371 q 168 256 158 308 q 197 165 178 204 l 513 632 q 453 672 488 658 q 376 685 419 685 q 212 603 265 685 q 158 371 158 521 m 590 371 q 581 485 590 433 q 550 576 571 538 l 235 110 q 295 68 260 83 q 374 53 331 53 q 497 91 449 53 q 567 201 544 129 q 590 371 590 272 m 551 1051 q 513 1001 536 1029 q 463 944 490 974 q 409 889 436 915 q 357 842 382 863 l 306 842 l 306 856 q 361 922 333 886 q 415 995 389 958 q 460 1063 442 1032 l 551 1063 l 551 1051 z "},"Ș":{"ha":685,"x_min":68,"x_max":619,"o":"m 619 260 q 581 111 619 172 q 472 18 542 50 q 310 -14 401 -14 q 216 -8 260 -14 q 135 6 172 -3 q 68 28 99 15 l 68 108 q 180 73 117 88 q 313 58 243 58 q 433 81 382 58 q 511 149 483 104 q 539 256 539 193 q 516 351 539 314 q 444 417 493 389 q 317 475 394 444 q 218 520 263 496 q 142 576 174 544 q 94 650 111 607 q 78 753 78 693 q 115 890 78 833 q 219 976 153 946 q 368 1006 285 1006 q 492 992 433 1006 q 600 956 551 979 l 574 886 q 469 922 522 911 q 367 933 417 933 q 257 913 304 933 q 184 852 210 892 q 158 754 158 813 q 183 655 158 693 q 254 590 207 617 q 368 536 301 564 q 504 471 449 506 q 590 387 560 436 q 619 260 619 338 m 401 -96 q 379 -165 393 -128 q 347 -240 365 -203 q 307 -307 329 -276 l 264 -307 l 264 -293 q 287 -233 275 -271 q 308 -154 299 -194 q 322 -85 318 -114 l 401 -85 l 401 -96 z "},"ș":{"ha":578,"x_min":57,"x_max":521,"o":"m 521 192 q 492 81 521 128 q 406 10 463 35 q 267 -14 349 -14 q 147 -1 200 -14 q 57 32 94 13 l 57 110 q 155 69 100 85 q 268 54 210 54 q 402 90 360 54 q 444 189 444 125 q 425 255 444 228 q 367 303 406 282 q 271 349 329 325 q 165 401 211 375 q 92 465 118 426 q 65 564 65 503 q 131 702 65 651 q 307 753 196 753 q 416 741 365 753 q 510 708 467 729 l 481 644 q 397 674 443 663 q 304 686 351 686 q 184 655 228 686 q 140 567 140 624 q 160 501 140 526 q 219 455 179 475 q 314 410 258 435 q 419 358 372 385 q 494 294 467 332 q 521 192 521 256 m 356 -96 q 333 -165 347 -128 q 301 -240 319 -203 q 261 -307 283 -276 l 218 -307 l 218 -293 q 241 -233 229 -271 q 263 -154 253 -194 q 276 -85 272 -114 l 356 -85 l 356 -96 z "},"ˆ":{"ha":490,"x_min":56,"x_max":435,"o":"m 283 1063 q 327 993 300 1032 q 383 917 354 954 q 435 854 413 879 l 435 842 l 383 842 q 313 913 349 872 q 244 993 276 954 q 176 913 213 954 q 107 842 140 872 l 56 842 l 56 854 q 108 919 79 882 q 163 994 136 957 q 207 1063 190 1032 l 283 1063 z "},"ˇ":{"ha":489,"x_min":56,"x_max":433,"o":"m 206 842 q 163 911 189 874 q 108 985 136 949 q 56 1049 79 1022 l 56 1063 l 107 1063 q 176 991 140 1032 q 243 910 213 950 q 310 989 275 951 q 381 1063 344 1026 l 433 1063 l 433 1049 q 381 985 410 1022 q 324 910 351 947 q 281 842 297 874 l 206 842 z "},"ˉ":{"ha":467,"x_min":56,"x_max":411,"o":"m 411 914 l 411 850 l 56 850 l 56 914 l 411 914 z "},"˘":{"ha":468,"x_min":56,"x_max":413,"o":"m 413 1011 q 387 922 410 960 q 325 864 364 885 q 232 843 286 843 q 106 887 151 843 q 56 1011 61 931 l 110 1011 q 128 953 113 976 q 170 918 143 929 q 233 907 197 907 q 297 919 271 907 q 340 953 324 931 q 358 1011 356 976 l 413 1011 z "},"˙":{"ha":217,"x_min":56,"x_max":161,"o":"m 108 1014 q 148 997 135 1014 q 161 953 161 981 q 147 907 161 924 q 108 890 133 890 q 69 907 83 890 q 56 953 56 924 q 69 997 56 981 q 108 1014 82 1014 z "},"˚":{"ha":394,"x_min":56,"x_max":339,"o":"m 197 847 q 96 885 136 847 q 56 985 56 922 q 95 1086 56 1049 q 197 1124 135 1124 q 298 1085 257 1124 q 339 986 339 1047 q 299 885 339 922 q 197 847 258 847 m 197 899 q 260 923 236 899 q 285 985 285 947 q 260 1049 285 1024 q 197 1074 235 1074 q 133 1049 158 1074 q 108 985 108 1024 q 132 923 108 947 q 197 899 156 899 z "},"˛":{"ha":306,"x_min":56,"x_max":250,"o":"m 122 -174 q 140 -228 122 -208 q 190 -247 157 -247 q 225 -244 210 -247 q 250 -237 240 -240 l 250 -293 q 219 -301 236 -299 q 179 -304 201 -304 q 88 -273 121 -304 q 56 -183 56 -242 q 72 -112 56 -147 q 116 -44 88 -76 q 182 17 144 -11 l 228 0 q 151 -85 179 -44 q 122 -174 122 -126 z "},"˜":{"ha":557,"x_min":56,"x_max":501,"o":"m 56 850 q 68 914 58 886 q 94 962 78 942 q 132 992 110 982 q 182 1003 154 1003 q 238 989 213 1003 q 286 958 264 975 q 331 927 308 940 q 376 914 353 914 q 424 935 404 914 q 450 1003 443 956 l 501 1003 q 462 890 496 929 q 375 850 428 850 q 319 863 344 850 q 272 894 294 876 q 226 926 249 913 q 181 939 204 939 q 134 918 153 939 q 107 850 115 897 l 56 850 z "},"˝":{"ha":539,"x_min":56,"x_max":483,"o":"m 483 1053 q 452 1004 472 1032 q 408 947 432 976 q 360 890 385 917 q 314 842 335 863 l 268 842 l 268 854 q 315 920 290 882 q 363 997 340 958 q 400 1064 386 1036 l 483 1064 l 483 1053 m 272 1053 q 240 1004 260 1032 q 197 947 221 976 q 148 890 172 917 q 101 842 124 863 l 56 842 l 56 854 q 103 922 78 883 q 151 998 128 960 q 188 1064 174 1036 l 272 1064 l 272 1053 z "},"΄":{"ha":271,"x_min":56,"x_max":215,"o":"m 56 842 l 56 856 l 124 1076 l 215 1076 l 215 1065 l 108 842 l 56 842 z "},"΅":{"ha":822,"x_min":218,"x_max":601,"o":"m 349 842 l 349 856 l 404 1076 l 496 1076 l 496 1065 l 401 842 l 349 842 m 267 879 q 231 894 244 879 q 218 936 218 910 q 231 978 218 964 q 267 993 244 993 q 301 978 289 993 q 314 936 314 964 q 301 894 314 910 q 267 879 289 879 m 553 879 q 519 894 532 879 q 506 936 506 910 q 519 978 506 964 q 553 993 532 993 q 589 978 576 993 q 601 938 601 964 q 589 894 601 910 q 553 879 576 879 z "},"Ά":{"ha":799,"x_min":14,"x_max":799,"o":"m 715 0 l 601 344 l 250 344 l 135 0 l 53 0 l 388 994 l 469 994 l 797 0 l 715 0 m 465 781 q 453 822 460 799 q 439 869 446 844 q 426 914 432 893 q 415 868 421 892 q 401 823 408 844 q 389 781 394 801 l 272 417 l 579 417 l 465 781 m 14 757 l 14 771 l 82 992 l 174 992 l 174 981 l 67 757 l 14 757 z "},"·":{"ha":318,"x_min":100,"x_max":218,"o":"m 100 681 q 115 731 100 714 q 158 749 131 749 q 203 732 188 749 q 218 681 218 715 q 203 628 218 646 q 158 611 188 611 q 115 629 131 611 q 100 681 100 647 z "},"Έ":{"ha":860,"x_min":14,"x_max":782,"o":"m 782 0 l 300 0 l 300 992 l 782 992 l 782 921 l 379 921 l 379 556 l 758 556 l 758 485 l 379 485 l 379 71 l 782 71 l 782 0 m 14 757 l 14 771 l 82 992 l 174 992 l 174 981 l 67 757 l 14 757 z "},"Ή":{"ha":1069,"x_min":14,"x_max":943,"o":"m 943 0 l 864 0 l 864 483 l 379 483 l 379 0 l 300 0 l 300 992 l 379 992 l 379 556 l 864 556 l 864 992 l 943 992 l 943 0 m 14 757 l 14 771 l 82 992 l 174 992 l 174 981 l 67 757 l 14 757 z "},"Ί":{"ha":603,"x_min":14,"x_max":540,"o":"m 540 0 l 264 0 l 264 49 l 363 64 l 363 926 l 264 943 l 264 992 l 540 992 l 540 943 l 442 926 l 442 64 l 540 49 l 540 0 m 14 757 l 14 771 l 82 992 l 174 992 l 174 981 l 67 757 l 14 757 z "},"Ό":{"ha":1050,"x_min":14,"x_max":968,"o":"m 968 497 q 945 294 968 388 q 874 132 922 201 q 751 24 825 63 q 578 -14 678 -14 q 401 25 475 -14 q 278 133 326 64 q 208 296 231 203 q 185 499 185 389 q 229 770 185 657 q 362 945 274 883 q 581 1007 450 1007 q 796 943 710 1007 q 925 765 882 879 q 968 497 968 650 m 268 497 q 302 264 268 363 q 405 111 336 165 q 578 57 474 57 q 751 110 682 57 q 852 261 819 163 q 885 497 885 360 q 808 821 885 707 q 581 935 732 935 q 405 882 475 935 q 301 731 335 829 q 268 497 268 633 m 14 757 l 14 771 l 82 992 l 174 992 l 174 981 l 67 757 l 14 757 z "},"Ύ":{"ha":894,"x_min":14,"x_max":894,"o":"m 569 468 l 808 992 l 894 992 l 608 385 l 608 0 l 531 0 l 531 381 l 243 992 l 329 992 l 569 468 m 14 757 l 14 771 l 82 992 l 174 992 l 174 981 l 67 757 l 14 757 z "},"Ώ":{"ha":968,"x_min":14,"x_max":940,"o":"m 147 0 l 147 71 l 363 71 q 255 181 303 117 q 181 334 207 246 q 154 535 154 422 q 201 785 154 679 q 335 949 247 890 q 544 1007 422 1007 q 754 951 668 1007 q 886 788 840 894 q 932 533 932 682 q 906 333 932 421 q 834 180 881 244 q 724 71 788 115 l 939 71 l 939 0 l 624 0 l 624 63 q 754 184 704 118 q 828 335 804 250 q 851 531 851 421 q 816 747 851 657 q 713 886 781 838 q 544 935 644 935 q 378 885 447 935 q 272 746 308 836 q 236 531 236 656 q 261 334 236 419 q 336 183 286 249 q 461 63 386 117 l 461 0 l 147 0 m 14 757 l 14 771 l 82 992 l 174 992 l 174 981 l 67 757 l 14 757 z "},"ΐ":{"ha":375,"x_min":-1,"x_max":383,"o":"m 265 -14 q 180 7 215 -14 q 125 71 144 28 q 106 179 106 114 l 106 739 l 183 739 l 183 182 q 206 85 183 117 q 274 54 229 54 q 311 58 293 54 q 346 68 329 61 l 346 0 q 311 -10 331 -6 q 265 -14 292 -14 m 129 842 l 129 856 l 185 1076 l 276 1076 l 276 1065 l 182 842 l 129 842 m 47 879 q 12 894 25 879 q -1 936 -1 910 q 12 978 -1 964 q 47 993 25 993 q 82 978 69 993 q 94 936 94 964 q 82 894 94 910 q 47 879 69 879 m 333 879 q 299 894 313 879 q 286 936 286 910 q 299 978 286 964 q 333 993 313 993 q 369 978 357 993 q 382 938 382 964 q 369 894 382 910 q 333 879 357 879 z "},"Α":{"ha":746,"x_min":0,"x_max":744,"o":"m 663 0 l 549 344 l 197 344 l 82 0 l 0 0 l 335 994 l 417 994 l 744 0 l 663 0 m 413 781 q 400 822 407 799 q 386 869 393 844 q 374 914 379 893 q 362 868 368 892 q 349 823 356 844 q 336 781 342 801 l 219 417 l 526 417 l 413 781 z "},"Β":{"ha":786,"x_min":126,"x_max":718,"o":"m 376 992 q 615 934 538 992 q 692 753 692 876 q 672 645 692 693 q 614 567 653 597 q 518 525 575 536 l 518 521 q 629 478 585 508 q 696 399 674 449 q 718 281 718 350 q 681 126 718 189 q 573 32 643 64 q 408 0 503 0 l 126 0 l 126 992 l 376 992 m 386 554 q 558 602 504 554 q 611 746 611 650 q 555 880 611 838 q 372 922 499 922 l 206 922 l 206 554 l 386 554 m 206 485 l 206 69 l 400 69 q 576 124 518 69 q 635 285 635 178 q 607 399 635 356 q 524 464 579 443 q 389 485 469 485 l 206 485 z "},"Γ":{"ha":608,"x_min":126,"x_max":586,"o":"m 126 0 l 126 992 l 586 992 l 586 921 l 206 921 l 206 0 l 126 0 z "},"Δ":{"ha":767,"x_min":14,"x_max":753,"o":"m 14 0 l 14 50 l 344 994 l 426 994 l 753 50 l 753 0 l 14 0 m 103 72 l 663 72 l 426 781 q 413 822 421 799 q 399 869 406 844 q 385 914 392 893 q 372 868 379 892 q 358 823 365 844 q 344 781 351 801 l 103 72 z "},"Ε":{"ha":686,"x_min":126,"x_max":608,"o":"m 608 0 l 126 0 l 126 992 l 608 992 l 608 921 l 206 921 l 206 556 l 585 556 l 585 485 l 206 485 l 206 71 l 608 71 l 608 0 z "},"Ζ":{"ha":681,"x_min":46,"x_max":635,"o":"m 635 0 l 46 0 l 46 61 l 528 919 l 68 919 l 68 992 l 622 992 l 622 931 l 140 72 l 635 72 l 635 0 z "},"Η":{"ha":896,"x_min":126,"x_max":769,"o":"m 769 0 l 690 0 l 690 483 l 206 483 l 206 0 l 126 0 l 126 992 l 206 992 l 206 556 l 690 556 l 690 992 l 769 992 l 769 0 z "},"Θ":{"ha":946,"x_min":81,"x_max":864,"o":"m 282 468 l 282 538 l 663 538 l 663 468 l 282 468 m 864 497 q 841 294 864 388 q 769 132 818 201 q 647 24 721 63 q 474 -14 574 -14 q 297 25 371 -14 q 174 133 222 64 q 103 296 126 203 q 81 499 81 389 q 125 770 81 657 q 258 945 169 883 q 476 1007 346 1007 q 692 943 606 1007 q 821 765 778 879 q 864 497 864 650 m 164 497 q 198 264 164 363 q 301 111 232 165 q 474 57 369 57 q 647 110 578 57 q 748 261 715 163 q 781 497 781 360 q 704 821 781 707 q 476 935 628 935 q 301 882 371 935 q 197 731 231 829 q 164 497 164 633 z "},"Ι":{"ha":401,"x_min":63,"x_max":339,"o":"m 339 0 l 63 0 l 63 49 l 161 64 l 161 926 l 63 943 l 63 992 l 339 992 l 339 943 l 240 926 l 240 64 l 339 49 l 339 0 z "},"Κ":{"ha":728,"x_min":126,"x_max":729,"o":"m 729 0 l 636 0 l 313 504 l 206 392 l 206 0 l 126 0 l 126 992 l 206 992 l 206 474 q 253 535 226 501 q 310 607 279 568 l 624 992 l 717 992 l 368 564 l 729 0 z "},"Λ":{"ha":724,"x_min":0,"x_max":724,"o":"m 0 0 l 324 994 l 406 994 l 724 0 l 640 0 l 400 781 q 388 822 394 799 q 376 869 382 844 q 363 914 369 893 q 351 868 357 892 q 338 822 344 844 q 326 779 332 800 l 82 0 l 0 0 z "},"Μ":{"ha":1115,"x_min":126,"x_max":990,"o":"m 521 0 l 200 897 l 196 897 q 199 834 197 865 q 201 774 200 803 q 201 717 201 744 l 201 0 l 126 0 l 126 992 l 243 992 l 556 119 l 560 119 l 874 992 l 990 992 l 990 0 l 911 0 l 911 721 q 912 774 911 746 q 914 832 913 801 q 917 896 915 863 l 913 896 l 590 0 l 521 0 z "},"Ν":{"ha":914,"x_min":126,"x_max":788,"o":"m 788 0 l 700 0 l 200 867 l 196 867 q 199 798 197 833 q 201 725 200 763 q 201 647 201 688 l 201 0 l 126 0 l 126 992 l 215 992 l 714 131 l 718 131 q 716 200 717 163 q 714 276 715 238 q 713 349 713 315 l 713 992 l 788 992 l 788 0 z "},"Ξ":{"ha":756,"x_min":78,"x_max":679,"o":"m 78 0 l 78 74 l 679 74 l 679 0 l 78 0 m 146 483 l 146 557 l 611 557 l 611 483 l 146 483 m 100 918 l 100 992 l 656 992 l 656 918 l 100 918 z "},"Ο":{"ha":946,"x_min":81,"x_max":864,"o":"m 864 497 q 841 294 864 388 q 769 132 818 201 q 647 24 721 63 q 474 -14 574 -14 q 297 25 371 -14 q 174 133 222 64 q 103 296 126 203 q 81 499 81 389 q 125 770 81 657 q 258 945 169 883 q 476 1007 346 1007 q 692 943 606 1007 q 821 765 778 879 q 864 497 864 650 m 164 497 q 198 264 164 363 q 301 111 232 165 q 474 57 369 57 q 647 110 578 57 q 748 261 715 163 q 781 497 781 360 q 704 821 781 707 q 476 935 628 935 q 301 882 371 935 q 197 731 231 829 q 164 497 164 633 z "},"Π":{"ha":888,"x_min":126,"x_max":761,"o":"m 126 0 l 126 992 l 761 992 l 761 0 l 682 0 l 682 921 l 206 921 l 206 0 l 126 0 z "},"Ρ":{"ha":732,"x_min":126,"x_max":668,"o":"m 340 992 q 587 923 506 992 q 668 710 668 854 q 647 580 668 636 q 584 484 626 524 q 478 425 542 444 q 326 406 414 406 l 206 406 l 206 0 l 126 0 l 126 992 l 340 992 m 335 922 l 206 922 l 206 475 l 321 475 q 466 497 407 475 q 556 571 525 519 q 586 708 586 622 q 525 872 586 821 q 335 922 464 922 z "},"Σ":{"ha":681,"x_min":46,"x_max":635,"o":"m 46 0 l 46 65 l 347 514 l 58 928 l 58 992 l 613 992 l 613 919 l 279 919 q 218 920 250 919 q 157 922 186 921 l 431 535 l 431 513 l 135 71 q 210 72 172 72 q 289 72 247 72 l 635 72 l 635 0 l 46 0 z "},"Τ":{"ha":649,"x_min":10,"x_max":639,"o":"m 364 0 l 285 0 l 285 921 l 10 921 l 10 992 l 639 992 l 639 921 l 364 921 l 364 0 z "},"Υ":{"ha":651,"x_min":0,"x_max":651,"o":"m 326 468 l 565 992 l 651 992 l 365 385 l 365 0 l 288 0 l 288 381 l 0 992 l 86 992 l 326 468 z "},"Φ":{"ha":1021,"x_min":67,"x_max":954,"o":"m 472 0 l 472 126 q 290 157 367 128 q 165 239 214 186 q 91 362 115 292 q 67 517 67 432 q 90 667 67 599 q 163 787 114 736 q 289 866 213 838 q 472 896 365 894 l 472 992 l 550 992 l 550 896 q 732 867 656 894 q 857 792 808 840 q 930 674 906 743 q 954 518 954 604 q 931 363 954 433 q 858 240 907 292 q 731 158 808 188 q 550 126 654 129 l 550 0 l 472 0 m 472 196 l 472 826 q 286 788 358 825 q 181 681 214 750 q 147 517 147 613 q 183 344 147 415 q 290 236 218 274 q 472 196 363 199 m 550 196 q 733 237 661 199 q 839 347 804 275 q 874 519 874 419 q 841 685 874 618 q 738 789 808 753 q 550 826 667 825 l 550 196 z "},"Χ":{"ha":668,"x_min":4,"x_max":664,"o":"m 664 0 l 575 0 l 338 453 l 89 0 l 4 0 l 292 517 l 33 992 l 119 992 l 339 578 l 561 992 l 646 992 l 385 515 l 664 0 z "},"Ψ":{"ha":979,"x_min":117,"x_max":863,"o":"m 451 0 l 451 264 q 310 290 372 268 q 204 356 247 313 q 139 469 161 400 q 117 636 117 538 l 117 992 l 197 992 l 197 639 q 224 469 197 536 q 307 368 250 401 q 451 333 364 335 l 451 992 l 529 992 l 529 333 q 669 365 613 335 q 755 463 726 396 q 783 639 783 529 l 783 992 l 863 992 l 863 636 q 824 427 863 507 q 710 308 785 347 q 529 264 635 269 l 529 0 l 451 0 z "},"Ω":{"ha":850,"x_min":29,"x_max":821,"o":"m 29 0 l 29 71 l 244 71 q 137 181 185 117 q 63 334 89 246 q 36 535 36 422 q 83 785 36 679 q 217 949 129 890 q 426 1007 304 1007 q 636 951 550 1007 q 768 788 722 894 q 814 533 814 682 q 788 333 814 421 q 716 180 763 244 q 606 71 669 115 l 821 71 l 821 0 l 506 0 l 506 63 q 636 184 586 118 q 710 335 686 250 q 733 531 733 421 q 698 747 733 657 q 594 886 663 838 q 426 935 526 935 q 260 885 329 935 q 154 746 190 836 q 118 531 118 656 q 143 334 118 419 q 218 183 168 249 q 343 63 268 117 l 343 0 l 29 0 z "},"Ϊ":{"ha":401,"x_min":32,"x_max":371,"o":"m 339 0 l 63 0 l 63 49 l 161 64 l 161 926 l 63 943 l 63 992 l 339 992 l 339 943 l 240 926 l 240 64 l 339 49 l 339 0 m 32 1189 q 45 1231 32 1217 q 81 1246 58 1246 q 115 1231 103 1246 q 128 1189 128 1217 q 115 1147 128 1163 q 81 1132 103 1132 q 45 1147 58 1132 q 32 1189 32 1163 m 274 1189 q 287 1231 274 1217 q 321 1246 300 1246 q 357 1231 344 1246 q 369 1190 369 1217 q 357 1147 369 1163 q 321 1132 344 1132 q 286 1147 299 1132 q 274 1189 274 1163 z "},"Ϋ":{"ha":651,"x_min":0,"x_max":651,"o":"m 326 468 l 565 992 l 651 992 l 365 385 l 365 0 l 288 0 l 288 381 l 0 992 l 86 992 l 326 468 m 157 1189 q 170 1231 157 1217 q 206 1246 183 1246 q 240 1231 228 1246 q 253 1189 253 1217 q 240 1147 253 1163 q 206 1132 228 1132 q 170 1147 183 1132 q 157 1189 157 1163 m 399 1189 q 412 1231 399 1217 q 446 1246 425 1246 q 482 1231 469 1246 q 494 1190 494 1217 q 482 1147 494 1163 q 446 1132 469 1132 q 411 1147 424 1132 q 399 1189 399 1163 z "},"ά":{"ha":774,"x_min":71,"x_max":744,"o":"m 342 -14 q 197 29 257 -14 q 103 157 136 72 q 71 365 71 242 q 145 655 71 557 q 344 753 219 753 q 438 737 397 753 q 510 691 479 721 q 558 618 540 661 l 563 618 l 574 739 l 636 739 l 636 169 q 652 78 636 104 q 699 53 668 53 q 722 55 710 53 q 744 61 735 57 l 744 -1 q 728 -7 738 -4 q 706 -12 718 -10 q 682 -14 694 -14 q 599 18 628 -14 q 564 126 571 50 l 557 126 q 511 56 540 88 q 440 5 482 24 q 342 -14 399 -14 m 356 54 q 469 87 424 54 q 537 185 514 119 q 560 349 560 251 l 560 390 q 510 610 560 535 q 354 685 461 685 q 203 601 254 685 q 151 365 151 518 q 203 132 151 210 q 356 54 256 54 m 336 842 l 336 856 l 404 1076 l 496 1076 l 496 1065 l 389 842 l 336 842 z "},"έ":{"ha":572,"x_min":60,"x_max":535,"o":"m 331 -14 q 125 46 190 -14 q 60 199 60 106 q 78 287 60 250 q 132 347 97 324 q 211 382 167 371 l 211 386 q 115 451 146 406 q 83 557 83 496 q 115 665 83 622 q 202 731 146 708 q 329 753 258 753 q 447 740 396 753 q 535 704 497 726 l 511 639 q 431 672 476 660 q 335 685 386 685 q 202 649 244 685 q 160 551 160 614 q 205 452 160 488 q 332 417 250 417 l 421 417 l 421 351 l 332 351 q 229 335 272 351 q 163 287 186 319 q 139 203 139 254 q 189 94 139 133 q 335 54 239 54 q 439 65 392 54 q 528 97 486 75 l 528 28 q 442 -3 493 7 q 331 -14 390 -14 m 310 842 l 310 856 l 378 1076 l 469 1076 l 469 1065 l 363 842 l 310 842 z "},"ή":{"ha":731,"x_min":111,"x_max":624,"o":"m 547 -328 l 547 485 q 508 636 547 588 q 392 685 468 685 q 281 654 326 685 q 213 562 236 624 q 189 407 189 500 l 189 0 l 111 0 l 111 739 l 174 739 l 183 611 l 189 611 q 235 683 207 651 q 306 734 264 715 q 404 753 349 753 q 524 725 475 753 q 599 640 574 697 q 624 494 624 583 l 624 -328 l 547 -328 m 274 842 l 274 856 l 342 1076 l 433 1076 l 433 1065 l 326 842 l 274 842 z "},"ί":{"ha":375,"x_min":106,"x_max":346,"o":"m 265 -14 q 180 7 215 -14 q 125 71 144 28 q 106 179 106 114 l 106 739 l 183 739 l 183 182 q 206 85 183 117 q 274 54 229 54 q 311 58 293 54 q 346 68 329 61 l 346 0 q 311 -10 331 -6 q 265 -14 292 -14 m 128 842 l 128 856 l 196 1076 l 288 1076 l 288 1065 l 181 842 l 128 842 z "},"ΰ":{"ha":714,"x_min":104,"x_max":621,"o":"m 338 -14 q 227 4 272 -14 q 155 58 182 22 q 116 150 128 94 q 104 281 104 206 l 104 739 l 182 739 l 182 286 q 196 155 182 207 q 244 78 210 103 q 343 54 279 54 q 453 92 408 54 q 520 205 497 129 q 543 394 543 281 q 533 567 543 483 q 501 739 524 651 l 579 739 q 603 625 593 679 q 617 515 613 571 q 621 394 621 460 q 548 88 621 189 q 338 -14 475 -14 m 315 842 l 315 856 l 371 1076 l 463 1076 l 463 1065 l 368 842 l 315 842 m 233 879 q 198 894 211 879 q 185 936 185 910 q 198 978 185 964 q 233 993 211 993 q 268 978 256 993 q 281 936 281 964 q 268 894 281 910 q 233 879 256 879 m 519 879 q 485 894 499 879 q 472 936 472 910 q 485 978 472 964 q 519 993 499 993 q 556 978 543 993 q 568 938 568 964 q 556 894 568 910 q 519 879 543 879 z "},"α":{"ha":774,"x_min":71,"x_max":744,"o":"m 342 -14 q 197 29 257 -14 q 103 157 136 72 q 71 365 71 242 q 145 655 71 557 q 344 753 219 753 q 438 737 397 753 q 510 691 479 721 q 558 618 540 661 l 563 618 l 574 739 l 636 739 l 636 169 q 652 78 636 104 q 699 53 668 53 q 722 55 710 53 q 744 61 735 57 l 744 -1 q 728 -7 738 -4 q 706 -12 718 -10 q 682 -14 694 -14 q 599 18 628 -14 q 564 126 571 50 l 557 126 q 511 56 540 88 q 440 5 482 24 q 342 -14 399 -14 m 356 54 q 469 87 424 54 q 537 185 514 119 q 560 349 560 251 l 560 390 q 510 610 560 535 q 354 685 461 685 q 203 601 254 685 q 151 365 151 518 q 203 132 151 210 q 356 54 256 54 z "},"β":{"ha":751,"x_min":113,"x_max":679,"o":"m 113 -328 l 113 760 q 144 926 113 858 q 237 1028 176 993 q 381 1063 297 1063 q 517 1033 461 1063 q 602 945 572 1003 q 632 804 632 888 q 611 687 632 738 q 553 604 590 636 q 465 563 517 572 l 465 557 q 577 516 529 549 q 652 426 625 483 q 679 285 679 369 q 645 126 679 193 q 547 24 611 60 q 394 -11 483 -11 q 316 -4 351 -11 q 251 16 281 3 q 189 49 221 29 l 189 -328 l 113 -328 m 386 57 q 546 119 490 57 q 601 290 601 181 q 576 416 601 364 q 503 497 551 468 q 382 525 454 525 l 297 525 l 297 589 l 376 589 q 474 615 435 589 q 533 688 514 640 q 553 800 553 735 q 506 947 553 899 q 379 994 458 994 q 278 969 321 994 q 213 890 236 943 q 189 754 189 838 l 189 121 q 281 74 235 92 q 386 57 328 57 z "},"γ":{"ha":604,"x_min":3,"x_max":561,"o":"m 226 -286 l 226 3 l 3 739 l 83 739 l 232 229 q 247 181 239 208 q 263 126 254 153 q 274 79 271 99 l 279 79 q 389 264 343 164 q 459 482 435 364 q 483 739 483 600 l 561 739 q 533 463 561 590 q 447 222 504 335 q 303 3 390 108 l 303 -286 l 226 -286 z "},"δ":{"ha":718,"x_min":58,"x_max":646,"o":"m 353 -14 q 196 27 263 -14 q 94 140 129 68 q 58 304 58 211 q 86 455 58 388 q 171 572 114 522 q 314 653 228 622 q 235 715 269 683 q 182 783 201 746 q 163 871 163 821 q 189 969 163 926 q 267 1038 215 1013 q 393 1063 319 1063 q 483 1053 442 1063 q 556 1027 524 1043 q 608 993 589 1011 l 575 929 q 493 978 539 960 q 393 996 447 996 q 305 979 339 996 q 256 935 271 963 q 240 872 240 908 q 257 806 240 836 q 310 747 274 776 q 403 679 346 717 q 540 571 486 625 q 619 453 593 517 q 646 308 646 390 q 610 140 646 213 q 508 26 574 67 q 353 -14 442 -14 m 354 53 q 471 85 424 53 q 543 176 518 118 q 568 308 568 233 q 546 433 568 378 q 480 533 524 488 q 374 615 436 578 q 270 567 314 596 q 197 499 226 538 q 152 413 167 460 q 138 308 138 365 q 164 174 138 232 q 239 85 190 117 q 354 53 288 53 z "},"ε":{"ha":572,"x_min":60,"x_max":535,"o":"m 331 -14 q 125 46 190 -14 q 60 199 60 106 q 78 287 60 250 q 132 347 97 324 q 211 382 167 371 l 211 386 q 115 451 146 406 q 83 557 83 496 q 115 665 83 622 q 202 731 146 708 q 329 753 258 753 q 447 740 396 753 q 535 704 497 726 l 511 639 q 431 672 476 660 q 335 685 386 685 q 202 649 244 685 q 160 551 160 614 q 205 452 160 488 q 332 417 250 417 l 421 417 l 421 351 l 332 351 q 229 335 272 351 q 163 287 186 319 q 139 203 139 254 q 189 94 139 133 q 335 54 239 54 q 439 65 392 54 q 528 97 486 75 l 528 28 q 442 -3 493 7 q 331 -14 390 -14 z "},"ζ":{"ha":531,"x_min":74,"x_max":535,"o":"m 401 -281 q 440 -197 426 -236 q 454 -119 454 -157 q 445 -69 454 -92 q 410 -31 436 -47 q 328 -1 383 -14 q 180 56 236 21 q 99 143 124 90 q 74 269 74 196 q 98 415 74 343 q 172 569 122 486 q 292 763 221 653 l 450 996 q 410 994 435 996 q 356 992 385 993 q 297 992 328 992 l 107 992 l 107 1056 l 535 1056 l 535 1004 l 347 725 q 233 540 276 618 q 172 399 190 461 q 153 276 153 336 q 170 184 153 225 q 233 114 188 143 q 361 64 278 85 q 462 26 425 49 q 515 -29 499 3 q 531 -107 531 -61 q 524 -167 531 -137 q 506 -224 518 -196 q 478 -281 494 -251 l 401 -281 z "},"η":{"ha":731,"x_min":111,"x_max":624,"o":"m 547 -328 l 547 485 q 508 636 547 588 q 392 685 468 685 q 281 654 326 685 q 213 562 236 624 q 189 407 189 500 l 189 0 l 111 0 l 111 739 l 174 739 l 183 611 l 189 611 q 235 683 207 651 q 306 734 264 715 q 404 753 349 753 q 524 725 475 753 q 599 640 574 697 q 624 494 624 583 l 624 -328 l 547 -328 z "},"θ":{"ha":726,"x_min":72,"x_max":654,"o":"m 363 -14 q 202 46 267 -14 q 105 227 138 106 q 72 536 72 349 q 105 833 72 717 q 202 1006 138 950 q 364 1063 267 1063 q 525 1006 461 1063 q 622 833 589 949 q 654 538 654 717 q 622 228 654 350 q 526 46 590 106 q 363 -14 461 -14 m 363 53 q 480 99 433 53 q 550 247 526 146 q 576 511 574 349 l 150 511 q 176 249 153 350 q 245 101 199 149 q 363 53 292 53 m 150 576 l 575 576 q 550 812 574 719 q 481 949 526 904 q 364 994 435 994 q 248 951 294 994 q 178 816 201 908 q 150 576 154 724 z "},"ι":{"ha":375,"x_min":106,"x_max":346,"o":"m 265 -14 q 180 7 215 -14 q 125 71 144 28 q 106 179 106 114 l 106 739 l 183 739 l 183 182 q 206 85 183 117 q 274 54 229 54 q 311 58 293 54 q 346 68 329 61 l 346 0 q 311 -10 331 -6 q 265 -14 292 -14 z "},"κ":{"ha":618,"x_min":111,"x_max":614,"o":"m 593 739 l 349 431 l 614 0 l 525 0 l 296 376 l 192 260 l 192 0 l 111 0 l 111 739 l 192 739 l 192 532 q 190 428 192 478 q 186 333 189 378 l 188 333 q 217 374 203 356 q 246 413 231 393 l 501 739 l 593 739 z "},"λ":{"ha":625,"x_min":7,"x_max":622,"o":"m 568 -12 q 516 -1 538 -12 q 479 35 494 10 q 453 101 464 61 l 338 483 q 324 530 331 508 q 311 572 317 551 q 301 610 306 592 q 292 644 296 628 l 286 644 q 269 578 279 614 q 247 510 258 542 l 88 0 l 7 0 l 254 742 l 214 878 q 165 968 196 942 q 83 994 133 994 q 45 991 63 994 q 15 983 28 988 l 15 1050 q 37 1057 25 1054 q 63 1061 49 1060 q 92 1063 76 1063 q 179 1045 142 1063 q 244 989 217 1028 q 292 888 272 950 l 522 129 q 540 84 532 100 q 560 61 549 68 q 586 54 572 54 q 606 57 597 54 q 622 61 615 60 l 622 -3 q 607 -8 615 -6 q 590 -12 599 -11 q 568 -12 581 -12 z "},"μ":{"ha":771,"x_min":113,"x_max":742,"o":"m 113 -328 l 113 739 l 189 739 l 189 257 q 231 106 189 157 q 357 54 272 54 q 510 126 463 54 q 557 336 557 197 l 557 739 l 635 739 l 635 169 q 651 78 635 104 q 696 53 667 53 q 721 55 708 53 q 742 61 733 57 l 742 -1 q 726 -7 736 -4 q 703 -12 715 -10 q 681 -14 692 -14 q 599 17 626 -14 q 563 121 571 49 l 557 121 q 514 53 540 85 q 449 4 488 22 q 356 -14 410 -14 q 253 8 294 -14 q 189 68 211 29 l 185 68 q 187 30 186 50 q 188 -12 188 10 q 189 -56 189 -33 l 189 -328 l 113 -328 z "},"ν":{"ha":604,"x_min":3,"x_max":561,"o":"m 226 0 l 3 739 l 83 739 l 232 229 q 247 181 239 208 q 263 126 254 153 q 274 79 271 100 l 279 79 q 391 264 346 164 q 460 482 436 364 q 483 739 483 600 l 561 739 q 533 459 561 588 q 447 217 504 331 q 301 0 390 104 l 226 0 z "},"ξ":{"ha":582,"x_min":74,"x_max":544,"o":"m 411 -281 q 450 -197 436 -236 q 464 -118 464 -157 q 455 -70 464 -92 q 418 -31 446 -49 q 332 -1 390 -14 q 188 53 246 19 q 102 144 131 88 q 74 282 74 200 q 101 417 74 361 q 176 508 129 474 q 278 553 222 542 l 278 557 q 193 591 231 567 q 133 658 156 615 q 111 768 111 701 q 138 881 111 835 q 208 956 164 928 q 304 997 253 985 q 261 994 282 996 q 219 992 240 993 q 169 992 197 992 l 107 992 l 107 1056 l 544 1056 l 544 994 l 494 994 q 376 983 432 994 q 278 947 321 972 q 212 878 236 922 q 188 771 188 835 q 211 672 188 713 q 285 610 235 631 q 413 589 335 589 l 522 589 l 522 525 l 410 525 q 269 497 326 525 q 182 418 211 469 q 153 292 153 367 q 174 184 153 228 q 242 111 194 140 q 371 63 290 82 q 476 23 439 47 q 526 -33 513 -1 q 540 -106 540 -64 q 534 -165 540 -136 q 516 -222 528 -194 q 488 -281 504 -250 l 411 -281 z "},"ο":{"ha":735,"x_min":72,"x_max":663,"o":"m 663 371 q 644 211 663 282 q 588 90 625 140 q 494 13 550 39 q 367 -14 439 -14 q 242 13 297 -14 q 150 90 188 39 q 92 211 113 140 q 72 371 72 282 q 107 577 72 492 q 208 708 142 663 q 371 753 275 753 q 532 706 467 753 q 630 574 597 660 q 663 371 663 489 m 153 371 q 176 201 153 272 q 247 92 199 129 q 368 54 294 54 q 490 92 442 54 q 560 201 538 129 q 583 371 583 272 q 561 537 583 467 q 492 646 539 607 q 369 685 446 685 q 206 603 260 685 q 153 371 153 521 z "},"π":{"ha":775,"x_min":21,"x_max":744,"o":"m 663 -12 q 565 28 599 -12 q 532 149 532 68 l 532 675 l 232 675 l 232 0 l 154 0 l 154 675 l 21 675 l 21 739 l 744 739 l 744 675 l 610 675 l 610 157 q 628 79 610 103 q 682 56 646 56 q 712 58 699 56 q 735 65 725 61 l 735 0 q 706 -8 725 -4 q 663 -12 688 -12 z "},"ρ":{"ha":726,"x_min":92,"x_max":656,"o":"m 92 -328 l 92 385 q 123 586 92 504 q 215 710 154 668 q 367 753 276 753 q 523 710 458 753 q 622 581 588 667 q 656 363 656 494 q 620 161 656 246 q 520 31 585 76 q 365 -14 456 -14 q 255 5 306 -14 q 169 54 204 24 l 164 54 q 167 -28 167 14 q 168 -117 168 -71 l 168 -328 l 92 -328 m 364 54 q 478 88 431 54 q 551 191 526 122 q 576 363 576 260 q 522 607 576 529 q 365 685 468 685 q 217 606 264 685 q 169 381 169 528 l 169 126 q 256 73 204 92 q 364 54 307 54 z "},"σ":{"ha":751,"x_min":72,"x_max":708,"o":"m 360 -14 q 204 31 268 -14 q 106 160 140 76 q 72 356 72 243 q 113 569 72 483 q 234 697 154 654 q 429 739 314 739 l 708 739 l 708 675 l 532 675 q 603 589 578 638 q 641 481 629 540 q 653 354 653 422 q 633 204 653 272 q 576 88 614 136 q 485 13 539 39 q 360 -14 431 -14 m 363 53 q 481 90 433 53 q 551 196 528 128 q 575 356 575 264 q 565 478 575 419 q 528 586 554 536 q 457 675 503 636 l 421 675 q 270 640 331 675 q 181 533 210 604 q 151 356 151 463 q 174 198 151 267 q 242 91 196 129 q 363 53 289 53 z "},"τ":{"ha":554,"x_min":21,"x_max":511,"o":"m 375 -14 q 274 9 314 -14 q 214 81 233 32 q 194 208 194 131 l 194 675 l 21 675 l 21 739 l 511 739 l 511 675 l 272 675 l 272 217 q 283 124 272 160 q 320 70 294 88 q 388 53 346 53 q 439 57 413 53 q 486 68 465 61 l 486 4 q 438 -8 469 -3 q 375 -14 407 -14 z "},"υ":{"ha":714,"x_min":104,"x_max":621,"o":"m 338 -14 q 227 4 272 -14 q 155 58 182 22 q 116 150 128 94 q 104 281 104 206 l 104 739 l 182 739 l 182 286 q 196 155 182 207 q 244 78 210 103 q 343 54 279 54 q 453 92 408 54 q 520 205 497 129 q 543 394 543 281 q 533 567 543 483 q 501 739 524 651 l 579 739 q 603 625 593 679 q 617 515 613 571 q 621 394 621 460 q 548 88 621 189 q 338 -14 475 -14 z "},"φ":{"ha":853,"x_min":72,"x_max":781,"o":"m 389 -328 l 389 -12 q 219 43 290 -4 q 110 174 147 90 q 72 371 72 257 q 108 563 72 481 q 215 694 144 646 q 389 750 285 743 l 389 1056 l 464 1056 l 464 750 q 637 694 567 743 q 744 562 707 644 q 781 371 781 479 q 744 182 781 265 q 638 48 708 99 q 464 -12 568 -3 l 464 -328 l 389 -328 m 389 54 l 389 685 q 258 640 311 679 q 179 533 206 601 q 153 371 153 465 q 178 210 153 279 q 256 100 204 140 q 389 54 308 60 m 464 54 q 597 103 544 61 q 675 215 649 146 q 701 371 701 285 q 641 593 701 511 q 464 685 581 675 l 464 54 z "},"χ":{"ha":707,"x_min":32,"x_max":689,"o":"m 629 -333 q 565 -320 590 -333 q 519 -277 539 -307 q 481 -199 500 -247 l 161 590 q 124 660 142 638 q 78 681 106 682 q 53 678 64 681 q 32 672 42 676 l 32 738 q 58 745 43 742 q 93 749 72 749 q 149 738 126 749 q 189 701 171 726 q 224 631 207 675 l 543 -156 q 574 -221 561 -197 q 603 -256 588 -244 q 643 -267 618 -267 q 668 -265 657 -267 q 689 -260 679 -262 l 689 -324 q 673 -328 682 -326 q 653 -332 664 -331 q 629 -333 642 -333 m 43 -328 l 336 238 l 367 156 l 125 -328 l 43 -328 m 383 168 l 353 250 l 582 739 l 663 739 l 383 168 z "},"ψ":{"ha":885,"x_min":104,"x_max":792,"o":"m 401 -332 l 401 -10 q 234 31 300 -7 q 136 144 168 68 q 104 340 104 221 l 104 739 l 181 739 l 181 340 q 203 183 181 244 q 276 92 226 122 q 401 57 325 63 l 401 1056 l 478 1056 l 478 58 q 615 103 564 63 q 691 220 667 144 q 715 404 715 296 q 703 576 715 497 q 669 739 692 654 l 747 739 q 781 576 769 654 q 792 404 792 497 q 758 182 792 272 q 654 44 724 92 q 478 -10 585 -4 l 478 -332 l 401 -332 z "},"ω":{"ha":940,"x_min":86,"x_max":854,"o":"m 296 -14 q 178 26 225 -14 q 110 144 132 65 q 86 336 88 222 q 117 573 86 469 q 197 739 149 676 l 276 739 q 215 633 240 694 q 176 496 189 571 q 164 336 164 421 q 198 122 165 190 q 300 54 231 54 q 369 78 339 54 q 416 151 399 103 q 433 272 433 200 l 433 488 l 507 488 l 507 272 q 524 149 507 197 q 571 78 542 101 q 639 54 600 54 q 717 85 688 54 q 762 178 747 115 q 776 335 776 240 q 765 494 776 419 q 728 631 753 568 q 664 739 703 693 l 743 739 q 803 636 778 696 q 841 501 828 576 q 854 336 854 425 q 831 147 854 225 q 762 27 808 68 q 643 -14 715 -14 q 533 24 578 -14 q 472 136 488 63 l 468 136 q 434 53 458 88 q 374 3 410 19 q 296 -14 339 -14 z "},"ϊ":{"ha":375,"x_min":-18,"x_max":346,"o":"m 265 -14 q 180 7 215 -14 q 125 71 144 28 q 106 179 106 114 l 106 739 l 183 739 l 183 182 q 206 85 183 117 q 274 54 229 54 q 311 58 293 54 q 346 68 329 61 l 346 0 q 311 -10 331 -6 q 265 -14 292 -14 m -18 936 q -5 978 -18 964 q 31 993 8 993 q 65 978 53 993 q 78 936 78 964 q 65 894 78 910 q 31 879 53 879 q -5 894 8 879 q -18 936 -18 910 m 224 936 q 237 978 224 964 q 271 993 250 993 q 307 978 294 993 q 319 938 319 964 q 307 894 319 910 q 271 879 294 879 q 236 894 249 879 q 224 936 224 910 z "},"ϋ":{"ha":714,"x_min":104,"x_max":621,"o":"m 338 -14 q 227 4 272 -14 q 155 58 182 22 q 116 150 128 94 q 104 281 104 206 l 104 739 l 182 739 l 182 286 q 196 155 182 207 q 244 78 210 103 q 343 54 279 54 q 453 92 408 54 q 520 205 497 129 q 543 394 543 281 q 533 567 543 483 q 501 739 524 651 l 579 739 q 603 625 593 679 q 617 515 613 571 q 621 394 621 460 q 548 88 621 189 q 338 -14 475 -14 m 167 936 q 180 978 167 964 q 215 993 193 993 q 250 978 238 993 q 263 936 263 964 q 250 894 263 910 q 215 879 238 879 q 180 894 193 879 q 167 936 167 910 m 408 936 q 422 978 408 964 q 456 993 435 993 q 492 978 479 993 q 504 938 504 964 q 492 894 504 910 q 456 879 479 879 q 421 894 433 879 q 408 936 408 910 z "},"ό":{"ha":735,"x_min":72,"x_max":663,"o":"m 663 371 q 644 211 663 282 q 588 90 625 140 q 494 13 550 39 q 367 -14 439 -14 q 242 13 297 -14 q 150 90 188 39 q 92 211 113 140 q 72 371 72 282 q 107 577 72 492 q 208 708 142 663 q 371 753 275 753 q 532 706 467 753 q 630 574 597 660 q 663 371 663 489 m 153 371 q 176 201 153 272 q 247 92 199 129 q 368 54 294 54 q 490 92 442 54 q 560 201 538 129 q 583 371 583 272 q 561 537 583 467 q 492 646 539 607 q 369 685 446 685 q 206 603 260 685 q 153 371 153 521 m 346 842 l 346 856 l 414 1076 l 506 1076 l 506 1065 l 399 842 l 346 842 z "},"ύ":{"ha":714,"x_min":104,"x_max":621,"o":"m 338 -14 q 227 4 272 -14 q 155 58 182 22 q 116 150 128 94 q 104 281 104 206 l 104 739 l 182 739 l 182 286 q 196 155 182 207 q 244 78 210 103 q 343 54 279 54 q 453 92 408 54 q 520 205 497 129 q 543 394 543 281 q 533 567 543 483 q 501 739 524 651 l 579 739 q 603 625 593 679 q 617 515 613 571 q 621 394 621 460 q 548 88 621 189 q 338 -14 475 -14 m 314 842 l 314 856 l 382 1076 l 474 1076 l 474 1065 l 367 842 l 314 842 z "},"ώ":{"ha":940,"x_min":86,"x_max":854,"o":"m 296 -14 q 178 26 225 -14 q 110 144 132 65 q 86 336 88 222 q 117 573 86 469 q 197 739 149 676 l 276 739 q 215 633 240 694 q 176 496 189 571 q 164 336 164 421 q 198 122 165 190 q 300 54 231 54 q 369 78 339 54 q 416 151 399 103 q 433 272 433 200 l 433 488 l 507 488 l 507 272 q 524 149 507 197 q 571 78 542 101 q 639 54 600 54 q 717 85 688 54 q 762 178 747 115 q 776 335 776 240 q 765 494 776 419 q 728 631 753 568 q 664 739 703 693 l 743 739 q 803 636 778 696 q 841 501 828 576 q 854 336 854 425 q 831 147 854 225 q 762 27 808 68 q 643 -14 715 -14 q 533 24 578 -14 q 472 136 488 63 l 468 136 q 434 53 458 88 q 374 3 410 19 q 296 -14 339 -14 m 449 842 l 449 856 l 517 1076 l 608 1076 l 608 1065 l 501 842 l 449 842 z "},"Ё":{"ha":683,"x_min":126,"x_max":607,"o":"m 126 0 l 126 992 l 607 992 l 607 921 l 206 921 l 206 556 l 583 556 l 583 485 l 206 485 l 206 71 l 607 71 l 607 0 l 126 0 m 274 1118 q 238 1134 250 1118 q 225 1179 225 1150 q 238 1225 225 1210 q 274 1240 250 1240 q 310 1225 297 1240 q 322 1179 322 1210 q 310 1134 322 1150 q 274 1118 297 1118 m 479 1118 q 444 1134 457 1118 q 432 1179 432 1150 q 444 1226 432 1211 q 481 1240 457 1240 q 516 1225 504 1240 q 528 1179 528 1210 q 515 1133 528 1149 q 479 1118 503 1118 z "},"Ђ":{"ha":858,"x_min":10,"x_max":793,"o":"m 531 -15 q 474 -11 501 -15 q 425 1 446 -7 l 425 71 q 475 60 451 64 q 522 56 499 56 q 662 115 613 56 q 711 286 711 174 l 711 289 q 656 463 711 406 q 489 521 600 521 q 384 510 438 521 q 274 474 331 499 l 300 517 l 299 0 l 221 0 l 221 921 l 10 921 l 10 992 l 617 992 l 617 921 l 299 921 l 300 531 l 275 544 q 385 580 329 568 q 497 592 440 592 q 717 515 642 592 q 793 290 793 438 l 793 289 q 760 126 793 194 q 669 22 728 58 q 531 -15 611 -15 z "},"Ѓ":{"ha":631,"x_min":126,"x_max":600,"o":"m 126 0 l 126 992 l 600 992 l 600 921 l 206 921 l 206 0 l 126 0 m 314 1088 l 314 1101 l 468 1310 l 560 1310 l 560 1297 l 365 1088 l 314 1088 z "},"Є":{"ha":781,"x_min":81,"x_max":731,"o":"m 496 -14 q 268 47 361 -14 q 128 220 175 107 q 81 492 81 333 q 132 767 81 651 q 278 944 183 882 q 504 1006 374 1006 q 621 994 564 1006 q 731 956 678 982 l 700 888 q 604 923 651 911 q 507 935 557 935 q 326 885 403 935 q 208 741 250 835 q 164 517 167 647 l 129 547 l 608 547 l 608 475 l 128 475 l 163 507 q 201 263 161 364 q 317 110 240 163 q 504 57 394 57 q 610 68 556 57 q 717 101 665 79 l 717 28 q 612 -3 671 7 q 496 -14 553 -14 z "},"Ѕ":{"ha":685,"x_min":68,"x_max":619,"o":"m 308 -14 q 215 -9 258 -14 q 135 6 172 -4 q 68 28 99 15 l 68 107 q 178 72 115 86 q 308 57 240 57 q 433 81 381 57 q 512 148 485 104 q 539 254 539 192 q 515 353 539 315 q 441 418 490 390 q 317 475 392 446 q 220 519 264 496 q 144 574 176 542 q 95 649 113 606 q 78 753 78 692 q 115 890 78 833 q 219 976 153 947 q 368 1006 285 1006 q 493 992 435 1006 q 601 956 551 979 l 574 888 q 471 923 524 911 q 368 935 418 935 q 257 914 304 935 q 184 853 210 893 q 158 754 158 813 q 184 653 158 692 q 258 588 210 614 q 369 536 306 561 q 501 472 444 506 q 588 390 557 439 q 619 260 619 340 q 581 111 619 172 q 472 18 542 50 q 308 -14 401 -14 z "},"І":{"ha":332,"x_min":126,"x_max":206,"o":"m 126 0 l 126 992 l 206 992 l 206 0 l 126 0 z "},"Ї":{"ha":347,"x_min":40,"x_max":306,"o":"m 133 0 l 133 992 l 213 992 l 213 0 l 133 0 m 90 1118 q 53 1134 67 1118 q 40 1181 40 1150 q 53 1226 40 1211 q 90 1242 67 1242 q 126 1226 114 1242 q 139 1181 139 1211 q 126 1134 139 1150 q 90 1118 114 1118 m 257 1118 q 221 1134 233 1118 q 208 1181 208 1150 q 221 1226 208 1211 q 258 1242 233 1242 q 293 1226 281 1242 q 306 1181 306 1211 q 293 1134 306 1150 q 257 1118 281 1118 z "},"Ј":{"ha":326,"x_min":-101,"x_max":206,"o":"m -3 -254 q -58 -249 -35 -254 q -101 -237 -82 -244 l -101 -165 q -58 -177 -82 -172 q -6 -182 -33 -182 q 69 -162 39 -182 q 113 -101 99 -142 q 126 0 126 -61 l 126 992 l 206 992 l 206 -3 q 183 -141 206 -85 q 113 -226 160 -197 q -3 -254 67 -254 z "},"Љ":{"ha":1253,"x_min":1,"x_max":1188,"o":"m 74 -14 q 37 -11 54 -14 q 1 -3 19 -8 l 1 71 q 32 64 18 67 q 63 61 46 61 q 128 80 103 61 q 167 144 153 99 q 188 269 181 190 q 199 419 194 347 q 208 569 204 490 q 218 751 213 649 q 229 992 224 853 l 722 992 l 722 588 l 860 588 q 1106 516 1025 588 q 1188 299 1188 444 q 1106 76 1188 153 q 865 0 1024 0 l 643 0 l 643 921 l 301 921 q 291 721 296 810 q 283 556 286 632 q 274 408 279 479 q 261 257 268 336 q 231 100 251 160 q 172 13 210 40 q 74 -14 133 -14 m 722 69 l 861 69 q 1046 126 986 69 q 1106 297 1106 182 q 1046 464 1106 411 q 860 517 986 517 l 722 517 l 722 69 z "},"Њ":{"ha":1257,"x_min":126,"x_max":1192,"o":"m 126 0 l 126 992 l 206 992 l 206 574 l 650 574 l 650 992 l 728 992 l 728 574 l 864 574 q 1110 503 1029 574 q 1192 290 1192 432 q 1110 75 1192 150 q 869 0 1028 0 l 650 0 l 650 504 l 206 504 l 206 0 l 126 0 m 728 71 l 865 71 q 1050 126 990 71 q 1110 290 1110 181 q 1050 452 1110 400 q 864 504 990 504 l 728 504 l 728 71 z "},"Ћ":{"ha":869,"x_min":10,"x_max":788,"o":"m 221 0 l 221 921 l 10 921 l 10 992 l 622 992 l 622 921 l 300 921 l 300 517 l 276 546 q 394 581 338 569 q 508 592 451 592 q 719 524 650 592 q 788 317 788 456 l 788 0 l 708 0 l 708 310 q 657 470 708 419 q 494 521 606 521 q 388 509 442 521 q 274 472 335 497 l 300 517 l 300 0 l 221 0 z "},"Ќ":{"ha":731,"x_min":126,"x_max":721,"o":"m 631 0 l 335 501 l 335 533 l 614 992 l 699 992 l 401 506 l 401 543 l 721 0 l 631 0 m 126 0 l 126 992 l 206 992 l 206 0 l 126 0 m 186 483 l 186 554 l 383 554 l 383 483 l 186 483 m 342 1085 l 342 1099 l 496 1307 l 588 1307 l 588 1294 l 393 1085 l 342 1085 z "},"Ў":{"ha":704,"x_min":6,"x_max":701,"o":"m 158 -14 q 115 -10 135 -14 q 78 -1 94 -7 l 78 71 q 113 64 96 67 q 150 61 129 61 q 225 82 194 61 q 283 155 256 103 q 342 299 310 207 l 339 224 l 6 992 l 92 992 l 331 438 q 343 407 338 422 q 355 376 349 392 q 367 343 361 361 l 371 343 q 381 374 376 358 q 390 405 385 390 q 400 433 396 419 l 617 992 l 701 992 l 408 253 q 338 99 372 157 q 261 13 303 40 q 158 -14 219 -14 m 368 1078 q 241 1119 289 1078 q 186 1239 193 1160 l 257 1239 q 291 1160 263 1186 q 369 1133 319 1133 q 447 1160 418 1133 q 481 1239 475 1186 l 551 1239 q 497 1119 544 1161 q 368 1078 449 1078 z "},"Џ":{"ha":883,"x_min":126,"x_max":757,"o":"m 403 -208 l 403 0 l 126 0 l 126 992 l 206 992 l 206 71 l 678 71 l 678 992 l 757 992 l 757 0 l 481 0 l 481 -208 l 403 -208 z "},"А":{"ha":744,"x_min":0,"x_max":744,"o":"m 663 0 l 549 344 l 197 344 l 82 0 l 0 0 l 335 994 l 417 994 l 744 0 l 663 0 m 413 781 q 400 822 407 799 q 386 869 393 844 q 374 914 379 893 q 362 868 368 892 q 349 823 356 844 q 336 781 342 801 l 219 417 l 526 417 l 413 781 z "},"Б":{"ha":747,"x_min":126,"x_max":682,"o":"m 126 0 l 126 992 l 625 992 l 625 921 l 206 921 l 206 575 l 353 575 q 601 506 519 575 q 682 292 682 436 q 599 75 682 150 q 357 0 517 0 l 126 0 m 206 69 l 351 69 q 540 124 479 69 q 600 290 600 179 q 540 454 600 403 q 350 506 481 506 l 206 506 l 206 69 z "},"В":{"ha":788,"x_min":126,"x_max":718,"o":"m 126 0 l 126 992 l 376 992 q 615 934 538 992 q 693 753 693 876 q 673 645 693 693 q 614 567 653 597 q 518 525 575 536 l 518 521 q 629 478 585 508 q 696 399 674 449 q 718 281 718 350 q 681 126 718 189 q 574 32 643 64 q 408 0 504 0 l 126 0 m 206 69 l 401 69 q 577 124 518 69 q 636 285 636 178 q 608 399 636 356 q 526 464 581 443 q 389 485 471 485 l 206 485 l 206 69 m 206 554 l 386 554 q 558 602 504 554 q 611 746 611 650 q 555 880 611 838 q 372 922 499 922 l 206 922 l 206 554 z "},"Г":{"ha":628,"x_min":126,"x_max":600,"o":"m 126 0 l 126 992 l 600 992 l 600 921 l 206 921 l 206 0 l 126 0 z "},"Д":{"ha":899,"x_min":15,"x_max":883,"o":"m 15 -208 l 15 71 l 100 71 q 165 190 139 129 q 206 323 190 250 q 229 489 222 396 q 236 569 233 528 q 242 667 239 611 q 249 802 246 724 q 258 992 253 881 l 761 992 l 761 71 l 883 71 l 883 -208 l 807 -208 l 807 0 l 92 0 l 92 -208 l 15 -208 m 190 71 l 683 71 l 683 921 l 331 921 q 322 763 326 836 q 315 626 318 689 q 306 507 311 563 q 284 328 299 407 q 247 188 269 250 q 190 71 224 125 z "}}}
